<?xml version="1.0" standalone="no"?>
<!DOCTYPE svg PUBLIC "-//W3C//DTD SVG 1.1//EN" "http://www.w3.org/Graphics/SVG/1.1/DTD/svg11.dtd" >
<svg xmlns="http://www.w3.org/2000/svg" xmlns:xlink="http://www.w3.org/1999/xlink" version="1.1">
<metadata>
Created by FontForge 20170731 at Sun Jun 24 01:51:29 2012
 By Aleksey,,,
(c) 2009, 2010, 2011, 2012 GrandChaos9000. Some Rights Reserved. (Under licensed of Creative Commons CC-BY-NC-SA 3.0)
</metadata>
<defs>
<font id="AeroMaticsDisplayRegular" horiz-adv-x="1100" >
  <font-face 
    font-family="Aero Matics Display"
    font-weight="400"
    font-stretch="normal"
    units-per-em="2048"
    panose-1="2 11 6 3 6 1 1 1 1 1"
    ascent="1638"
    descent="-410"
    x-height="1005"
    cap-height="1400"
    bbox="-130 -430 2600 1910"
    underline-thickness="150"
    underline-position="-442"
    unicode-range="U+0020-2122"
  />
<missing-glyph horiz-adv-x="1000" 
d="M100 1400h800v-1400h-800v1400zM200 1300v-1200h600v1200h-600z" />
    <glyph glyph-name=".notdef" horiz-adv-x="1000" 
d="M100 1400h800v-1400h-800v1400zM200 1300v-1200h600v1200h-600z" />
    <glyph glyph-name=".null" horiz-adv-x="0" 
 />
    <glyph glyph-name="nonmarkingreturn" horiz-adv-x="682" 
 />
    <glyph glyph-name="space" unicode=" " horiz-adv-x="400" 
 />
    <glyph glyph-name="exclam" unicode="!" horiz-adv-x="400" 
d="M100 400v1000h200v-1000h-200zM100 0v200h200v-200h-200z" />
    <glyph glyph-name="quotedbl" unicode="&#x22;" horiz-adv-x="800" 
d="M400 1400l-100 -300h-200l100 300h200zM700 1400l-100 -300h-200l100 300h200z" />
    <glyph glyph-name="numbersign" unicode="#" horiz-adv-x="1400" 
d="M465 1050l105 350h200l-105 -350h300l105 350h200l-105 -350h135v-200h-195l-90 -300h185v-200h-245l-105 -350h-200l105 350h-300l-105 -350h-200l105 350h-155v200h215l90 300h-205v200h265zM515 550h300l90 300h-300z" />
    <glyph glyph-name="dollar" unicode="$" 
d="M600 0v-200h-100v200h-400v200h400v400h-50q-350 0 -350 350v100q0 350 350 350h50v200h100v-200h400v-200h-400v-400h50q350 0 350 -350v-100q0 -350 -350 -350h-50zM300 950q0 -150 150 -150h50v400h-50q-150 0 -150 -150v-100zM600 600v-400h50q150 0 150 150v100
q0 150 -150 150h-50z" />
    <glyph glyph-name="percent" unicode="%" horiz-adv-x="1900" 
d="M450 600q-350 0 -350 350v100q0 350 350 350t350 -350v-100q0 -350 -350 -350zM1800 350q0 -350 -350 -350t-350 350v100q0 350 350 350t350 -350v-100zM300 950q0 -150 150 -150t150 150v100q0 150 -150 150t-150 -150v-100zM1300 350q0 -150 150 -150t150 150v100
q0 150 -150 150t-150 -150v-100zM500 0l690 1400h210l-690 -1400h-210z" />
    <glyph glyph-name="ampersand" unicode="&#x26;" 
d="M450 0q-350 0 -350 350v100q0 220 170 250q-170 30 -170 250v100q0 350 350 350h450v-200h-450q-150 0 -150 -150v-100q0 -150 150 -150h250v150h200v-150h100v-200h-100v-600h-450zM300 350q0 -150 150 -150h250v400h-250q-150 0 -150 -150v-100z" />
    <glyph glyph-name="quotesingle" unicode="'" horiz-adv-x="500" 
d="M400 1400l-100 -300h-200l100 300h200z" />
    <glyph glyph-name="parenleft" unicode="(" horiz-adv-x="700" 
d="M380 -200q-280 400 -280 900t280 900h220q-300 -400 -300 -900t300 -900h-220z" />
    <glyph glyph-name="parenright" unicode=")" horiz-adv-x="700" 
d="M100 -200q300 400 300 900t-300 900h220q280 -400 280 -900t-280 -900h-220z" />
    <glyph glyph-name="asterisk" unicode="*" horiz-adv-x="722" 
d="M146 936l117 179l-163 16l12 120l189 -20v179h120v-179l189 20l12 -120l-164 -16l118 -179l-109 -49l-106 165l-106 -165z" />
    <glyph glyph-name="plus" unicode="+" horiz-adv-x="1000" 
d="M400 800v300h200v-300h300v-200h-300v-300h-200v300h-300v200h300z" />
    <glyph glyph-name="comma" unicode="," horiz-adv-x="500" 
d="M400 200l-100 -300h-200l100 300h200z" />
    <glyph glyph-name="hyphen" unicode="-" horiz-adv-x="800" 
d="M700 800v-200h-600v200h600z" />
    <glyph glyph-name="period" unicode="." horiz-adv-x="400" 
d="M100 0v200h200v-200h-200z" />
    <glyph glyph-name="slash" unicode="/" horiz-adv-x="820" 
d="M300 -200h-200l420 1800h200z" />
    <glyph glyph-name="zero" unicode="0" horiz-adv-x="1150" 
d="M1050 350q0 -350 -350 -350h-250q-350 0 -350 350v700q0 350 350 350h250q350 0 350 -350v-700zM850 790l-550 -390v-50q0 -150 150 -150h250q150 0 150 150v440zM300 610l550 390v50q0 150 -150 150h-250q-150 0 -150 -150v-440z" />
    <glyph glyph-name="one" unicode="1" horiz-adv-x="500" 
d="M200 1200h-100v200h300v-1400h-200v1200z" />
    <glyph glyph-name="two" unicode="2" 
d="M100 0v450q0 350 350 350h200q150 0 150 150v100q0 150 -150 150h-550v200h550q350 0 350 -350v-100q0 -350 -350 -350h-200q-150 0 -150 -150v-250h700v-200h-900z" />
    <glyph glyph-name="three" unicode="3" horiz-adv-x="1000" 
d="M100 800h450q150 0 150 150v100q0 150 -150 150h-450v200h450q350 0 350 -350v-100q0 -220 -170 -250q170 -30 170 -250v-100q0 -350 -350 -350h-450v200h450q150 0 150 150v100q0 150 -150 150h-450v200z" />
    <glyph glyph-name="four" unicode="4" 
d="M390 1400h210l-290 -700h490v700h200v-1400h-200v500h-700v200z" />
    <glyph glyph-name="five" unicode="5" horiz-adv-x="1050" 
d="M100 0v200h500q150 0 150 150v100q0 150 -150 150h-500v800h850v-200h-650v-400h300q350 0 350 -350v-100q0 -350 -350 -350h-500z" />
    <glyph glyph-name="six" unicode="6" 
d="M300 800h350q350 0 350 -350v-100q0 -350 -350 -350h-190q-360 0 -360 350v600q0 450 450 450h350v-200h-350q-250 0 -250 -250v-150zM300 600v-250q0 -150 160 -150h190q150 0 150 150v100q0 150 -150 150h-350z" />
    <glyph glyph-name="seven" unicode="7" 
d="M1000 1400v-200l-590 -1200h-210l590 1200h-690v200h900z" />
    <glyph glyph-name="eight" unicode="8" 
d="M100 1050q0 350 350 350h200q350 0 350 -350v-100q0 -220 -170 -250q170 -30 170 -250v-100q0 -350 -350 -350h-200q-350 0 -350 350v100q0 220 170 250q-170 30 -170 250v100zM650 800q150 0 150 150v100q0 150 -150 150h-200q-150 0 -150 -150v-100q0 -150 150 -150
h200zM450 600q-150 0 -150 -150v-100q0 -150 150 -150h200q150 0 150 150v100q0 150 -150 150h-200z" />
    <glyph glyph-name="nine" unicode="9" 
d="M800 600h-350q-350 0 -350 350v100q0 350 350 350h190q360 0 360 -350v-600q0 -450 -450 -450h-350v200h350q250 0 250 250v150zM800 800v250q0 150 -160 150h-190q-150 0 -150 -150v-100q0 -150 150 -150h350z" />
    <glyph glyph-name="colon" unicode=":" horiz-adv-x="400" 
d="M100 0v200h200v-200h-200zM100 800v200h200v-200h-200z" />
    <glyph glyph-name="semicolon" unicode=";" horiz-adv-x="400" 
d="M100 800v200h200v-200h-200zM300 200l-100 -300h-200l100 300h200z" />
    <glyph glyph-name="less" unicode="&#x3c;" horiz-adv-x="900" 
d="M100 600v200l700 300v-200l-500 -200l500 -200v-200z" />
    <glyph glyph-name="equal" unicode="=" horiz-adv-x="800" 
d="M700 1000v-200h-600v200h600zM700 600v-200h-600v200h600z" />
    <glyph glyph-name="greater" unicode="&#x3e;" horiz-adv-x="900" 
d="M100 300v200l500 200l-500 200v200l700 -300v-200z" />
    <glyph glyph-name="question" unicode="?" horiz-adv-x="1000" 
d="M300 400v400h250q150 0 150 150v100q0 150 -150 150h-450v200h450q350 0 350 -350v-100q0 -350 -350 -350h-50v-200h-200zM500 200v-200h-200v200h200z" />
    <glyph glyph-name="at" unicode="@" horiz-adv-x="1500" 
d="M1150 300q-202 0 -239 115q-61 -115 -211 -115q-300 0 -300 300v200q0 300 300 300q150 0 200 -100v100h200v-500q0 -100 50 -100t50 100v300q0 300 -300 300h-300q-300 0 -300 -300v-400q0 -300 300 -300h600v-200h-600q-500 0 -500 500v400q0 500 500 500h300
q500 0 500 -500v-300q0 -300 -250 -300zM700 500q150 0 200 100v200q-50 100 -200 100q-100 0 -100 -100v-200q0 -100 100 -100z" />
    <glyph glyph-name="A" unicode="A" 
d="M1100 0h-200l-93 300h-514l-93 -300h-200l420 1400h260zM354 500h392l-196 700z" />
    <glyph glyph-name="B" unicode="B" 
d="M650 1400q350 0 350 -350v-100q0 -220 -170 -250q170 -30 170 -250v-100q0 -350 -350 -350h-550v1400h550zM300 1200v-400h350q150 0 150 150v100q0 150 -150 150h-350zM300 600v-400h350q150 0 150 150v100q0 150 -150 150h-350z" />
    <glyph glyph-name="C" unicode="C" horiz-adv-x="1000" 
d="M300 350q0 -150 150 -150h450v-200h-450q-350 0 -350 350v700q0 350 350 350h450v-200h-450q-150 0 -150 -150v-700z" />
    <glyph glyph-name="D" unicode="D" 
d="M650 1400q350 0 350 -350v-700q0 -350 -350 -350h-550v1400h550zM800 1050q0 150 -150 150h-350v-1000h350q150 0 150 150v700z" />
    <glyph glyph-name="E" unicode="E" horiz-adv-x="1000" 
d="M900 800v-200h-600v-400h600v-200h-800v1400h800v-200h-600v-400h600z" />
    <glyph glyph-name="F" unicode="F" horiz-adv-x="1000" 
d="M900 800v-200h-600v-600h-200v1400h800v-200h-600v-400h600z" />
    <glyph glyph-name="G" unicode="G" 
d="M300 350q0 -150 150 -150h200q150 0 150 150v250h-300v200h500v-450q0 -350 -350 -350h-200q-350 0 -350 350v700q0 350 350 350h550v-200h-550q-150 0 -150 -150v-700z" />
    <glyph glyph-name="H" unicode="H" 
d="M300 1400v-600h500v600h200v-1400h-200v600h-500v-600h-200v1400h200z" />
    <glyph glyph-name="I" unicode="I" horiz-adv-x="400" 
d="M300 1400v-1400h-200v1400h200z" />
    <glyph glyph-name="J" unicode="J" horiz-adv-x="700" 
d="M400 1400h200v-1000q0 -400 -400 -400h-100v200h100q200 0 200 200v1000z" />
    <glyph glyph-name="K" unicode="K" horiz-adv-x="1150" 
d="M100 0v1400h200v-680l550 680h250l-550 -700l550 -700h-250l-550 680v-680h-200z" />
    <glyph glyph-name="L" unicode="L" horiz-adv-x="1000" 
d="M300 200h600v-200h-800v1400h200v-1200z" />
    <glyph glyph-name="M" unicode="M" horiz-adv-x="1500" 
d="M100 1400h270l380 -1050l380 1050h270v-1400h-200v1050l-370 -1050h-160l-370 1050v-1050h-200v1400z" />
    <glyph glyph-name="N" unicode="N" horiz-adv-x="1200" 
d="M300 1400l600 -1000v1000h200v-1400h-200l-600 1000v-1000h-200v1400h200z" />
    <glyph glyph-name="O" unicode="O" horiz-adv-x="1150" 
d="M1050 350q0 -350 -350 -350h-250q-350 0 -350 350v700q0 350 350 350h250q350 0 350 -350v-700zM300 350q0 -150 150 -150h250q150 0 150 150v700q0 150 -150 150h-250q-150 0 -150 -150v-700z" />
    <glyph glyph-name="P" unicode="P" 
d="M300 600v-600h-200v1400h550q350 0 350 -350v-100q0 -350 -350 -350h-350zM300 1200v-400h350q150 0 150 150v100q0 150 -150 150h-350z" />
    <glyph glyph-name="Q" unicode="Q" horiz-adv-x="1150" 
d="M650 0h-200q-350 0 -350 350v700q0 350 350 350h250q350 0 350 -350v-700q0 -290 -230 -350l80 -200h-170zM650 400l80 -200q120 0 120 150v700q0 150 -150 150h-250q-150 0 -150 -150v-700q0 -150 150 -150h110l-80 200h170z" />
    <glyph glyph-name="R" unicode="R" 
d="M568 600h-268v-600h-200v1400h550q350 0 350 -350v-100q0 -315 -234 -346l234 -604h-200zM300 1200v-400h350q150 0 150 150v100q0 150 -150 150h-350z" />
    <glyph glyph-name="S" unicode="S" 
d="M100 0v200h550q150 0 150 150v100q0 150 -150 150h-200q-350 0 -350 350v100q0 350 350 350h550v-200h-550q-150 0 -150 -150v-100q0 -150 150 -150h200q350 0 350 -350v-100q0 -350 -350 -350h-550z" />
    <glyph glyph-name="T" unicode="T" 
d="M1000 1400v-200h-350v-1200h-200v1200h-350v200h900z" />
    <glyph glyph-name="U" unicode="U" horiz-adv-x="1150" 
d="M1050 1400v-1050q0 -350 -350 -350h-250q-350 0 -350 350v1050h200v-1050q0 -150 150 -150h250q150 0 150 150v1050h200z" />
    <glyph glyph-name="V" unicode="V" 
d="M900 1400h200l-420 -1400h-260l-420 1400h200l350 -1200z" />
    <glyph glyph-name="W" unicode="W" horiz-adv-x="1500" 
d="M1230 0h-260l-220 1081l-220 -1081h-260l-270 1400h200l200 -1100l250 1100h200l250 -1100l200 1100h200z" />
    <glyph glyph-name="X" unicode="X" horiz-adv-x="1200" 
d="M100 0l335 700l-335 700h230l270 -596l270 596h230l-335 -700l335 -700h-230l-270 595l-270 -595h-230z" />
    <glyph glyph-name="Y" unicode="Y" horiz-adv-x="1000" 
d="M220 1400l280 -600l280 600h220l-400 -800v-600h-200v600l-400 800h220z" />
    <glyph glyph-name="Z" unicode="Z" 
d="M1000 1400v-200l-670 -1000h670v-200h-900v200l670 1000h-670v200h900z" />
    <glyph glyph-name="bracketleft" unicode="[" horiz-adv-x="600" 
d="M500 1400h-200v-1400h200v-200h-400v1800h400v-200z" />
    <glyph glyph-name="backslash" unicode="\" horiz-adv-x="820" 
d="M100 1600h200l420 -1800h-200z" />
    <glyph glyph-name="bracketright" unicode="]" horiz-adv-x="600" 
d="M100 1600h400v-1800h-400v200h200v1400h-200v200z" />
    <glyph glyph-name="asciicircum" unicode="^" horiz-adv-x="1000" 
d="M400 1400h200l300 -700h-200l-200 500l-200 -500h-200z" />
    <glyph glyph-name="underscore" unicode="_" horiz-adv-x="800" 
d="M800 -200v-200h-800v200h800z" />
    <glyph glyph-name="grave" unicode="`" horiz-adv-x="500" 
d="M240 1100l-140 300h210l90 -300h-160z" />
    <glyph glyph-name="a" unicode="a" horiz-adv-x="880" 
d="M880 -8h-192l-70 209h-356l-70 -209h-192l328 1013h224zM320 380h240l-120 397z" />
    <glyph glyph-name="b" unicode="b" horiz-adv-x="865" 
d="M508 1005q282 0 282 -263v-70q0 -140 -124 -173q124 -34 124 -174v-70q0 -263 -282 -263h-433v1013h433zM265 826v-238h243q92 0 92 84v70q0 84 -92 84h-243zM265 409v-238h243q92 0 92 84v70q0 84 -92 84h-243z" />
    <glyph glyph-name="c" unicode="c" horiz-adv-x="790" 
d="M265 255q0 -84 93 -84h357v-179h-357q-283 0 -283 263v487q0 263 283 263h357v-179h-357q-93 0 -93 -84v-487z" />
    <glyph glyph-name="d" unicode="d" horiz-adv-x="865" 
d="M508 1005q282 0 282 -263v-487q0 -263 -282 -263h-433v1013h433zM600 742q0 84 -92 84h-243v-655h243q92 0 92 84v487z" />
    <glyph glyph-name="e" unicode="e" horiz-adv-x="790" 
d="M715 588v-179h-450v-238h450v-179h-640v1013h640v-179h-450v-238h450z" />
    <glyph glyph-name="f" unicode="f" horiz-adv-x="790" 
d="M715 588v-179h-450v-417h-190v1013h640v-179h-450v-238h450z" />
    <glyph glyph-name="g" unicode="g" horiz-adv-x="865" 
d="M265 255q0 -84 93 -84h150q92 0 92 84v154h-225v179h415v-333q0 -263 -282 -263h-150q-283 0 -283 263v487q0 263 283 263h432v-179h-432q-93 0 -93 -84v-487z" />
    <glyph glyph-name="h" unicode="h" horiz-adv-x="865" 
d="M265 1005v-417h335v417h190v-1013h-190v417h-335v-417h-190v1013h190z" />
    <glyph glyph-name="i" unicode="i" horiz-adv-x="340" 
d="M265 1005v-1013h-190v1013h190z" />
    <glyph glyph-name="j" unicode="j" horiz-adv-x="565" 
d="M300 1005h190v-715q0 -298 -320 -298h-95v179h95q130 0 130 119v715z" />
    <glyph glyph-name="k" unicode="k" horiz-adv-x="926" 
d="M75 -8v1013h190v-439l383 439h240l-429 -506l429 -507h-240l-383 439v-439h-190z" />
    <glyph glyph-name="l" unicode="l" horiz-adv-x="790" 
d="M265 171h450v-179h-640v1013h190v-834z" />
    <glyph glyph-name="m" unicode="m" horiz-adv-x="1165" 
d="M75 1005h236l272 -695l271 695h236v-1013h-190v641l-244 -641h-147l-244 641v-641h-190v1013z" />
    <glyph glyph-name="n" unicode="n" horiz-adv-x="940" 
d="M256 1005l419 -647v647h190v-1013h-181l-419 647v-647h-190v1013h181z" />
    <glyph glyph-name="o" unicode="o" horiz-adv-x="903" 
d="M828 255q0 -263 -283 -263h-187q-283 0 -283 263v487q0 263 283 263h187q283 0 283 -263v-487zM265 255q0 -84 93 -84h187q93 0 93 84v487q0 84 -93 84h-187q-93 0 -93 -84v-487z" />
    <glyph glyph-name="p" unicode="p" horiz-adv-x="865" 
d="M265 409v-417h-190v1013h433q282 0 282 -263v-70q0 -263 -282 -263h-243zM265 826v-238h243q92 0 92 84v70q0 84 -92 84h-243z" />
    <glyph glyph-name="q" unicode="q" horiz-adv-x="903" 
d="M494 -8h-136q-283 0 -283 263v487q0 263 283 263h187q283 0 283 -263v-487q0 -217 -165 -257l62 -145h-171zM521 310l60 -139q57 0 57 84v487q0 84 -93 84h-187q-93 0 -93 -84v-487q0 -84 93 -84h52l-60 139h171z" />
    <glyph glyph-name="r" unicode="r" horiz-adv-x="875" 
d="M433 409h-168v-417h-190v1013h433q282 0 282 -263v-70q0 -236 -167 -257l177 -423h-193zM265 826v-238h243q92 0 92 84v70q0 84 -92 84h-243z" />
    <glyph glyph-name="s" unicode="s" horiz-adv-x="865" 
d="M75 -8v179h433q92 0 92 84v70q0 84 -92 84h-150q-283 0 -283 263v70q0 263 283 263h432v-179h-432q-93 0 -93 -84v-70q0 -84 93 -84h150q282 0 282 -263v-70q0 -263 -282 -263h-433z" />
    <glyph glyph-name="t" unicode="t" horiz-adv-x="865" 
d="M790 1005v-179h-262v-834h-190v834h-263v179h715z" />
    <glyph glyph-name="u" unicode="u" horiz-adv-x="903" 
d="M828 1005v-750q0 -263 -283 -263h-187q-283 0 -283 263v750h190v-750q0 -84 93 -84h187q93 0 93 84v750h190z" />
    <glyph glyph-name="v" unicode="v" horiz-adv-x="880" 
d="M688 1005h192l-328 -1013h-224l-328 1013h192l248 -787z" />
    <glyph glyph-name="w" unicode="w" horiz-adv-x="1174" 
d="M963 -8h-227l-149 678l-149 -678h-227l-211 1013h191l136 -692l169 692h182l169 -692l136 692h191z" />
    <glyph glyph-name="x" unicode="x" horiz-adv-x="966" 
d="M75 -8l262 507l-262 506h218l190 -389l190 389h218l-262 -506l262 -507h-218l-190 388l-190 -388h-218z" />
    <glyph glyph-name="y" unicode="y" horiz-adv-x="817" 
d="M211 1005l198 -393l197 393h211l-313 -581v-432h-190v432l-314 581h211z" />
    <glyph glyph-name="z" unicode="z" horiz-adv-x="865" 
d="M790 1005v-165l-483 -669h483v-179h-715v165l483 669h-483v179h715z" />
    <glyph glyph-name="braceleft" unicode="{" horiz-adv-x="800" 
d="M100 800q200 0 200 150v250q0 400 400 400v-200q-200 0 -200 -200v-250q0 -220 -200 -250q200 -30 200 -250v-250q0 -200 200 -200v-200q-400 0 -400 400v250q0 150 -200 150v200z" />
    <glyph glyph-name="bar" unicode="|" horiz-adv-x="400" 
d="M300 1600v-1800h-200v1800h200z" />
    <glyph glyph-name="braceright" unicode="}" horiz-adv-x="800" 
d="M700 600q-200 0 -200 -150v-250q0 -400 -400 -400v200q200 0 200 200v250q0 220 200 250q-200 30 -200 250v250q0 200 -200 200v200q400 0 400 -400v-250q0 -150 200 -150v-200z" />
    <glyph glyph-name="asciitilde" unicode="~" 
d="M100 500q0 300 250 300q130 0 220 -75t190 -75q90 0 90 150h150q0 -300 -250 -300q-130 0 -220 70t-190 70q-90 0 -90 -140h-150z" />
    <glyph glyph-name="uni00A0" unicode="&#xa0;" horiz-adv-x="400" 
 />
    <glyph glyph-name="exclamdown" unicode="&#xa1;" horiz-adv-x="400" 
d="M300.006 700.024v-999.938h-199.987v999.938h199.987zM300.006 1100v-199.988h-199.987v199.988h199.987z" />
    <glyph glyph-name="cent" unicode="&#xa2;" horiz-adv-x="900" 
d="M600 1400v-200h250v-200h-250v-600h250v-200h-250v-200h-100v200h-50q-350 0 -350 350v300q0 350 350 350h50v200h100zM300 550q0 -150 150 -150h50v600h-50q-150 0 -150 -150v-300z" />
    <glyph glyph-name="sterling" unicode="&#xa3;" 
d="M450 800h550v-200h-550v-400h550v-200h-900v200h150v400h-150v200h150v150q0 450 450 450h300v-200h-300q-250 0 -250 -250v-150z" />
    <glyph glyph-name="yen" unicode="&#xa5;" horiz-adv-x="1000" 
d="M210 1400l290 -600l290 600h210l-400 -800h300v-150h-300v-150h300v-150h-300v-150h-200v150h-300v150h300v150h-300v150h300l-400 800h210z" />
    <glyph glyph-name="brokenbar" unicode="&#xa6;" horiz-adv-x="400" 
d="M300 1600v-800h-200v800h200zM300 600v-800h-200v800h200z" />
    <glyph glyph-name="dieresis" unicode="&#xa8;" horiz-adv-x="800" 
d="M100 1100v200h200v-200h-200zM500 1100v200h200v-200h-200z" />
    <glyph glyph-name="copyright" unicode="&#xa9;" horiz-adv-x="1395" 
d="M1295 698q0 -248 -175 -423t-422 -175q-248 0 -423 175t-175 423q0 247 175 422t423 175q247 0 422 -175t175 -422zM698 1155q-189 0 -323 -134t-134 -323t134 -323t323 -134t323 134t134 323t-134 323t-323 134zM860 767q-12 30 -38 55q-51 52 -124 52t-124.5 -51.5
t-51.5 -124.5t51.5 -124.5t124.5 -51.5t124 51q28 28 40 61h146q-18 -91 -87 -160q-92 -93 -223 -93t-224 93t-93 224t93 223.5t224 92.5t223 -93q68 -67 86 -154h-147z" />
    <glyph glyph-name="guillemotleft" unicode="&#xab;" horiz-adv-x="1048" 
d="M450 650l280 450h220l-280 -450l280 -450h-220zM100 650l280 450h220l-280 -450l280 -450h-220z" />
    <glyph glyph-name="logicalnot" unicode="&#xac;" horiz-adv-x="1000" 
d="M900 800v-500h-200v300h-600v200h800z" />
    <glyph glyph-name="registered" unicode="&#xae;" horiz-adv-x="1395" 
d="M1295 693q0 -248 -175 -423t-422 -175q-248 0 -423 175t-175 423q0 247 175 422t423 175q247 0 422 -175t175 -422zM698 1150q-189 0 -323 -134t-134 -323t134 -323t323 -134t323 134t134 323t-134 323t-323 134zM748 1009q211 0 211 -211q0 -136 -96 -185l96 -237h-152
l-82 211h-138v-211h-141v633h302zM748 728q70 0 70 70q0 71 -70 71h-161v-141h161z" />
    <glyph glyph-name="degree" unicode="&#xb0;" horiz-adv-x="620" 
d="M520 1200q0 -87 -61.5 -148.5t-148.5 -61.5t-148.5 61.5t-61.5 148.5t61.5 148.5t148.5 61.5t148.5 -61.5t61.5 -148.5zM310 1290q-37 0 -63.5 -26.5t-26.5 -63.5t26.5 -63.5t63.5 -26.5t63.5 26.5t26.5 63.5t-26.5 63.5t-63.5 26.5z" />
    <glyph glyph-name="plusminus" unicode="&#xb1;" horiz-adv-x="1000" 
d="M400 800v300h200v-300h300v-200h-300v-300h-200v300h-300v200h300zM900 200v-200h-800v200h800z" />
    <glyph glyph-name="acute" unicode="&#xb4;" horiz-adv-x="500" 
d="M100 1100l90 300h210l-140 -300h-160z" />
    <glyph glyph-name="mu" unicode="&#xb5;" horiz-adv-x="1165" 
d="M75 1005h236l272 -695l271 695h236v-1013h-190v641l-244 -641h-147l-244 641v-641h-190v1013z" />
    <glyph glyph-name="paragraph" unicode="&#xb6;" horiz-adv-x="1200" 
d="M1100 1400v-1800h-200v1600h-200v-1600h-200v1000q-400 0 -400 400t400 400h600z" />
    <glyph glyph-name="periodcentered" unicode="&#xb7;" horiz-adv-x="400" 
d="M100 600v200h200v-200h-200z" />
    <glyph glyph-name="cedilla" unicode="&#xb8;" horiz-adv-x="600" 
d="M200 -100q17 1 32 1q268 0 268 -131q0 -200 -220 -200q-100 0 -180 30v130q80 -30 180 -30q90 0 90 70t-170 70v60z" />
    <glyph glyph-name="guillemotright" unicode="&#xbb;" horiz-adv-x="1048" 
d="M320 200h-220l280 450l-280 450h220l280 -450zM670 200h-220l280 450l-280 450h220l280 -450z" />
    <glyph glyph-name="questiondown" unicode="&#xbf;" horiz-adv-x="1000" 
d="M700.019 700.024v-399.976h-249.985q-149.99 0 -149.99 -149.991v-99.9932q0 -149.991 149.99 -149.991h449.973v-199.987h-449.973q-349.979 0 -349.979 349.979v99.9932q0 349.979 349.979 349.979h49.9971v199.987h199.988zM500.03 900.012v199.988h199.988v-199.988
h-199.988z" />
    <glyph glyph-name="Agrave" unicode="&#xc0;" 
d="M1100 0h-200l-93 300h-514l-93 -300h-200l420 1400h260zM354 500h392l-196 700zM490 1500l-140 300h210l90 -300h-160z" />
    <glyph glyph-name="Aacute" unicode="&#xc1;" 
d="M1100 0h-200l-93 300h-514l-93 -300h-200l420 1400h260zM354 500h392l-196 700zM450 1500l90 300h210l-140 -300h-160z" />
    <glyph glyph-name="Acircumflex" unicode="&#xc2;" 
d="M1100 0h-200l-93 300h-514l-93 -300h-200l420 1400h260zM354 500h392l-196 700zM430 1800h240l180 -300h-170l-130 200l-130 -200h-170z" />
    <glyph glyph-name="Atilde" unicode="&#xc3;" 
d="M1100 0h-200l-93 300h-514l-93 -300h-200l420 1400h260zM354 500h392l-196 700zM180 1500q0 250 190 250q100 0 180 -50t170 -50q70 0 70 100h130q0 -250 -190 -250q-100 0 -180 50t-170 50q-70 0 -70 -100h-130z" />
    <glyph glyph-name="Adieresis" unicode="&#xc4;" 
d="M1100 0h-200l-93 300h-514l-93 -300h-200l420 1400h260zM354 500h392l-196 700zM250 1500v200h200v-200h-200zM650 1500v200h200v-200h-200z" />
    <glyph glyph-name="Aring" unicode="&#xc5;" 
d="M1100 0h-200l-93 300h-514l-93 -300h-200l420 1400h260zM354 500h392l-196 700zM760 1700q0 -87 -61.5 -148.5t-148.5 -61.5t-148.5 61.5t-61.5 148.5t61.5 148.5t148.5 61.5t148.5 -61.5t61.5 -148.5zM550 1790q-37 0 -63.5 -26.5t-26.5 -63.5t26.5 -63.5t63.5 -26.5
t63.5 26.5t26.5 63.5t-26.5 63.5t-63.5 26.5z" />
    <glyph glyph-name="AE" unicode="&#xc6;" horiz-adv-x="1500" 
d="M1400 800v-200h-500v-400h500v-200h-700v300h-407l-93 -300h-200l420 1400h980v-200h-500v-400h500zM700 1200h-150l-196 -700h346v700z" />
    <glyph glyph-name="Ccedilla" unicode="&#xc7;" horiz-adv-x="1000" 
d="M300 350q0 -150 150 -150h450v-200h-450q-350 0 -350 350v700q0 350 350 350h450v-200h-450q-150 0 -150 -150v-700zM500 -100q17 1 32 1q268 0 268 -131q0 -200 -220 -200q-100 0 -180 30v130q80 -30 180 -30q90 0 90 70t-170 70v60z" />
    <glyph glyph-name="Egrave" unicode="&#xc8;" horiz-adv-x="1000" 
d="M900 800v-200h-600v-400h600v-200h-800v1400h800v-200h-600v-400h600zM440 1500l-140 300h210l90 -300h-160z" />
    <glyph glyph-name="Eacute" unicode="&#xc9;" horiz-adv-x="1000" 
d="M900 800v-200h-600v-400h600v-200h-800v1400h800v-200h-600v-400h600zM400 1500l90 300h210l-140 -300h-160z" />
    <glyph glyph-name="Ecircumflex" unicode="&#xca;" horiz-adv-x="1000" 
d="M900 800v-200h-600v-400h600v-200h-800v1400h800v-200h-600v-400h600zM380 1800h240l180 -300h-170l-130 200l-130 -200h-170z" />
    <glyph glyph-name="Edieresis" unicode="&#xcb;" horiz-adv-x="1000" 
d="M900 800v-200h-600v-400h600v-200h-800v1400h800v-200h-600v-400h600zM200 1500v200h200v-200h-200zM600 1500v200h200v-200h-200z" />
    <glyph glyph-name="Igrave" unicode="&#xcc;" horiz-adv-x="400" 
d="M300 1400v-1400h-200v1400h200zM141 1500l-140 300h210l90 -300h-160z" />
    <glyph glyph-name="Iacute" unicode="&#xcd;" horiz-adv-x="400" 
d="M300 1400v-1400h-200v1400h200zM100 1500l90 300h210l-140 -300h-160z" />
    <glyph glyph-name="Icircumflex" unicode="&#xce;" horiz-adv-x="400" 
d="M300 1400v-1400h-200v1400h200zM81 1800h240l180 -300h-170l-130 200l-130 -200h-170z" />
    <glyph glyph-name="Idieresis" unicode="&#xcf;" horiz-adv-x="400" 
d="M300 1400v-1400h-200v1400h200zM-99 1500v200h200v-200h-200zM301 1500v200h200v-200h-200z" />
    <glyph glyph-name="Eth" unicode="&#xd0;" 
d="M700 1400q300 0 300 -300v-800q0 -300 -300 -300h-600v630h-200v150h200v620h600zM800 1100q0 100 -100 100h-400v-420h200v-150h-200v-430h400q100 0 100 100v800z" />
    <glyph glyph-name="Ntilde" unicode="&#xd1;" horiz-adv-x="1200" 
d="M300 1400l600 -1000v1000h200v-1400h-200l-600 1000v-1000h-200v1400h200zM230 1500q0 250 190 250q100 0 180 -50t170 -50q70 0 70 100h130q0 -250 -190 -250q-100 0 -180 50t-170 50q-70 0 -70 -100h-130z" />
    <glyph glyph-name="Ograve" unicode="&#xd2;" horiz-adv-x="1150" 
d="M1050 350q0 -350 -350 -350h-250q-350 0 -350 350v700q0 350 350 350h250q350 0 350 -350v-700zM300 350q0 -150 150 -150h250q150 0 150 150v700q0 150 -150 150h-250q-150 0 -150 -150v-700zM515 1500l-140 300h210l90 -300h-160z" />
    <glyph glyph-name="Oacute" unicode="&#xd3;" horiz-adv-x="1150" 
d="M1050 350q0 -350 -350 -350h-250q-350 0 -350 350v700q0 350 350 350h250q350 0 350 -350v-700zM300 350q0 -150 150 -150h250q150 0 150 150v700q0 150 -150 150h-250q-150 0 -150 -150v-700zM475 1500l90 300h210l-140 -300h-160z" />
    <glyph glyph-name="Ocircumflex" unicode="&#xd4;" horiz-adv-x="1150" 
d="M1050 350q0 -350 -350 -350h-250q-350 0 -350 350v700q0 350 350 350h250q350 0 350 -350v-700zM300 350q0 -150 150 -150h250q150 0 150 150v700q0 150 -150 150h-250q-150 0 -150 -150v-700zM455 1800h240l180 -300h-170l-130 200l-130 -200h-170z" />
    <glyph glyph-name="Otilde" unicode="&#xd5;" horiz-adv-x="1150" 
d="M1050 350q0 -350 -350 -350h-250q-350 0 -350 350v700q0 350 350 350h250q350 0 350 -350v-700zM300 350q0 -150 150 -150h250q150 0 150 150v700q0 150 -150 150h-250q-150 0 -150 -150v-700zM205 1500q0 250 190 250q100 0 180 -50t170 -50q70 0 70 100h130
q0 -250 -190 -250q-100 0 -180 50t-170 50q-70 0 -70 -100h-130z" />
    <glyph glyph-name="Odieresis" unicode="&#xd6;" horiz-adv-x="1150" 
d="M1050 350q0 -350 -350 -350h-250q-350 0 -350 350v700q0 350 350 350h250q350 0 350 -350v-700zM300 350q0 -150 150 -150h250q150 0 150 150v700q0 150 -150 150h-250q-150 0 -150 -150v-700zM275 1500v200h200v-200h-200zM675 1500v200h200v-200h-200z" />
    <glyph glyph-name="multiply" unicode="&#xd7;" horiz-adv-x="1049" 
d="M383 694l-283 283l141 141l283 -283l283 283l142 -141l-283 -283l283 -283l-142 -141l-283 283l-283 -283l-141 141z" />
    <glyph glyph-name="Oslash" unicode="&#xd8;" horiz-adv-x="1150" 
d="M1050 350q0 -350 -350 -350h-225l-50 -200h-150l53 213q-228 54 -228 337v700q0 350 350 350h225l50 200h150l-53 -213q228 -55 228 -337v-700zM300 350q0 -108 78 -138l247 988h-175q-150 0 -150 -150v-700zM850 1050q0 108 -78 138l-247 -988h175q150 0 150 150v700z
" />
    <glyph glyph-name="Ugrave" unicode="&#xd9;" horiz-adv-x="1150" 
d="M1050 1400v-1050q0 -350 -350 -350h-250q-350 0 -350 350v1050h200v-1050q0 -150 150 -150h250q150 0 150 150v1050h200zM515 1500l-140 300h210l90 -300h-160z" />
    <glyph glyph-name="Uacute" unicode="&#xda;" horiz-adv-x="1150" 
d="M1050 1400v-1050q0 -350 -350 -350h-250q-350 0 -350 350v1050h200v-1050q0 -150 150 -150h250q150 0 150 150v1050h200zM475 1500l90 300h210l-140 -300h-160z" />
    <glyph glyph-name="Ucircumflex" unicode="&#xdb;" horiz-adv-x="1150" 
d="M1050 1400v-1050q0 -350 -350 -350h-250q-350 0 -350 350v1050h200v-1050q0 -150 150 -150h250q150 0 150 150v1050h200zM455 1800h240l180 -300h-170l-130 200l-130 -200h-170z" />
    <glyph glyph-name="Udieresis" unicode="&#xdc;" horiz-adv-x="1150" 
d="M1050 1400v-1050q0 -350 -350 -350h-250q-350 0 -350 350v1050h200v-1050q0 -150 150 -150h250q150 0 150 150v1050h200zM275 1500v200h200v-200h-200zM675 1500v200h200v-200h-200z" />
    <glyph glyph-name="Yacute" unicode="&#xdd;" horiz-adv-x="1000" 
d="M220 1400l280 -600l280 600h220l-400 -800v-600h-200v600l-400 800h220zM400 1500l90 300h210l-140 -300h-160z" />
    <glyph glyph-name="Thorn" unicode="&#xde;" 
d="M650 320h-350v-320h-200v1400h200v-330h350q350 0 350 -350v-50q0 -350 -350 -350zM300 870v-350h350q150 0 150 150v50q0 150 -150 150h-350z" />
    <glyph glyph-name="germandbls" unicode="&#xdf;" horiz-adv-x="1690" 
d="M75 -8v179h433q92 0 92 84v70q0 84 -92 84h-150q-283 0 -283 263v70q0 263 283 263h432v-179h-432q-93 0 -93 -84v-70q0 -84 93 -84h150q282 0 282 -263v-70q0 -263 -282 -263h-433zM900 -8v179h433q92 0 92 84v70q0 84 -92 84h-150q-283 0 -283 263v70q0 263 283 263
h432v-179h-432q-93 0 -93 -84v-70q0 -84 93 -84h150q282 0 282 -263v-70q0 -263 -282 -263h-433z" />
    <glyph glyph-name="agrave" unicode="&#xe0;" horiz-adv-x="880" 
d="M880 -8h-192l-70 209h-356l-70 -209h-192l328 1013h224zM320 380h240l-120 397zM380 1100l-140 300h210l90 -300h-160z" />
    <glyph glyph-name="aacute" unicode="&#xe1;" horiz-adv-x="880" 
d="M880 -8h-192l-70 209h-356l-70 -209h-192l328 1013h224zM320 380h240l-120 397zM340 1100l90 300h210l-140 -300h-160z" />
    <glyph glyph-name="acircumflex" unicode="&#xe2;" horiz-adv-x="880" 
d="M880 -8h-192l-70 209h-356l-70 -209h-192l328 1013h224zM320 380h240l-120 397zM320 1400h240l180 -300h-170l-130 200l-130 -200h-170z" />
    <glyph glyph-name="atilde" unicode="&#xe3;" horiz-adv-x="880" 
d="M880 -8h-192l-70 209h-356l-70 -209h-192l328 1013h224zM320 380h240l-120 397zM70 1100q0 250 190 250q100 0 180 -50t170 -50q70 0 70 100h130q0 -250 -190 -250q-100 0 -180 50t-170 50q-70 0 -70 -100h-130z" />
    <glyph glyph-name="adieresis" unicode="&#xe4;" horiz-adv-x="880" 
d="M880 -8h-192l-70 209h-356l-70 -209h-192l328 1013h224zM320 380h240l-120 397zM140 1100v200h200v-200h-200zM540 1100v200h200v-200h-200z" />
    <glyph glyph-name="aring" unicode="&#xe5;" horiz-adv-x="880" 
d="M880 -8h-192l-70 209h-356l-70 -209h-192l328 1013h224zM320 380h240l-120 397zM650 1300q0 -87 -61.5 -148.5t-148.5 -61.5t-148.5 61.5t-61.5 148.5t61.5 148.5t148.5 61.5t148.5 -61.5t61.5 -148.5zM440 1390q-37 0 -63.5 -26.5t-26.5 -63.5t26.5 -63.5t63.5 -26.5
t63.5 26.5t26.5 63.5t-26.5 63.5t-63.5 26.5z" />
    <glyph glyph-name="ae" unicode="&#xe6;" horiz-adv-x="1172" 
d="M1097 588v-179h-375v-238h375v-179h-565v209h-270l-70 -209h-192l328 1013h769v-179h-375v-238h375zM532 826h-77l-135 -446h212v446z" />
    <glyph glyph-name="ccedilla" unicode="&#xe7;" horiz-adv-x="790" 
d="M265 255q0 -84 93 -84h357v-179h-357q-283 0 -283 263v487q0 263 283 263h357v-179h-357q-93 0 -93 -84v-487zM345 -100q17 1 32 1q268 0 268 -131q0 -200 -220 -200q-100 0 -180 30v130q80 -30 180 -30q90 0 90 70t-170 70v60z" />
    <glyph glyph-name="egrave" unicode="&#xe8;" horiz-adv-x="790" 
d="M715 588v-179h-450v-238h450v-179h-640v1013h640v-179h-450v-238h450zM335 1100l-140 300h210l90 -300h-160z" />
    <glyph glyph-name="eacute" unicode="&#xe9;" horiz-adv-x="790" 
d="M715 588v-179h-450v-238h450v-179h-640v1013h640v-179h-450v-238h450zM295 1100l90 300h210l-140 -300h-160z" />
    <glyph glyph-name="ecircumflex" unicode="&#xea;" horiz-adv-x="790" 
d="M715 588v-179h-450v-238h450v-179h-640v1013h640v-179h-450v-238h450zM275 1400h240l180 -300h-170l-130 200l-130 -200h-170z" />
    <glyph glyph-name="edieresis" unicode="&#xeb;" horiz-adv-x="790" 
d="M715 588v-179h-450v-238h450v-179h-640v1013h640v-179h-450v-238h450zM95 1100v200h200v-200h-200zM495 1100v200h200v-200h-200z" />
    <glyph glyph-name="igrave" unicode="&#xec;" horiz-adv-x="340" 
d="M265 1005v-1013h-190v1013h190zM110 1100l-140 300h210l90 -300h-160z" />
    <glyph glyph-name="iacute" unicode="&#xed;" horiz-adv-x="340" 
d="M265 1005v-1013h-190v1013h190zM70 1100l90 300h210l-140 -300h-160z" />
    <glyph glyph-name="icircumflex" unicode="&#xee;" horiz-adv-x="340" 
d="M265 1005v-1013h-190v1013h190zM50 1400h240l180 -300h-170l-130 200l-130 -200h-170z" />
    <glyph glyph-name="idieresis" unicode="&#xef;" horiz-adv-x="340" 
d="M265 1005v-1013h-190v1013h190zM-130 1100v200h200v-200h-200zM270 1100v200h200v-200h-200z" />
    <glyph glyph-name="eth" unicode="&#xf0;" horiz-adv-x="865" 
d="M545 1005q245 0 245 -228v-556q0 -229 -245 -229h-470v438h-150v144h150v431h470zM600 777q0 49 -55 49h-280v-252h150v-144h-150v-259h280q55 0 55 50v556z" />
    <glyph glyph-name="ntilde" unicode="&#xf1;" horiz-adv-x="940" 
d="M256 1005l419 -647v647h190v-1013h-181l-419 647v-647h-190v1013h181zM100 1100q0 250 190 250q100 0 180 -50t170 -50q70 0 70 100h130q0 -250 -190 -250q-100 0 -180 50t-170 50q-70 0 -70 -100h-130z" />
    <glyph glyph-name="ograve" unicode="&#xf2;" horiz-adv-x="903" 
d="M828 255q0 -263 -283 -263h-187q-283 0 -283 263v487q0 263 283 263h187q283 0 283 -263v-487zM265 255q0 -84 93 -84h187q93 0 93 84v487q0 84 -93 84h-187q-93 0 -93 -84v-487zM391 1100l-140 300h210l90 -300h-160z" />
    <glyph glyph-name="oacute" unicode="&#xf3;" horiz-adv-x="903" 
d="M828 255q0 -263 -283 -263h-187q-283 0 -283 263v487q0 263 283 263h187q283 0 283 -263v-487zM265 255q0 -84 93 -84h187q93 0 93 84v487q0 84 -93 84h-187q-93 0 -93 -84v-487zM351 1100l90 300h210l-140 -300h-160z" />
    <glyph glyph-name="ocircumflex" unicode="&#xf4;" horiz-adv-x="903" 
d="M828 255q0 -263 -283 -263h-187q-283 0 -283 263v487q0 263 283 263h187q283 0 283 -263v-487zM265 255q0 -84 93 -84h187q93 0 93 84v487q0 84 -93 84h-187q-93 0 -93 -84v-487zM331 1400h240l180 -300h-170l-130 200l-130 -200h-170z" />
    <glyph glyph-name="otilde" unicode="&#xf5;" horiz-adv-x="903" 
d="M828 255q0 -263 -283 -263h-187q-283 0 -283 263v487q0 263 283 263h187q283 0 283 -263v-487zM265 255q0 -84 93 -84h187q93 0 93 84v487q0 84 -93 84h-187q-93 0 -93 -84v-487zM81 1100q0 250 190 250q100 0 180 -50t170 -50q70 0 70 100h130q0 -250 -190 -250
q-100 0 -180 50t-170 50q-70 0 -70 -100h-130z" />
    <glyph glyph-name="odieresis" unicode="&#xf6;" horiz-adv-x="903" 
d="M828 255q0 -263 -283 -263h-187q-283 0 -283 263v487q0 263 283 263h187q283 0 283 -263v-487zM265 255q0 -84 93 -84h187q93 0 93 84v487q0 84 -93 84h-187q-93 0 -93 -84v-487zM151 1100v200h200v-200h-200zM551 1100v200h200v-200h-200z" />
    <glyph glyph-name="divide" unicode="&#xf7;" horiz-adv-x="1000" 
d="M900 800v-200h-800v200h800zM400 200v200h200v-200h-200zM400 1000v200h200v-200h-200z" />
    <glyph glyph-name="oslash" unicode="&#xf8;" horiz-adv-x="903" 
d="M828 255q0 -263 -283 -263h-153l-38 -139h-154l41 153q-166 36 -166 249v487q0 263 283 263h153l37 139h154l-41 -153q167 -37 167 -249v-487zM265 255q0 -61 25 -70l173 641h-105q-93 0 -93 -84v-487zM638 742q0 61 -25 70l-173 -641h105q93 0 93 84v487z" />
    <glyph glyph-name="ugrave" unicode="&#xf9;" horiz-adv-x="903" 
d="M828 1005v-750q0 -263 -283 -263h-187q-283 0 -283 263v750h190v-750q0 -84 93 -84h187q93 0 93 84v750h190zM391 1100l-140 300h210l90 -300h-160z" />
    <glyph glyph-name="uacute" unicode="&#xfa;" horiz-adv-x="903" 
d="M828 1005v-750q0 -263 -283 -263h-187q-283 0 -283 263v750h190v-750q0 -84 93 -84h187q93 0 93 84v750h190zM351 1100l90 300h210l-140 -300h-160z" />
    <glyph glyph-name="ucircumflex" unicode="&#xfb;" horiz-adv-x="903" 
d="M828 1005v-750q0 -263 -283 -263h-187q-283 0 -283 263v750h190v-750q0 -84 93 -84h187q93 0 93 84v750h190zM331 1400h240l180 -300h-170l-130 200l-130 -200h-170z" />
    <glyph glyph-name="udieresis" unicode="&#xfc;" horiz-adv-x="903" 
d="M828 1005v-750q0 -263 -283 -263h-187q-283 0 -283 263v750h190v-750q0 -84 93 -84h187q93 0 93 84v750h190zM151 1100v200h200v-200h-200zM551 1100v200h200v-200h-200z" />
    <glyph glyph-name="yacute" unicode="&#xfd;" horiz-adv-x="817" 
d="M211 1005l198 -393l197 393h211l-313 -581v-432h-190v432l-314 581h211zM309 1100l90 300h210l-140 -300h-160z" />
    <glyph glyph-name="thorn" unicode="&#xfe;" horiz-adv-x="865" 
d="M508 214h-243v-222h-190v1013h190v-229h243q282 0 282 -264v-34q0 -264 -282 -264zM265 597v-204h243q92 0 92 85v34q0 85 -92 85h-243z" />
    <glyph glyph-name="ydieresis" unicode="&#xff;" horiz-adv-x="817" 
d="M211 1005l198 -393l197 393h211l-313 -581v-432h-190v432l-314 581h211zM109 1100v200h200v-200h-200zM509 1100v200h200v-200h-200z" />
    <glyph glyph-name="dotlessi" unicode="&#x131;" horiz-adv-x="340" 
d="M265 1005v-1013h-190v1013h190z" />
    <glyph glyph-name="OE" unicode="&#x152;" horiz-adv-x="1700" 
d="M1600 800v-200h-550v-400h550v-200h-750v91q-62 -91 -210 -91h-190q-350 0 -350 350v700q0 350 350 350h200q138 0 200 -92v92h750v-200h-550v-400h550zM300 350q0 -150 150 -150h190q210 0 210 100v800q0 100 -200 100h-200q-150 0 -150 -150v-700z" />
    <glyph glyph-name="oe" unicode="&#x153;" horiz-adv-x="1315" 
d="M1240 588v-179h-412v-238h412v-179h-602v72q-17 -72 -138 -72h-142q-283 0 -283 263v487q0 263 283 263h150q113 0 130 -72v72h602v-179h-412v-238h412zM265 255q0 -84 93 -84h142q138 0 138 80v496q0 79 -130 79h-150q-93 0 -93 -84v-487z" />
    <glyph glyph-name="Scaron" unicode="&#x160;" 
d="M100 0v200h550q150 0 150 150v100q0 150 -150 150h-200q-350 0 -350 350v100q0 350 350 350h550v-200h-550q-150 0 -150 -150v-100q0 -150 150 -150h200q350 0 350 -350v-100q0 -350 -350 -350h-550zM250 1800h170l130 -200l130 200h170l-180 -300h-240z" />
    <glyph glyph-name="scaron" unicode="&#x161;" horiz-adv-x="865" 
d="M75 -8v179h433q92 0 92 84v70q0 84 -92 84h-150q-283 0 -283 263v70q0 263 283 263h432v-179h-432q-93 0 -93 -84v-70q0 -84 93 -84h150q282 0 282 -263v-70q0 -263 -282 -263h-433zM133 1400h170l130 -200l130 200h170l-180 -300h-240z" />
    <glyph glyph-name="Ydieresis" unicode="&#x178;" horiz-adv-x="1000" 
d="M220 1400l280 -600l280 600h220l-400 -800v-600h-200v600l-400 800h220zM200 1500v200h200v-200h-200zM600 1500v200h200v-200h-200z" />
    <glyph glyph-name="Zcaron" unicode="&#x17d;" 
d="M1000 1400v-200l-670 -1000h670v-200h-900v200l670 1000h-670v200h900zM250 1800h170l130 -200l130 200h170l-180 -300h-240z" />
    <glyph glyph-name="zcaron" unicode="&#x17e;" horiz-adv-x="865" 
d="M790 1005v-165l-483 -669h483v-179h-715v165l483 669h-483v179h715zM133 1400h170l130 -200l130 200h170l-180 -300h-240z" />
    <glyph glyph-name="florin" unicode="&#x192;" horiz-adv-x="800" 
d="M450 1000h250v-200h-250v-850q0 -350 -350 -350h-50v200h50q150 0 150 150v850h-150v200h150v50q0 350 350 350h100v-200h-100q-150 0 -150 -150v-50z" />
    <glyph glyph-name="circumflex" unicode="&#x2c6;" horiz-adv-x="800" 
d="M280 1400h240l180 -300h-170l-130 200l-130 -200h-170z" />
    <glyph glyph-name="caron" unicode="&#x2c7;" horiz-adv-x="800" 
d="M100 1400h170l130 -200l130 200h170l-180 -300h-240z" />
    <glyph glyph-name="breve" unicode="&#x2d8;" horiz-adv-x="800" 
d="M100 1400h150q0 -150 150 -150t150 150h150q0 -300 -300 -300t-300 300z" />
    <glyph glyph-name="dotaccent" unicode="&#x2d9;" horiz-adv-x="400" 
d="M100 1100v200h200v-200h-200z" />
    <glyph glyph-name="ring" unicode="&#x2da;" horiz-adv-x="620" 
d="M520 1300q0 -87 -61.5 -148.5t-148.5 -61.5t-148.5 61.5t-61.5 148.5t61.5 148.5t148.5 61.5t148.5 -61.5t61.5 -148.5zM310 1390q-37 0 -63.5 -26.5t-26.5 -63.5t26.5 -63.5t63.5 -26.5t63.5 26.5t26.5 63.5t-26.5 63.5t-63.5 26.5z" />
    <glyph glyph-name="ogonek" unicode="&#x2db;" horiz-adv-x="550" 
d="M300 -100q-70 -60 -70 -110t60 -50q80 0 160 40v-130q-80 -30 -160 -30q-190 0 -190 150q0 80 100 130h100z" />
    <glyph glyph-name="tilde" unicode="&#x2dc;" horiz-adv-x="940" 
d="M100 1100q0 250 190 250q100 0 180 -50t170 -50q70 0 70 100h130q0 -250 -190 -250q-100 0 -180 50t-170 50q-70 0 -70 -100h-130z" />
    <glyph glyph-name="hungarumlaut" unicode="&#x2dd;" horiz-adv-x="800" 
d="M400 1400l-100 -300h-200l100 300h200zM700 1400l-100 -300h-200l100 300h200z" />
    <glyph glyph-name="endash" unicode="&#x2013;" horiz-adv-x="800" 
d="M700 800v-200h-600v200h600z" />
    <glyph glyph-name="emdash" unicode="&#x2014;" horiz-adv-x="1000" 
d="M900 800v-200h-800v200h800z" />
    <glyph glyph-name="quoteleft" unicode="&#x2018;" horiz-adv-x="500" 
d="M300 1400l100 -300h-200l-100 300h200z" />
    <glyph glyph-name="quoteright" unicode="&#x2019;" horiz-adv-x="500" 
d="M400 1400l-100 -300h-200l100 300h200z" />
    <glyph glyph-name="quotesinglbase" unicode="&#x201a;" horiz-adv-x="500" 
d="M400 200l-100 -300h-200l100 300h200z" />
    <glyph glyph-name="quotedblleft" unicode="&#x201c;" horiz-adv-x="800" 
d="M600 1400l100 -300h-200l-100 300h200zM300 1400l100 -300h-200l-100 300h200z" />
    <glyph glyph-name="quotedblright" unicode="&#x201d;" horiz-adv-x="800" 
d="M400 1400l-100 -300h-200l100 300h200zM700 1400l-100 -300h-200l100 300h200z" />
    <glyph glyph-name="quotedblbase" unicode="&#x201e;" horiz-adv-x="800" 
d="M400 200l-100 -300h-200l100 300h200zM700 200l-100 -300h-200l100 300h200z" />
    <glyph glyph-name="dagger" unicode="&#x2020;" 
d="M1000 900h-350v-900h-200v900h-350v200h350v300h200v-300h350v-200z" />
    <glyph glyph-name="daggerdbl" unicode="&#x2021;" 
d="M1000 300h-350v-300h-200v300h-350v200h350v400h-350v200h350v300h200v-300h350v-200h-350v-400h350v-200z" />
    <glyph glyph-name="bullet" unicode="&#x2022;" horiz-adv-x="500" 
d="M400 900v-300h-300v300h300z" />
    <glyph glyph-name="ellipsis" unicode="&#x2026;" horiz-adv-x="1200" 
d="M100 0v200h200v-200h-200zM500 0v200h200v-200h-200zM900 0v200h200v-200h-200z" />
    <glyph glyph-name="perthousand" unicode="&#x2030;" horiz-adv-x="2700" 
d="M400 600q-300 0 -300 300v200q0 300 300 300h100q300 0 300 -300v-200q0 -300 -300 -300h-100zM1800 300q0 -300 -300 -300h-100q-300 0 -300 300v200q0 300 300 300h100q300 0 300 -300v-200zM300 900q0 -100 100 -100h100q100 0 100 100v200q0 100 -100 100h-100
q-100 0 -100 -100v-200zM1300 300q0 -100 100 -100h100q100 0 100 100v200q0 100 -100 100h-100q-100 0 -100 -100v-200zM500 0l690 1400h210l-690 -1400h-210zM2600 300q0 -300 -300 -300h-100q-300 0 -300 300v200q0 300 300 300h100q300 0 300 -300v-200zM2100 300
q0 -100 100 -100h100q100 0 100 100v200q0 100 -100 100h-100q-100 0 -100 -100v-200z" />
    <glyph glyph-name="guilsinglleft" unicode="&#x2039;" horiz-adv-x="700" 
d="M100 650l280 450h220l-280 -450l280 -450h-220z" />
    <glyph glyph-name="guilsinglright" unicode="&#x203a;" horiz-adv-x="700" 
d="M320 200h-220l280 450l-280 450h220l280 -450z" />
    <glyph glyph-name="Euro" unicode="&#x20ac;" 
d="M450 780v-160h380l-56 -170h-324v-100q0 -150 150 -150h400v-200h-400q-350 0 -350 350v100h-150v170h150v160h-150v170h150v100q0 350 350 350h400v-200h-400q-150 0 -150 -150v-100h475l-55 -170h-420z" />
    <glyph glyph-name="trademark" unicode="&#x2122;" horiz-adv-x="1450" 
d="M850 1400l150 -350l150 350h200v-600h-150v350l-150 -350h-100l-150 350v-350h-150v600h200zM550 1400v-150h-150v-450h-150v450h-150v150h450z" />
  </font>
</defs>
</svg>
