<svg xmlns="http://www.w3.org/2000/svg" xmlns:xlink="http://www.w3.org/1999/xlink" width="1669.001" height="5642.742" viewBox="0 0 1669.001 5642.742">
  <defs>
    <filter id="Full_BG" x="0" y="0" width="1669.001" height="5642.742" filterUnits="userSpaceOnUse">
      <feOffset dy="34" input="SourceAlpha"/>
      <feGaussianBlur stdDeviation="49.5" result="blur"/>
      <feFlood flood-opacity="0.161"/>
      <feComposite operator="in" in2="blur"/>
      <feComposite in="SourceGraphic"/>
    </filter>
  </defs>
  <g transform="matrix(1, 0, 0, 1, 0, 0)" filter="url(#Full_BG)">
    <path id="Full_BG-2" data-name="Full BG" d="M1372,5973.74H0V2687.951c22.661-42.788,44.215-77.383,61.535-105.18l.005-.009c10.354-16.618,19.3-30.971,25.417-42.293,9.142-15.428,17.774-30.889,25.657-45.953,7.784-14.877,15.05-29.774,21.6-44.277,6.466-14.326,12.413-28.67,17.675-42.634,5.2-13.793,9.869-27.6,13.889-41.025,3.969-13.26,7.414-26.534,10.24-39.451,2.787-12.74,5.051-25.494,6.728-37.909,1.653-12.243,2.781-24.49,3.352-36.4.563-11.742.6-23.494.114-34.928-.481-11.269-1.486-22.535-2.987-33.488-1.479-10.792-3.482-21.585-5.952-32.082-2.435-10.337-5.389-20.669-8.781-30.708-3.341-9.887-7.2-19.769-11.471-29.369-4.2-9.451-8.923-18.895-14.026-28.066-5.021-9.025-10.554-18.04-16.443-26.794-5.792-8.608-12.091-17.207-18.723-25.556-6.516-8.2-13.537-16.4-20.868-24.352a276.436,276.436,0,0,1-23.709-30.008c-7.467-10.8-15.018-23.035-22.441-36.354-7.035-12.623-14.136-26.545-21.105-41.38C13.131,1865.75,6.5,1850.58,0,1834.648V628H1372V2334.584c-33.59,99.357-68.392,170.738-103.441,212.162-7.4,8.741-14.473,17.736-21.037,26.734-6.694,9.18-13.044,18.62-18.874,28.056-5.937,9.612-11.515,19.51-16.577,29.417-5.145,10.071-9.9,20.438-14.139,30.811-4.3,10.534-8.195,21.382-11.565,32.243-3.423,11.036-6.4,22.378-8.851,33.712-2.489,11.514-4.509,23.365-6,35.221-1.513,12.021-2.526,24.39-3.012,36.764-.491,12.53-.453,25.43.115,38.346.575,13.053,1.711,26.5,3.379,39.963,1.691,13.625,3.973,27.628,6.783,41.618,2.846,14.17,6.319,28.741,10.324,43.311,4.051,14.745,8.762,29.9,14,45.04,5.305,15.331,11.3,31.079,17.817,46.8,6.6,15.912,13.921,32.266,21.773,48.609,7.94,16.525,16.642,33.5,25.864,50.45,6.179,12.446,15.191,28.2,25.625,46.433l.153.268c10.719,18.74,22.868,39.98,36.075,64.692,15.415,28.843,29.019,56.363,41.588,84.13V5973.738h0Z" transform="translate(148.5 -513.5)" fill="#f9f9f9"/>
  </g>
</svg>
