<svg id="_Group_" data-name="&lt;Group&gt;" xmlns="http://www.w3.org/2000/svg" width="63.037" height="63.037" viewBox="0 0 63.037 63.037">
  <g id="_Group_2" data-name="&lt;Group&gt;">
    <path id="_Compound_Path_" data-name="&lt;Compound Path&gt;" d="M31.519,62.957A31.519,31.519,0,1,1,63.037,31.439,31.519,31.519,0,0,1,31.519,62.957Zm0-59.4A27.916,27.916,0,1,0,59.435,31.475,27.916,27.916,0,0,0,31.519,3.558Z" transform="translate(0 0.08)" fill="#efbdae"/>
  </g>
  <g id="_Group_3" data-name="&lt;Group&gt;" transform="translate(11.955 24.801)">
    <path id="_Path_" data-name="&lt;Path&gt;" d="M37.356,58.6H28.351a1.8,1.8,0,0,1,0-3.6h9.005a1.8,1.8,0,1,1,0,3.6Z" transform="translate(-26.55 -55)" fill="#efbdae"/>
  </g>
  <circle id="_Path_2" data-name="&lt;Path&gt;" cx="4.84" cy="4.84" r="4.84" transform="translate(39.925 21.613)" fill="#efbdae"/>
  <g id="_Group_4" data-name="&lt;Group&gt;" transform="translate(13.284 37.82)">
    <path id="_Path_3" data-name="&lt;Path&gt;" d="M47.737,85.455a4.989,4.989,0,0,0-3.152-1.445,7.265,7.265,0,0,0-3.8.7,27.77,27.77,0,0,0-4.444,2.6,5.994,5.994,0,0,1-3.917,1.324,1.639,1.639,0,0,1-1.315-1.95c.324-1.211,1.846-2,1.941-2.121s.05-.2-.149-.176a5.317,5.317,0,0,0-2.359,1.189,3.7,3.7,0,0,0-.923,3.512,4.687,4.687,0,0,0,2.81,2.918,13.535,13.535,0,0,0,4.435.982,17.146,17.146,0,0,0,6.43-.986,13.949,13.949,0,0,0,4.44-2.9" transform="translate(-29.503 -83.949)" fill="#efbdae"/>
    <path id="_Path_4" data-name="&lt;Path&gt;" d="M70,89.069A10.509,10.509,0,0,0,74.422,92a16.839,16.839,0,0,0,6.353.964,13.463,13.463,0,0,0,4.422-.986A4.679,4.679,0,0,0,88,89.055a3.7,3.7,0,0,0-.928-3.512,5.313,5.313,0,0,0-2.359-1.189c-.194-.027-.243.054-.149.176s1.621.9,1.945,2.121a1.615,1.615,0,0,1-1.292,1.927,5.886,5.886,0,0,1-3.913-1.324,27.679,27.679,0,0,0-4.431-2.6,7.081,7.081,0,0,0-3.737-.7A4.8,4.8,0,0,0,70,85.422" transform="translate(-51.765 -83.916)" fill="#efbdae"/>
  </g>
</svg>
