<svg xmlns="http://www.w3.org/2000/svg" width="415.325" height="334.317" viewBox="0 0 415.325 334.317">
  <g id="Floating_fruits" data-name="Floating fruits" transform="translate(-396.315 -477.251)">
    <g id="Carrot" transform="translate(402.387 690.907) rotate(3)" style="mix-blend-mode: multiply;isolation: isolate">
      <g id="OBJECTS" transform="translate(0 0)" style="mix-blend-mode: multiply;isolation: isolate">
        <path id="Контур_657" data-name="Контур 657" d="M91.3,7.654a2.476,2.476,0,0,0-2.446-.682,9.422,9.422,0,0,0,.672-2.857,1.6,1.6,0,0,0,.842-1.473C90.412.958,87.555.427,86.312.236c-.9-.13-2.636-.18-3.117.722a.561.561,0,0,0-.862.441,28.547,28.547,0,0,1-2.867,8.64,15.336,15.336,0,0,1-2.8,4.551c.762-1.6,1.514-3.137,2.245-4.741a14.915,14.915,0,0,0,1.163-5.573,2.285,2.285,0,0,0,.06-3.318c-1.493-1.554-3.659-1-5.222.13-.481.361-1.614,1-1.423,1.774a.611.611,0,0,0,.531.471C73.6,6.621,73.262,9.949,72.63,13.2a17.661,17.661,0,0,1-3.739,8.089,2.936,2.936,0,0,0-.591.231c-3.7-.491-7.608-.762-11.2.431-4.2,1.393-6.606,4.962-9.192,8.3-2.937,3.8-6.014,7.548-8.7,11.557a21.26,21.26,0,0,0-2.777,5.754c-.642,2.2-1.052,4.3-2.636,6.014-1.333,1.463-2.686,2.716-3.408,4.611s-.952,4.12-2.2,5.924-2.807,3.087-3.849,4.922c-1.183,2.095-1.9,4.29-3.5,6.1-1.413,1.644-3.007,3.127-4.28,4.881a28.527,28.527,0,0,0-3.228,5.563A38.34,38.34,0,0,0,11.4,91.591a17.862,17.862,0,0,1-2.9,6.3,87.7,87.7,0,0,0-6.926,12.319C.912,111.528-.762,113.773.4,115.227c1,1.243,3.328.742,4.611.311,3.919-1.323,6.235-4.891,8.941-7.758a21.29,21.29,0,0,1,5.4-4.009,21.541,21.541,0,0,0,5.142-3.528c2.787-2.827,4.16-6.676,6.816-9.6A15.264,15.264,0,0,1,32.947,89.1h.06c2.566-2.075,5.683-3.418,8.49-5.122a22.2,22.2,0,0,0,7.437-7.407c1.844-2.907,3.4-6.164,6.014-8.48,1.674-1.483,3.639-2,5.673-2.777A15.035,15.035,0,0,0,65.152,62.6a29.81,29.81,0,0,0,6.575-9.111c3.819-7.357,8.43-16.178,5.653-24.658a12.388,12.388,0,0,0-1.093-2.476,16.6,16.6,0,0,0,3.137-1.774,30.872,30.872,0,0,0,4.771-4.23A36.085,36.085,0,0,0,88.056,15.5a27.907,27.907,0,0,0,1.7-2.937c.21-.421.441-.852.621-1.3a2.075,2.075,0,0,0,.6-.361A2.255,2.255,0,0,0,91.3,7.654Zm-7.4-5.874c.2-1.514,5.884-.14,5.3,1.183-.411,1-2.777.371-3.458.2a3.538,3.538,0,0,1-2-1.123.491.491,0,0,0,.16-.261Zm-8.32.07A5.092,5.092,0,0,1,77,1.118c1-.3,2.736.08,2.807,1.443.06,1.143-1.353,1.473-2.215,1.283A5.764,5.764,0,0,1,75.116,2.2ZM71.578,50.966a38.39,38.39,0,0,1-5.864,9.322,15.236,15.236,0,0,1-4.18,3.248c-1.764.9-3.769,1.223-5.493,2.215C50.308,69.038,48.874,76.285,44.1,80.515a21.631,21.631,0,0,1-3.177,2.3,10.665,10.665,0,0,1-3.959-1,12.339,12.339,0,0,1-3.308-3.077A.281.281,0,0,0,33.2,79c.852,2.376,4.009,4.34,6.746,4.41-.892.511-1.814,1-2.716,1.494A4.661,4.661,0,0,1,34.31,82.72a.241.241,0,0,0-.441.19,3.558,3.558,0,0,0,2.626,2.4q-1.068.586-2.1,1.233a18.814,18.814,0,0,0-2.616,2,4.29,4.29,0,0,1-2.125-1,.092.092,0,1,0-.13.13,5.493,5.493,0,0,0,1.824,1.3,26.843,26.843,0,0,0-4.15,5.383,30.762,30.762,0,0,1-3.137,4.531,13.262,13.262,0,0,1-2.406,2.075.17.17,0,0,0-.221-.14,2.2,2.2,0,0,1-2.185-.391.226.226,0,0,0-.331.251,1.674,1.674,0,0,0,1.754.912c-.541.331-1.083.642-1.644.952a24.147,24.147,0,0,0-4.8,3.218,56.826,56.826,0,0,0-4.009,4.41,15.4,15.4,0,0,1-4.591,3.819,7.016,7.016,0,0,1-3.007.782c-.672,0-1.443-.05-1.433-.942A4.45,4.45,0,0,1,2,112.079c2-3.919,3.809-8.019,6.275-11.687a31.7,31.7,0,0,0,3.308-5.212A55.279,55.279,0,0,0,13.3,89.356a27.736,27.736,0,0,1,2.556-5.914,3.218,3.218,0,0,0,2.636,2.2.2.2,0,0,0,.1-.381,5.543,5.543,0,0,1-2.446-2.315Q16.719,82,17.36,81.1a6.014,6.014,0,0,0,5.774,3.228c.291,0,.281-.521,0-.571a9.6,9.6,0,0,1-3.458-1.163,7.327,7.327,0,0,1-2-1.955c.551-.732,1.133-1.433,1.744-2.115A29.068,29.068,0,0,0,23.364,73.8c1-1.754,1.624-3.739,2.867-5.373.722-1,1.564-1.814,2.315-2.736.321,1.183,1.694,2.2,2.857,1.684a.251.251,0,0,0-.06-.461,3.639,3.639,0,0,1-1.544-.5,2.336,2.336,0,0,1-.862-1.223,10.637,10.637,0,0,0,.762-1.083,5.5,5.5,0,0,0,1.914,2.346,4.651,4.651,0,0,0,3.258,1.133.281.281,0,0,0,.07-.511,23.168,23.168,0,0,1-2.947-1.183,9.2,9.2,0,0,1-2.075-2.185h0c.872-1.724,1-3.669,1.794-5.433s2.426-3.007,3.629-4.561A13.412,13.412,0,0,0,37.437,48.7c1.143-4.27,3.759-7.608,6.4-11.026,2.837-3.709,5.5-7.608,8.51-11.176,2.787-3.328,6.505-4.491,10.755-4.551,1.473,0,2.957.07,4.43.17-1.1,1.413-.521,3.929.862,5.1a4.1,4.1,0,0,0,3.518.852,5.012,5.012,0,0,0,2.386-1.233,5.363,5.363,0,0,0,.561-.08H75.1c4.2,8.069.08,16.81-3.548,24.2ZM89.109,11.984c-.511.872-1,1.744-1.6,2.576a37.777,37.777,0,0,1-3.779,4.8,32.216,32.216,0,0,1-4.43,4.009,16.228,16.228,0,0,1-2.636,1.6,10.564,10.564,0,0,1-1.734.6.451.451,0,0,0-.672-.3,4.719,4.719,0,0,0-.471.381l-.09.08a4.781,4.781,0,0,1-1.5,1.1,3.137,3.137,0,0,1-2.656-.12c-1.764-1-2.215-3.679-.231-4.691a.371.371,0,0,0,.2-.431c2.366-1.714,3.428-4.922,4.009-7.638.762-3.388,1.083-6.886,1.514-10.344,1.233,1,2.726,1.834,4.33,1.133a18.825,18.825,0,0,1-1.524,5.232c-1,2-2,4.06-3.007,6.094a.521.521,0,0,0,.7.7c2.456-1.253,3.759-3.739,4.871-6.134a34.351,34.351,0,0,0,2.8-7.678,5.864,5.864,0,0,0,3.448,1.453,6.465,6.465,0,0,0,2.325,0,15.917,15.917,0,0,1-2.927,5.733,66.316,66.316,0,0,1-5.5,5.613c-.351.361.11,1,.551.712a24.838,24.838,0,0,0,5.834-5.954q.321-.431.621-.882a2.115,2.115,0,0,0,.281.7A2.265,2.265,0,0,0,89.5,11.4,2.194,2.194,0,0,0,89.109,11.984Zm1.554-2.145a.15.15,0,0,0-.18,0,3.871,3.871,0,0,0-.461.561,1.323,1.323,0,0,1-1.564-.6,1.554,1.554,0,0,1,0-1.664h.1A2.205,2.205,0,0,1,90.3,8.2a1.183,1.183,0,0,1,.361,1.624Z" style="mix-blend-mode: multiply;isolation: isolate"/>
        <path id="Контур_658" data-name="Контур 658" d="M7.32.043c-1.213.8-2.225,1.9-3.438,2.736A31.374,31.374,0,0,1,.093,4.995a.153.153,0,1,0,.12.281,18.664,18.664,0,0,0,4.17-2A12.309,12.309,0,0,0,7.731.454C7.861.2,7.53-.117,7.32.043Z" transform="translate(72.868 17.885)" style="mix-blend-mode: multiply;isolation: isolate"/>
        <path id="Контур_659" data-name="Контур 659" d="M7.841,3.834A8.53,8.53,0,0,0,.223.015c-.231,0-.331.391-.06.441A13.171,13.171,0,0,1,4.082,1.648,10.324,10.324,0,0,1,7.239,4.335C7.49,4.7,8.091,4.224,7.841,3.834Z" transform="translate(43.88 39.624)" style="mix-blend-mode: multiply;isolation: isolate"/>
        <path id="Контур_660" data-name="Контур 660" d="M2.207,1.264A5.9,5.9,0,0,0,1.325.512C1.034.3.713-.019.322,0c-.18,0-.391.2-.3.4.16.381.521.521.862.712A6.1,6.1,0,0,0,2,1.625a.21.21,0,0,0,.21-.361Z" transform="translate(46.597 36.711)" style="mix-blend-mode: multiply;isolation: isolate"/>
        <path id="Контур_661" data-name="Контур 661" d="M7.489,6.114A15.857,15.857,0,0,0,4.1,2.406C3.1,1.574,1.645.1.322,0A.331.331,0,0,0,.042.491,4.5,4.5,0,0,0,1.5,1.584,22.051,22.051,0,0,1,3.64,3.127c1.243,1,2.265,2.215,3.408,3.328a.281.281,0,0,0,.441-.341Z" transform="translate(56.892 52.87)" style="mix-blend-mode: multiply;isolation: isolate"/>
        <path id="Контур_662" data-name="Контур 662" d="M3.691,1.644c-.611-.351-1.223-.672-1.844-1A3.358,3.358,0,0,0,.253,0a.261.261,0,0,0-.18.441,3.478,3.478,0,0,0,1.524.8c.642.261,1.293.521,1.945.772C3.761,2.095,3.892,1.754,3.691,1.644Z" transform="translate(58.805 59.456)" style="mix-blend-mode: multiply;isolation: isolate"/>
        <path id="Контур_663" data-name="Контур 663" d="M8.2,4.816A37.308,37.308,0,0,1,2.764.807C1.992.075.559-.566.017.807c-.1.241.261.421.421.251.8-.812,1.674.331,2.215.842A16.229,16.229,0,0,0,4.277,3.253,10.224,10.224,0,0,0,8.086,5.107a.155.155,0,1,0,.11-.291Z" transform="translate(40.357 61.355)" style="mix-blend-mode: multiply;isolation: isolate"/>
        <path id="Контур_664" data-name="Контур 664" d="M6.156,1.568c-.08,0-.12.1,0,.13l.15.652a.882.882,0,0,1-.611.251,2.786,2.786,0,0,1-.732,0A5.4,5.4,0,0,1,3.1,2.149,7.588,7.588,0,0,1,.483.095C.252-.166-.109.165.031.445A5.453,5.453,0,0,0,4.923,3.362c.561,0,1.564-.07,1.784-.732a.842.842,0,0,0-.551-1.063Z" transform="translate(17.529 95.827)" style="mix-blend-mode: multiply;isolation: isolate"/>
        <path id="Контур_665" data-name="Контур 665" d="M4.237,1.273C2.834.892,1.49.451.117,0c-.08,0-.16.09-.09.15a7.3,7.3,0,0,0,4.15,1.584.232.232,0,1,0,.06-.461Z" transform="translate(8.452 100.923)" style="mix-blend-mode: multiply;isolation: isolate"/>
        <path id="Контур_666" data-name="Контур 666" d="M10.977.007c-2-.11-4.31,1.163-5.924,2.305A39.2,39.2,0,0,0,.041,6.943a.231.231,0,0,0,.321.321,35.313,35.313,0,0,1,4.992-4.18,15.717,15.717,0,0,1,2.6-1.453A24.908,24.908,0,0,1,11.107.748a.391.391,0,0,0-.13-.742Z" transform="translate(50.778 23.935)" style="mix-blend-mode: multiply;isolation: isolate"/>
        <path id="Контур_667" data-name="Контур 667" d="M5.768.09c-.662,2.6-1.493,5.172-2.366,7.7-.451,1.293-.932,2.576-1.493,3.819S.586,14.073.025,15.356c-.12.271.221.621.451.351A22.914,22.914,0,0,0,3.9,8.52C4.826,5.784,5.378,2.967,6.089.17A.17.17,0,0,0,5.768.09Z" transform="translate(67.673 39.629)" style="mix-blend-mode: multiply;isolation: isolate"/>
      </g>
    </g>
    <g id="Tomato" transform="translate(704.484 494.234)" opacity="0.26" style="mix-blend-mode: multiply;isolation: isolate">
      <g id="OBJECTS-2" data-name="OBJECTS" transform="translate(0 0)" style="mix-blend-mode: multiply;isolation: isolate">
        <path id="Контур_460" data-name="Контур 460" d="M50.675,10.879c-.713-.825-2.232-.788-3.235-.807a16.683,16.683,0,0,0-4.351.488,27.393,27.393,0,0,0-4.1,1.472,12.511,12.511,0,0,0-2.813,1.425,18.391,18.391,0,0,1,8.572-5.364.394.394,0,0,0,0-.75c-5.965-2.035-11.329,2-15.652,5.627a12.923,12.923,0,0,0-1.688-3.31c.431-.563.216-.938-.506-1.182-.938-.263-2.176-.338-2.813.544a1.219,1.219,0,0,0,.263,1.8,7.8,7.8,0,0,1,.685,2.251c-3.273,1.294-6.443-.6-9.116-2.373-.216-.141-.525.15-.366.366,1.332,1.876,2.813,3.751,4.961,4.586a3.751,3.751,0,0,0-1.35.628.15.15,0,0,0-.056.141,27.675,27.675,0,0,1-3.386-2.241c-.263-.206-.628.131-.544.422a10.316,10.316,0,0,0,3.751,5.43c-2.11-.516-4.623.938-6.358,1.979a6,6,0,0,0-2.326,2.279A11.77,11.77,0,0,0,8.67,27.713c0,.225.272.394.385.159a11.492,11.492,0,0,1,4.023-4.989A24.909,24.909,0,0,1,16.032,21.4a20.276,20.276,0,0,1,3.386-.938A.141.141,0,0,0,19.5,20.4a10.128,10.128,0,0,0,9.481.938c.694-.291,1.3-.853,1.988-1.107.835-.319,1.876.319,2.588.7a13.036,13.036,0,0,1,3.517,2.813A22.086,22.086,0,0,1,41.5,32.308a.347.347,0,0,0,.675-.094,19.394,19.394,0,0,0-5.73-13.448,18.857,18.857,0,0,0-1.425-1.257c-.46-.366-.544-.375-.619-1.013a1.546,1.546,0,0,1,.45-1.341q.3-.431.638-.844a.113.113,0,0,0,.169.047,25.7,25.7,0,0,1,7.081-3.039,16.055,16.055,0,0,1,3.948-.581,13.945,13.945,0,0,1,1.951.094c.628.084,1.163.338,1.772.469a.272.272,0,0,0,.263-.422ZM25.626,8.919h.3a5.261,5.261,0,0,1,.835.169q.45,0,.206.206c0,.3-.7.591-.938.685a2.316,2.316,0,0,1-1.266.141Q24.566,8.863,25.626,8.919Zm-.61,1.941a.281.281,0,0,0,0-.113,2.945,2.945,0,0,0,2.11-.731,26.258,26.258,0,0,1,1.547,3.536.347.347,0,0,0,.056.169,16.2,16.2,0,0,1,.76,4.239,10.316,10.316,0,0,1-3.629.563.169.169,0,0,0,0-.056,34.238,34.238,0,0,0-.2-4.811,8.844,8.844,0,0,0-.638-2.795Zm-2.738,5.2a.249.249,0,0,0,0-.5c-2.363-.159-4.014-1.782-5.392-3.554,2.5,1.547,5.327,2.813,8.243,1.716.188,1.594.131,3.254.4,4.783A15,15,0,0,1,19.3,16.562a7.559,7.559,0,0,1,2.992-.5Zm12.3-1.81c-.6.8-1.557,1.876-.938,2.907a4.971,4.971,0,0,0,1.238,1.154,17.922,17.922,0,0,1,1.613,1.519,18.6,18.6,0,0,1,4.736,9.66,21.738,21.738,0,0,0-2.954-5.233,15.07,15.07,0,0,0-2.945-2.907,9.378,9.378,0,0,0-3.7-1.876,2.026,2.026,0,0,0-1.491.516,9.5,9.5,0,0,1-2.26,1.06,9.753,9.753,0,0,1-5.242.141,9.547,9.547,0,0,1-6.358-5.627c3.873,2.757,8.74,4.792,13.373,2.926a.309.309,0,0,0,.4-.169l.131-.056c.234-.113.094-.506-.141-.478a18.615,18.615,0,0,0-.675-3.967c3.854-3.292,8.619-7.071,13.927-6.04A19.394,19.394,0,0,0,37.452,11.2a19.038,19.038,0,0,0-2.87,3.057Z" transform="translate(-0.535 -0.419)" style="mix-blend-mode: multiply;isolation: isolate"/>
        <path id="Контур_461" data-name="Контур 461" d="M65.647,30.413a51.412,51.412,0,0,0-1.941-10.138c-1.032-3.207-2.973-6-4.689-8.853a16.431,16.431,0,0,0-2.748-3.639,25.4,25.4,0,0,0-3.9-2.748A35.806,35.806,0,0,0,43.589.694,18.306,18.306,0,0,0,27.806,3.507c-.3.225-.6.46-.882.7a9.313,9.313,0,0,0-5.317,0,21.57,21.57,0,0,0-5.571,2.279,21.851,21.851,0,0,0-4.623,3.235c-.938.938-2.091,2.41-1.876,3.826A14.011,14.011,0,0,0,1.6,21.176C-.882,26.915-.122,33.611,1.435,39.491A34.249,34.249,0,0,0,9.387,54.5a26.09,26.09,0,0,0,15.933,7.587,38.8,38.8,0,0,0,19.141-3.095c5.739-2.354,11.807-5.533,15.7-10.419a25.837,25.837,0,0,0,4.211-8.14,23.67,23.67,0,0,0,1.275-10.016Zm-1.294,5.346A30.488,30.488,0,0,1,61.38,44.5c-2.813,5.28-7.7,8.637-12.9,11.254a44.546,44.546,0,0,1-17.875,5.2,27.3,27.3,0,0,1-16.6-4.3A27.759,27.759,0,0,1,4.239,43.974,36.828,36.828,0,0,1,1.35,27.253C1.847,21.72,4.811,16,10.381,14.189a10.653,10.653,0,0,1,3.751-.6c.356,0,.338-.5,0-.544a10.194,10.194,0,0,0-3.751.253,4.633,4.633,0,0,1,.6-1.744,8.159,8.159,0,0,1,1.726-1.876A25.7,25.7,0,0,1,16.9,6.94a20.632,20.632,0,0,1,4.689-1.876,34.484,34.484,0,0,1,4.886-.553,19.976,19.976,0,0,0-1.726,1.763c-.375.431.244,1.069.638.638a17.818,17.818,0,0,1,14.32-5.683A20.444,20.444,0,0,1,48.044,3.91c1.369.741,2.7,1.566,4.014,2.4A19.825,19.825,0,0,1,55.809,9.04a19.986,19.986,0,0,1,2.57,3.657c.835,1.36,1.688,2.71,2.495,4.1a26.381,26.381,0,0,1,2.9,9.05c.572,3.226,1.191,6.6.591,9.9Z" transform="translate(0.005 0.003)" style="mix-blend-mode: multiply;isolation: isolate"/>
        <path id="Контур_462" data-name="Контур 462" d="M27.571,23.079c-1.96.844-3.235,3.123-4.033,5a12.192,12.192,0,0,0-.938,3.217,6.424,6.424,0,0,0,.188,3.339.209.209,0,0,0,.375-.047,19.891,19.891,0,0,0,.375-2.982,15.681,15.681,0,0,1,.807-2.973,13.8,13.8,0,0,1,3.432-5.317C27.928,23.21,27.731,23,27.571,23.079Z" transform="translate(-1.392 -1.431)" style="mix-blend-mode: multiply;isolation: isolate"/>
        <path id="Контур_463" data-name="Контур 463" d="M39.105,59.408a24.1,24.1,0,0,1-23.3-4.426,58.258,58.258,0,0,1-4.989-5.355c-.1-.113-.338,0-.272.159A16.975,16.975,0,0,0,15.313,55.7a24.749,24.749,0,0,0,6.565,4.07,25.1,25.1,0,0,0,17.49.581C39.93,60.159,39.668,59.2,39.105,59.408Z" transform="translate(-0.65 -3.08)" style="mix-blend-mode: multiply;isolation: isolate"/>
        <path id="Контур_464" data-name="Контур 464" d="M47.171,4.134a17.668,17.668,0,0,0-13.8,1.707.113.113,0,0,0,.113.2A19.75,19.75,0,0,1,46.993,4.79a.34.34,0,0,0,.178-.656Z" transform="translate(-2.067 -0.211)" style="mix-blend-mode: multiply;isolation: isolate"/>
      </g>
    </g>
    <g id="Onion" transform="translate(697.363 579.433)" opacity="0.46" style="mix-blend-mode: multiply;isolation: isolate">
      <g id="OBJECTS-3" data-name="OBJECTS" transform="translate(0 0)" style="mix-blend-mode: multiply;isolation: isolate">
        <path id="Контур_473" data-name="Контур 473" d="M79.572,20.636A26.874,26.874,0,0,0,74.438,9.641a25.174,25.174,0,0,0-10-6.911C56.782-.433,47.834-1.083,40.079,1.983c-7.29,2.849-13.562,8.85-15.49,16.573l-1.083.314c-2.979.932-5.784,2.3-8.731,3.336s-6.651,1.766-9.121-.758l.173-.152c.5-.4-.206-1.083-.7-.7Q2.741,22.456.5,24.492a.574.574,0,0,0,0,.812,6.337,6.337,0,0,1,1.527,7.582C1.083,35.183.065,37.22,0,39.754a16.1,16.1,0,0,0,3.369,9.9,24.914,24.914,0,0,0,8.947,10.713,37,37,0,0,0,16.248,6.5,24.794,24.794,0,0,0,9.944-1.2c3.25-.921,6.5-1.831,9.3-3.77a31.283,31.283,0,0,0,7.355-7.279c7.756,1.527,15.165-2.242,19.314-8.806a37.728,37.728,0,0,0,4.528-12,60.952,60.952,0,0,0,1.148-6.6,18.794,18.794,0,0,0-.585-6.575ZM1.343,38.021c.52-2.611,2.307-4.809,2.556-7.485a7.073,7.073,0,0,0-2.1-5.622q1.69-1.614,3.488-3.1c2.741,3.759,7.962,2.047,11.547.65,5.124-2.015,10.085-3.845,15.609-4.419A43.328,43.328,0,0,1,48.159,19.2c4.744,1.278,9.868,4.019,10.832,9.294,0,.217.076.444.087.661a.563.563,0,0,0,0,.574,10.6,10.6,0,0,1-2.3,6.207,62.825,62.825,0,0,1-4.994,6.088,33.5,33.5,0,0,1-12.316,8.33A65.415,65.415,0,0,1,25.25,54.161a34.933,34.933,0,0,1-8.666.282,22.249,22.249,0,0,1-8.178-1.906C3.542,50,.282,43.4,1.343,38.021ZM53.51,44.629a16.864,16.864,0,0,1-2.047,1.083s-.054-.964-.1-1.2a.26.26,0,0,0-.119-.184,54.918,54.918,0,0,0,4.105-4.6,26.3,26.3,0,0,0,4.224-6.142,9.239,9.239,0,0,0,.466-1.4v2.166a41.813,41.813,0,0,1-.206,4.246q-.173,1.657-.487,3.25a2.556,2.556,0,0,0-.867.823c-.141.195-.238.433-.4.628-.52.628-.585.347-1.181.574a3.791,3.791,0,0,0-1.083.856,4.333,4.333,0,0,1-1.679.888,4.029,4.029,0,0,0,.152-.477.509.509,0,0,0-.78-.52ZM47.325,60.66a26.593,26.593,0,0,1-8.254,3.553,27.08,27.08,0,0,1-9.326,1.581c-5.416-.314-11.06-2.643-15.6-5.535a28.868,28.868,0,0,1-8.611-8.265l.487.4a14.385,14.385,0,0,0,6.629,2.665,41.02,41.02,0,0,0,8.308.661,57.735,57.735,0,0,0,16.14-3.25,38.421,38.421,0,0,0,12.728-6.9c.282-.238.552-.487.823-.737-.108.574-.206,1.322.3,1.614a1.95,1.95,0,0,0,1.625-.206.509.509,0,0,0,.5.65,6.434,6.434,0,0,0,3.737-1.625c.542-.4,1.192-.39,1.69-.845a2.092,2.092,0,0,0,.249-.282c-.227.856-.487,1.7-.78,2.524a29.918,29.918,0,0,1-10.648,14ZM78.554,29.735A54.258,54.258,0,0,1,75.131,41.65a21.014,21.014,0,0,1-7.507,9.261A17.331,17.331,0,0,1,55.958,53.4a29.311,29.311,0,0,0,2.881-5.611A35.952,35.952,0,0,0,61.006,37.75a44.226,44.226,0,0,0,.076-5.524,4.571,4.571,0,0,0-.823-2.979,11.146,11.146,0,0,0-4.4-7.767c-3.91-3.065-9.207-4.04-14.082-4.528a46.09,46.09,0,0,0-16.508,1.462A26.235,26.235,0,0,1,37.912,4.03C44.715.477,52.871.206,60.2,2.286a29.344,29.344,0,0,1,10.659,5.3,21.437,21.437,0,0,1,6.5,9.749,35.485,35.485,0,0,1,1.484,5.763,18.414,18.414,0,0,1-.292,6.64Z" transform="translate(0 0.008)" style="mix-blend-mode: multiply;isolation: isolate"/>
        <path id="Контур_474" data-name="Контур 474" d="M54.772,36.231c-.8-.119-1.451.487-2.166.888a.563.563,0,0,0,.13,1.018v.108a.542.542,0,0,0-.888.238c-.282.942-.682,1.6-1.722,1.148a.206.206,0,0,0-.3.119c-.152.747.7,1.083,1.332.986a2.036,2.036,0,0,0,1.473-1.386,1.148,1.148,0,0,0,1.289-.52,1.083,1.083,0,0,0,0-1.083A2.058,2.058,0,0,0,55,36.664.347.347,0,0,0,54.772,36.231Z" transform="translate(4.144 3.022)" style="mix-blend-mode: multiply;isolation: isolate"/>
        <path id="Контур_475" data-name="Контур 475" d="M50.131,43.522a18.287,18.287,0,0,1-1.744,1.007c-.661.249-2.34.823-2.448-.487a.173.173,0,0,0-.314-.087c-.672.932.552,1.636,1.376,1.614a4.669,4.669,0,0,0,3.488-1.625A.285.285,0,0,0,50.131,43.522Z" transform="translate(3.78 3.628)" style="mix-blend-mode: multiply;isolation: isolate"/>
        <path id="Контур_476" data-name="Контур 476" d="M51.239,33.21A8.579,8.579,0,0,0,44.913,38.1a.325.325,0,0,0,.563.325,12.749,12.749,0,0,1,2.491-2.979,17.722,17.722,0,0,1,3.347-1.95A.152.152,0,0,0,51.239,33.21Z" transform="translate(3.734 2.772)" style="mix-blend-mode: multiply;isolation: isolate"/>
        <path id="Контур_477" data-name="Контур 477" d="M46.8,34.145a15.425,15.425,0,0,0-1.083-1.657.292.292,0,0,0,.39-.292c0-4.225-3.748-8.113-7.832-8.666-2.806-.412-5.838.26-8.666.726-3.174.542-6.369,1.083-9.489,1.809-.141,0-.119.271,0,.26,5.264-.574,10.442-2.08,15.75-2.318a8.9,8.9,0,0,1,9.511,8.135,15.512,15.512,0,0,0-8.384-6.283c-5.08-1.311-9.814,1.711-14.775,2.166a.422.422,0,0,0-.206.78A14.981,14.981,0,0,1,27.169,33.8a9.391,9.391,0,0,0,4.4,3.824,24.156,24.156,0,0,0,6.618,1.083,15.241,15.241,0,0,0,7.138-.78c.5-.206.282-1.018-.227-.812a14.721,14.721,0,0,1-6.922.758c-2.34-.184-4.918-.314-7.063-1.365s-3.076-3.022-4.333-4.8a13.064,13.064,0,0,0-3.25-3.087c4.246-.747,8.438-3.033,12.782-2.166s7.4,4.593,10.215,7.821A.151.151,0,1,0,46.8,34.145Z" transform="translate(1.666 1.956)" style="mix-blend-mode: multiply;isolation: isolate"/>
        <path id="Контур_478" data-name="Контур 478" d="M41.541,40.358a33.742,33.742,0,0,0-6.586.314c-2.166.141-4.6.379-6.64-.639s-3.25-3.315-4.5-5.124a62.153,62.153,0,0,0-4.073-5.546c-.1-.119-.271,0-.206.162a71.749,71.749,0,0,0,4.43,6.759c1.148,1.679,2.275,3.531,4.17,4.452a11.85,11.85,0,0,0,5.9.715l3.921-.26a17.678,17.678,0,0,0,3.575-.347C41.758,40.781,41.8,40.391,41.541,40.358Z" transform="translate(1.625 2.448)" style="mix-blend-mode: multiply;isolation: isolate"/>
        <path id="Контур_479" data-name="Контур 479" d="M42.341,41.766a17.429,17.429,0,0,1-9.326,2.719c-3.5-.13-6.3-1.776-9.088-3.835A8.936,8.936,0,0,1,20.5,36.643c-.477-1.354-.563-2.784-1.365-4.019-1.711-2.589-4.6-4.257-7.128-5.893-.108-.065-.195.1-.1.162a47.4,47.4,0,0,1,4.723,3.856,8.8,8.8,0,0,1,2.957,4.842c.737,3.13,2.795,4.864,5.329,6.651A14.3,14.3,0,0,0,33.892,45.2a18.891,18.891,0,0,0,8.882-2.773.4.4,0,0,0-.433-.661Z" transform="translate(0.988 2.232)" style="mix-blend-mode: multiply;isolation: isolate"/>
        <path id="Контур_480" data-name="Контур 480" d="M38.335,21.377a21.328,21.328,0,0,0-9.868.91C24.686,23.478,21,25.211,17.115,23.37a.141.141,0,0,0-.141.238c2.318,1.657,5.416,1.224,7.929.455,3.423-1.018,6.618-2.242,10.247-2.3,6.629-.1,13.258,4.2,12.923,11.4,0,.433.6.4.65,0C49.5,27.118,43.816,22.287,38.335,21.377Z" transform="translate(1.408 1.77)" style="mix-blend-mode: multiply;isolation: isolate"/>
        <path id="Контур_481" data-name="Контур 481" d="M34.882,46.541c-3.618.238-7.138.921-10.691-.249a12.576,12.576,0,0,1-6.824-5.579c-1.614-2.773-1.581-6.023-2.9-8.882A12.143,12.143,0,0,0,8.8,25.722c-.217-.1-.509.184-.282.368,2.719,2.166,4.939,4.5,5.882,7.983a52.414,52.414,0,0,0,1.289,5.167,13.269,13.269,0,0,0,2.026,3.51c4.2,5.286,11.049,5.752,17.266,4.582a.4.4,0,0,0-.1-.791Z" transform="translate(0.702 2.147)" style="mix-blend-mode: multiply;isolation: isolate"/>
        <path id="Контур_482" data-name="Контур 482" d="M22.2,50.822a35.962,35.962,0,0,1-6.5-3.25,11.623,11.623,0,0,1-4.625-6.846c-.737-2.762-.466-5.719-1.332-8.427a18.989,18.989,0,0,0-3.867-6.044c-.13-.162-.412.054-.292.217,1.8,2.329,3.542,4.918,3.856,7.907s.433,5.849,1.571,8.666c1.841,4.56,6.5,6.857,10.832,8.46C22.285,51.666,22.6,50.995,22.2,50.822Z" transform="translate(0.462 2.189)" style="mix-blend-mode: multiply;isolation: isolate"/>
        <path id="Контур_483" data-name="Контур 483" d="M13.814,49.86c-4.387-.823-6.965-4.246-8.427-8.276a12.468,12.468,0,0,1-.412-6.933,10.334,10.334,0,0,0,0-5.416.13.13,0,0,0-.249.065c.585,2.535-.607,5-.845,7.507A12.728,12.728,0,0,0,5.2,43.155c1.668,3.737,4.225,6.673,8.417,7.5C14.1,50.651,14.313,49.947,13.814,49.86Z" transform="translate(0.322 2.435)" style="mix-blend-mode: multiply;isolation: isolate"/>
        <path id="Контур_484" data-name="Контур 484" d="M39.759,19.389a27.308,27.308,0,0,0-9.651-.368c-3.369.422-7.2,1.083-10.247,2.654v.065c3.065-.336,6.033-1.484,9.1-1.95a28.521,28.521,0,0,1,9.435,0,19.324,19.324,0,0,1,7.452,2.957A13.584,13.584,0,0,1,49.226,26a7.745,7.745,0,0,1,1.4,4.506.357.357,0,1,0,.715,0C51.36,24.306,45.045,20.634,39.759,19.389Z" transform="translate(1.653 1.569)" style="mix-blend-mode: multiply;isolation: isolate"/>
        <path id="Контур_485" data-name="Контур 485" d="M38.985,32.069c-1.159-2.7-5.514-4.105-8.07-2.665a1.69,1.69,0,0,0-.487,2.73,6.3,6.3,0,0,0,1.917,1.82,27.159,27.159,0,0,1,2.535,1.083c.227.152.487-.195.292-.379a8.3,8.3,0,0,0-2.253-1.083,5.059,5.059,0,0,1-1.776-1.506l-.4-.509.347-1.538a2.318,2.318,0,0,1,1.083-.379c2.73-.585,4.777.8,6.6,2.621C38.877,32.4,39.061,32.264,38.985,32.069Z" transform="translate(2.491 2.408)" style="mix-blend-mode: multiply;isolation: isolate"/>
        <path id="Контур_486" data-name="Контур 486" d="M68.2,10.429a2.686,2.686,0,0,0-.682-.823c-.3-.227-.845-.368-1.083-.7-.412-.661-.119-1.322-.942-1.776a1.614,1.614,0,0,0-1.083-.195,1.787,1.787,0,0,0-.986-1.018c-.845-.379-1.917,0-2.827-.13.195-.065.173-.39,0-.477a6.5,6.5,0,0,0-3.867-.292.477.477,0,0,0-.108.867,3.185,3.185,0,0,1,.7.477l-.791.1a.469.469,0,0,0-.325.8l.271.238a7.192,7.192,0,0,0-2.351.563c-.347.195-.672.466-.607.91s.487.607.877.693c.78.152,1.592-.087,2.275.271L55.059,10.96a.477.477,0,0,0,.238.888h.975a2.838,2.838,0,0,0-1.3,2.242.5.5,0,0,0,.737.422,11.254,11.254,0,0,1,1.668-.888c.563-.184.6-.412.52.314a17.018,17.018,0,0,1-.975,3.055c-.152.466.368.726.737.563l3.12-1.322a11.775,11.775,0,0,0,.845,1.711.5.5,0,0,0,.856,0l.271-.628a4.116,4.116,0,0,0,4.333-.693,2.556,2.556,0,0,0,.834-1.8,3.087,3.087,0,0,1,.238-1.776c.195-.314.444-.422.531-.812a3.044,3.044,0,0,0-.487-1.809Zm-1.083,2.307c-.477.6-.3,1.083-.238,1.766.195,2.264-2.632,2.556-4.17,1.809a.5.5,0,0,0-.682.173l-.054.13a10.54,10.54,0,0,1-.477-1.159.509.509,0,0,0-.737-.3l-2.6,1.083c.217-.672.444-1.354.639-2.036.152-.509.422-1.159,0-1.625s-1.462-.227-2.286.238a5.514,5.514,0,0,1,1.863-.975.487.487,0,0,0-.13-.942H56.879l.834-.542a.466.466,0,0,0,.1-.726,2.773,2.773,0,0,0-2.166-.845c-.422,0-1.376.108-.487-.141s1.581-.347,2.361-.5a.433.433,0,0,0,.184-.715l-.141-.249h.661a.477.477,0,0,0,.412-.715,4.084,4.084,0,0,0-.563-.715h.856a.466.466,0,0,0,.141.325,2.231,2.231,0,0,0,1.354.7c.812.141,3.152-.542,3.141.845a.52.52,0,0,0,.78.444l1.018.466.065.336c.1.184.087.433.184.628a1.517,1.517,0,0,0,.585.607c.542.357.942.466,1.257,1.083s.152.942-.282,1.495Z" transform="translate(4.453 0.412)" style="mix-blend-mode: multiply;isolation: isolate"/>
        <path id="Контур_487" data-name="Контур 487" d="M64.862,12.446a.368.368,0,0,0-.7,0c-.087.238-.13.455-.195.672a1.6,1.6,0,0,0-1.083-.379c-.336,0-.9.39-1.083.162s.531-1.452.758-1.744-.152-.715-.487-.628a10.637,10.637,0,0,1-1.192.357c.13-.282.379-.661.444-.791a.422.422,0,0,0-.217-.6h0c.292,0,.217-.52-.065-.52a2.556,2.556,0,0,0-1.473.477.4.4,0,0,0,.1.726l.563.087c-.271.444-.5.975-.152,1.332a1.137,1.137,0,0,0,1.083.119,2.047,2.047,0,0,0-.325,1.755c.639,1.192,2.3-.607,2.957.682a.422.422,0,0,0,.726,0A1.982,1.982,0,0,0,64.862,12.446Z" transform="translate(4.94 0.756)" style="mix-blend-mode: multiply;isolation: isolate"/>
        <path id="Контур_488" data-name="Контур 488" d="M64.219,9.9a1.365,1.365,0,0,0-.726-.455c-.3-.119-.357-.357-.563-.585a.466.466,0,0,0-.78.325,1.256,1.256,0,0,0,.769.964,2.459,2.459,0,0,0,.585.162,1.084,1.084,0,0,1,.238.076h0c-.206,0-.206.379,0,.379a.607.607,0,0,0,.477-.867Z" transform="translate(5.171 0.736)" style="mix-blend-mode: multiply;isolation: isolate"/>
        <path id="Контур_489" data-name="Контур 489" d="M33.9,8.813a39.461,39.461,0,0,0-8.666,7.041.13.13,0,0,0,.184.184,63.1,63.1,0,0,1,8.731-6.8.245.245,0,1,0-.249-.422Z" transform="translate(2.096 0.739)" style="mix-blend-mode: multiply;isolation: isolate"/>
        <path id="Контур_490" data-name="Контур 490" d="M54.876,5.152A7.257,7.257,0,0,0,51.052,3.8a43.229,43.229,0,0,1-5.416-.617.273.273,0,0,0-.206.5c2.849,1.506,6.445,0,9.218,1.852C54.887,5.7,55.093,5.347,54.876,5.152Z" transform="translate(3.769 0.273)" style="mix-blend-mode: multiply;isolation: isolate"/>
        <path id="Контур_491" data-name="Контур 491" d="M47.9,6.44l-2.676.141c-.227,0-.227.357,0,.347L47.9,6.819C48.137,6.808,48.137,6.429,47.9,6.44Z" transform="translate(3.749 0.545)" style="mix-blend-mode: multiply;isolation: isolate"/>
        <path id="Контур_492" data-name="Контур 492" d="M50.3,9.511a25.39,25.39,0,0,0-8.092,1.083.2.2,0,1,0,.108.379A33.742,33.742,0,0,1,50.3,9.89a.195.195,0,0,0,0-.379Z" transform="translate(3.5 0.799)" style="mix-blend-mode: multiply;isolation: isolate"/>
        <path id="Контур_493" data-name="Контур 493" d="M60.825,21.171c0-.26-.444-.152-.4.108a12.663,12.663,0,0,1-.314,5.416.208.208,0,1,0,.4.108A10.832,10.832,0,0,0,60.825,21.171Z" transform="translate(5.001 1.758)" style="mix-blend-mode: multiply;isolation: isolate"/>
        <path id="Контур_494" data-name="Контур 494" d="M65.234,18.609c-.141-.271-.542,0-.412.238a14.342,14.342,0,0,1,.9,9.381.238.238,0,0,0,.455.13A12.619,12.619,0,0,0,65.234,18.609Z" transform="translate(5.392 1.548)" style="mix-blend-mode: multiply;isolation: isolate"/>
        <path id="Контур_495" data-name="Контур 495" d="M69.836,18.009c-.065-.206-.39-.119-.325.087a20.689,20.689,0,0,1,.9,5.936.184.184,0,1,0,.368,0,18.317,18.317,0,0,0-.942-6.023Z" transform="translate(5.783 1.498)" style="mix-blend-mode: multiply;isolation: isolate"/>
        <path id="Контур_496" data-name="Контур 496" d="M64.264,39.871a36.547,36.547,0,0,1-3.4,6.5c-.141.217.195.39.336.195a26,26,0,0,0,3.477-6.5C64.719,39.719,64.264,39.622,64.264,39.871Z" transform="translate(5.061 3.315)" style="mix-blend-mode: multiply;isolation: isolate"/>
        <path id="Контур_497" data-name="Контур 497" d="M58.951,41.228l-.379.888c-.108.249.26.466.368.217l.379-.888C59.416,41.2,59.037,40.99,58.951,41.228Z" transform="translate(4.872 3.431)" style="mix-blend-mode: multiply;isolation: isolate"/>
        <path id="Контур_498" data-name="Контур 498" d="M46.614,50.356a30.027,30.027,0,0,1-4.907,4.69c-.227.173,0,.563.227.39a26,26,0,0,0,4.983-4.788C47.091,50.442,46.8,50.139,46.614,50.356Z" transform="translate(3.463 4.193)" style="mix-blend-mode: multiply;isolation: isolate"/>
        <path id="Контур_499" data-name="Контур 499" d="M42.76,49.874c-2.719,2.936-5.763,5.535-9.749,6.5-.249.065-.141.422.108.379,4.051-.78,7.2-3.694,9.879-6.651C43.193,50.015,42.922,49.69,42.76,49.874Z" transform="translate(2.735 4.154)" style="mix-blend-mode: multiply;isolation: isolate"/>
        <path id="Контур_500" data-name="Контур 500" d="M22.225,53.817a20.96,20.96,0,0,1-8.492-.737c-.162,0-.238.206-.076.26a18.024,18.024,0,0,0,8.611.747C22.409,54.077,22.377,53.795,22.225,53.817Z" transform="translate(1.129 4.426)" style="mix-blend-mode: multiply;isolation: isolate"/>
        <path id="Контур_501" data-name="Контур 501" d="M28.692,55.921,25.887,57c-.162.065-.087.336.076.271l2.795-1.17C28.9,56.094,28.833,55.856,28.692,55.921Z" transform="translate(2.147 4.661)" style="mix-blend-mode: multiply;isolation: isolate"/>
        <path id="Контур_502" data-name="Контур 502" d="M41.676,4.521c-1.235.422-2.481.791-3.694,1.278-.271.108-.173.542.13.455,1.257-.368,2.459-.856,3.694-1.289C42.077,4.868,41.958,4.434,41.676,4.521Z" transform="translate(3.147 0.384)" style="mix-blend-mode: multiply;isolation: isolate"/>
        <path id="Контур_503" data-name="Контур 503" d="M69.16,31.877,68,35.062c-.076.195.249.282.314.087L69.4,31.964C69.507,31.78,69.225,31.7,69.16,31.877Z" transform="translate(5.657 2.653)" style="mix-blend-mode: multiply;isolation: isolate"/>
      </g>
    </g>
    <g id="Broc" transform="translate(613.631 625.956)" opacity="0.64" style="mix-blend-mode: multiply;isolation: isolate">
      <g id="OBJECTS-4" data-name="OBJECTS" transform="translate(0 0)" style="mix-blend-mode: multiply;isolation: isolate">
        <path id="Контур_587" data-name="Контур 587" d="M47.36,23.141a.271.271,0,0,0-.087-.152.4.4,0,0,0,.152-.217h0a.444.444,0,0,0-.542-.542A5.546,5.546,0,0,0,44.327,25.1a19.5,19.5,0,0,0-1.668,4.7c-1.581-2.112-4.441-4.983-6.185-1.571-.173.347.206.845.574.574a7.431,7.431,0,0,1,1.17-.867c.964-.39,1.809.563,2.372,1.148a24.254,24.254,0,0,1,2.166,2.936c.8,1.159,1.852,2.86,3.52,2.47s2.047-2.166,2.036-3.585a42.245,42.245,0,0,0-.953-7.767ZM44.922,32.89A12.273,12.273,0,0,1,43.2,30.507l-.271-.4a.184.184,0,0,0,.065-.087,25,25,0,0,1,1.82-3.845,10.94,10.94,0,0,1,1.917-2.762c0,2.361.39,4.7.5,7.052.054,1.267-.509,4.04-2.307,2.448Z" transform="translate(3.028 1.849)" style="mix-blend-mode: multiply;isolation: isolate"/>
        <path id="Контур_588" data-name="Контур 588" d="M45.9,44.376a13.465,13.465,0,0,0-2.806-2.448l-2.86-2.253a12.793,12.793,0,0,1-2.654-2.946A9.131,9.131,0,0,0,35.7,34.41H35.65a10.442,10.442,0,0,0,3.455,5.828c1.007.888,2.08,1.69,3.13,2.524a14.016,14.016,0,0,0,3.141,2.275C45.778,45.22,46.125,44.7,45.9,44.376Z" transform="translate(2.963 2.864)" style="mix-blend-mode: multiply;isolation: isolate"/>
        <path id="Контур_589" data-name="Контур 589" d="M44.2,45a5.015,5.015,0,0,0-1.549,2.166,23.151,23.151,0,0,0-1.083,2.741c-.1.292.357.412.455.13A11.72,11.72,0,0,1,43.3,47.385a9.749,9.749,0,0,0,1.332-2.069A.3.3,0,0,0,44.2,45Z" transform="translate(3.454 3.743)" style="mix-blend-mode: multiply;isolation: isolate"/>
        <path id="Контур_590" data-name="Контур 590" d="M44.453,47.537c-.184.455-.357.91-.531,1.376s.368.422.487.13.379-.91.563-1.365S44.583,47.223,44.453,47.537Z" transform="translate(3.648 3.938)" style="mix-blend-mode: multiply;isolation: isolate"/>
        <path id="Контур_591" data-name="Контур 591" d="M53.708,50.516v-.087a.5.5,0,0,0-.444-.249c-.693,0-.975.769-1.278,1.289s-.466.823-.693,1.246h0a11.8,11.8,0,0,1-.325-1.462c0-.152-.249-.152-.227,0a13.232,13.232,0,0,1,0,1.408v1.408a.433.433,0,0,0,.812.217c.347-.531.672-1.083,1-1.636l.5-.812.26-.4q.271-.238.087-.195a.455.455,0,0,0,.314-.726Z" transform="translate(4.218 4.176)" style="mix-blend-mode: multiply;isolation: isolate"/>
        <path id="Контур_592" data-name="Контур 592" d="M56.4,48.205a.271.271,0,0,0-.39-.162c-.379.195-.52.682-.726,1.083a6.911,6.911,0,0,1-.877,1.192c-.347.379.206.932.563.563a8.016,8.016,0,0,0,1-1.267C56.207,49.18,56.553,48.671,56.4,48.205Z" transform="translate(4.515 3.995)" style="mix-blend-mode: multiply;isolation: isolate"/>
        <path id="Контур_593" data-name="Контур 593" d="M56.339,43.885a13.941,13.941,0,0,1-1.657-.715,5.622,5.622,0,0,0-1.408-.639.347.347,0,0,0-.336.574,6.607,6.607,0,0,0,3.25,1.43.336.336,0,0,0,.152-.65Z" transform="translate(4.393 3.539)" style="mix-blend-mode: multiply;isolation: isolate"/>
        <path id="Контур_594" data-name="Контур 594" d="M46.309,37.088c-.054-.314-.466-.292-.628-.087a6.24,6.24,0,0,0-.607,1.787,7.517,7.517,0,0,1-.932,2.015c-.162.238.227.466.39.227C45.27,39.97,46.569,38.475,46.309,37.088Z" transform="translate(3.666 3.067)" style="mix-blend-mode: multiply;isolation: isolate"/>
        <path id="Контур_595" data-name="Контур 595" d="M47.485,37.928l-.184.639a.326.326,0,1,0,.628.173l.184-.639a.326.326,0,0,0-.628-.173Z" transform="translate(3.931 3.137)" style="mix-blend-mode: multiply;isolation: isolate"/>
        <path id="Контур_596" data-name="Контур 596" d="M63.465,45.018c-1.82-1.841-4.225-3.25-5.709-5.362-1.906-2.762-2.611-6.5-2.892-9.749a45.289,45.289,0,0,1,.455-9.326c2.036-2.73,2.892-6.5.877-9.521a6.272,6.272,0,0,0-3.661-2.578c-1.148-.271-3.055-.238-3.466,1.083-.108.379.292.585.6.455a3.726,3.726,0,0,1,3.661-.087,5.871,5.871,0,0,1,2.491,2.7c1.083,2.264.509,4.809-.552,7a.282.282,0,0,0-.347.152c-.141.39-.249.78-.368,1.181h0c-1.343,4.874-.747,10.4.552,15.165a12.576,12.576,0,0,0,3.25,6.044,60.313,60.313,0,0,1,5.719,5.416c.7.867,1.289,1.332.639,2.578A12.391,12.391,0,0,1,63.2,52.048q-1.462,1.831-2.979,3.618l-2.751,3.185a13.962,13.962,0,0,1-3.1,3.13c-.466.271-1.083.552-1.592.076a3.347,3.347,0,0,1-.325-.812,6.348,6.348,0,0,0-.585-1.083A8.027,8.027,0,0,0,49.827,58.2a29.247,29.247,0,0,0-6.239-2.957,19.5,19.5,0,0,0-10.832-1.365c1.9-2.08,3.087-5.2,1.636-7.582a17.472,17.472,0,0,0,4.084-.65c.26-.087.325-.552,0-.607a24.177,24.177,0,0,0-5.254.152A.607.607,0,0,0,32.8,46.21c2.751,2.567,0,6.553-2.286,8.319l-.087.087a11.059,11.059,0,0,0-1.646.921.628.628,0,0,0-.845.509c-.3,3.1-.867,6.283-3.921,7.832s-6.608.823-9.6-.422c-2.806-1.17-5.319-3.076-6.066-6.174a10.832,10.832,0,0,1,0-4.82c.314-1.441.953-2.816,1.148-4.333a.114.114,0,0,0-.195-.076C7.452,50.315,6.835,54.16,7.431,57.1a49.948,49.948,0,0,1-3.2-4.788,7.669,7.669,0,0,1-1.2-3.737,15.793,15.793,0,0,1,.639-3.683.292.292,0,0,0,0-.195.2.2,0,0,0,0-.173A19.173,19.173,0,0,1,1.44,39.905a6.933,6.933,0,0,1,.682-5.5,23.571,23.571,0,0,1,6.272-7.5c.574-.466-.238-1.278-.812-.812a26.939,26.939,0,0,0-3.564,3.434,14.244,14.244,0,0,1-1.852-9.944A15.956,15.956,0,0,1,6.7,11.5a30.579,30.579,0,0,1,7.377-5.882A13.107,13.107,0,0,1,18.913,4.04a26.4,26.4,0,0,1,5.232.292,6.769,6.769,0,0,0-.3.7c-.195.531.617.834.888.379C27.643.563,33.677.942,38.627,1.408a14.558,14.558,0,0,1,7.247,2.329,30.1,30.1,0,0,1,2.935,2.589,7,7,0,0,0,2.535,1.939.152.152,0,0,0,.184-.184c-.379-1.289-1.69-2.307-2.6-3.25a15.588,15.588,0,0,0-3.174-2.665A17.331,17.331,0,0,0,37.912.141C33.579-.141,26.907-.433,24.35,3.856A13,13,0,0,0,13.9,4.474a30.481,30.481,0,0,0-8.666,6.911A16,16,0,0,0,.9,20.169C.574,23.495,1,27.741,3.249,30.33A19.5,19.5,0,0,0,.628,34.814a7.463,7.463,0,0,0-.3,5.156,16.411,16.411,0,0,0,2.838,4.712c-1.755,1.766-1.527,4.885-.6,6.987a27.828,27.828,0,0,0,2.546,4.084A33,33,0,0,0,7.885,59.49a.5.5,0,0,0,.477.173,12.067,12.067,0,0,0,6.153,4.918c3.25,1.322,7.084,1.939,10.312.173s3.856-4.853,4.225-8.07c4.777-3.607,11.027-1.744,16.075.292,2.286.932,5.091,1.982,6.293,4.333.347.672.412,1.527,1.148,1.928a2.513,2.513,0,0,0,2.361-.292A10.756,10.756,0,0,0,57.41,60.66q1.668-1.863,3.3-3.737,1.376-1.581,2.73-3.2a20.58,20.58,0,0,0,2.632-3.336C67.159,48.365,64.743,46.307,63.465,45.018Z" transform="translate(-0.003 0.001)" style="mix-blend-mode: multiply;isolation: isolate"/>
        <path id="Контур_597" data-name="Контур 597" d="M26.412,38.662c-2.6-.737-5.665,1.343-6.781,3.6a6.185,6.185,0,0,0,1.4,7.409c.195.173.552,0,.379-.292a6.6,6.6,0,0,1-.682-6.694c1.224-2.307,3.358-2.7,5.687-3.022C26.943,39.582,26.867,38.792,26.412,38.662Z" transform="translate(1.574 3.205)" style="mix-blend-mode: multiply;isolation: isolate"/>
        <path id="Контур_598" data-name="Контур 598" d="M20.819,26.721a7.875,7.875,0,0,0-7.712-.791c-2.784,1.213-4.755,4.463-5.925,7.149A13.1,13.1,0,0,0,6.8,42.406a5.784,5.784,0,0,0,2.166,3.25,14.45,14.45,0,0,0,5.037,1.852c.13,0,.271-.141.141-.249a14.081,14.081,0,0,0-3.2-1.874A4.939,4.939,0,0,1,8,42.309a11.991,11.991,0,0,1,0-8.2c.921-2.481,2.632-5.416,4.961-6.846a6.748,6.748,0,0,1,7.29.412C20.841,28.086,21.393,27.144,20.819,26.721Z" transform="translate(0.506 2.103)" style="mix-blend-mode: multiply;isolation: isolate"/>
        <path id="Контур_599" data-name="Контур 599" d="M43.963,11.742A4.4,4.4,0,0,0,40.887,9.4,3.13,3.13,0,0,1,41.97,7.236c.477-.433,1.246-.715,1.538-1.289a.314.314,0,0,0-.271-.477,3.8,3.8,0,0,0-2.253,1.538,2.611,2.611,0,0,0-.639,2.286,14.32,14.32,0,0,0-1.625-.3A16.692,16.692,0,0,0,30.64,10a15.425,15.425,0,0,0-9.348,9.554,2.253,2.253,0,0,0-2.286.314c-.639.477-1.592,1.538-1.506,2.383a.26.26,0,0,0,.379.217c.563-.325.78-1.083,1.2-1.581a1.95,1.95,0,0,1,1.982-.758.374.374,0,0,1-.076.271c-.076.087.227.325.325.13l.152-.3a.282.282,0,0,0,.206-.422,17.97,17.97,0,0,1,8.839-8.666,15.988,15.988,0,0,1,6.618-1.148,11.7,11.7,0,0,1,3.25.509,18.49,18.49,0,0,1,2.9,1.711C43.584,12.543,44.115,12.175,43.963,11.742Z" transform="translate(1.452 0.456)" style="mix-blend-mode: multiply;isolation: isolate"/>
        <path id="Контур_600" data-name="Контур 600" d="M22.1,9.72a6.77,6.77,0,0,0-1.365-.347c.206-.4.292-.91.477-1.3.271-.552.834-1.083.964-1.657a.282.282,0,0,0-.336-.336c-.672.195-1.083,1.083-1.354,1.636A3.38,3.38,0,0,0,20.1,9.308a11.168,11.168,0,0,0-6.835,2.1C11.222,12.84,8.6,15.743,8.59,18.364a.412.412,0,0,0,.758.206c.628-1.018.9-2.166,1.56-3.25a10.984,10.984,0,0,1,3.065-3.141c2.491-1.69,5.167-1.852,8.059-2.047A.208.208,0,0,0,22.1,9.72Z" transform="translate(0.711 0.506)" style="mix-blend-mode: multiply;isolation: isolate"/>
        <path id="Контур_601" data-name="Контур 601" d="M26.079,32.8c-.336.693-.7,1.365-1.083,2.047a5.719,5.719,0,0,1-1.322,1.993.379.379,0,0,0-.076.585l.108.1a.509.509,0,0,0,.607.076,4.625,4.625,0,0,0,1.332-2.047,9.9,9.9,0,0,0,.726-2.632A.158.158,0,0,0,26.079,32.8Z" transform="translate(1.951 2.722)" style="mix-blend-mode: multiply;isolation: isolate"/>
        <path id="Контур_602" data-name="Контур 602" d="M35.342,35.409a7.3,7.3,0,0,1-3.4-.357A15.945,15.945,0,0,1,28.8,33.416c-.466-.325-1.083.412-.607.791a5.871,5.871,0,0,0,3.7,1.906h.141a4.885,4.885,0,0,0,3.39-.325.194.194,0,1,0-.087-.379Z" transform="translate(2.328 2.774)" style="mix-blend-mode: multiply;isolation: isolate"/>
        <path id="Контур_603" data-name="Контур 603" d="M35.286,25.238c-1.982-1.43-7.442-1.332-7.756,1.928a.306.306,0,0,0,.509.217c.4-.357.639-.823,1.083-1.181a3.867,3.867,0,0,1,2.036-.921c1.083-.184,3.022-.325,4,.271C35.307,25.671,35.47,25.368,35.286,25.238Z" transform="translate(2.287 2.028)" style="mix-blend-mode: multiply;isolation: isolate"/>
        <path id="Контур_604" data-name="Контур 604" d="M44.571,18.518a13.518,13.518,0,0,1-1.495,3.867,5.947,5.947,0,0,0-.986,2.968.217.217,0,0,0,.4.108,32.267,32.267,0,0,0,1.668-3.726,7.2,7.2,0,0,0,.737-3.185C44.863,18.4,44.6,18.345,44.571,18.518Z" transform="translate(3.499 1.533)" style="mix-blend-mode: multiply;isolation: isolate"/>
        <path id="Контур_605" data-name="Контур 605" d="M49.042,18.13a7.777,7.777,0,0,0-2.686.39c-.357.076-.195.585.152.531a7.582,7.582,0,0,0,2.589-.52.227.227,0,0,0-.054-.4Z" transform="translate(3.837 1.509)" style="mix-blend-mode: multiply;isolation: isolate"/>
        <path id="Контур_606" data-name="Контур 606" d="M34.662,45.825a22.053,22.053,0,0,0-.422,2.73.238.238,0,0,0,.466.065,9.5,9.5,0,0,0,.357-2.795C35.063,45.565,34.695,45.576,34.662,45.825Z" transform="translate(2.846 3.798)" style="mix-blend-mode: multiply;isolation: isolate"/>
        <path id="Контур_607" data-name="Контур 607" d="M36.314,46.835c-.065.542-.227,1.083-.314,1.592,0,.184.238.347.336.141a4.6,4.6,0,0,0,.39-1.744C36.747,46.575,36.347,46.586,36.314,46.835Z" transform="translate(2.992 3.882)" style="mix-blend-mode: multiply;isolation: isolate"/>
        <path id="Контур_608" data-name="Контур 608" d="M30.505,6.2a2.416,2.416,0,0,0-2,1.69c-.1.249.325.422.433.184A2.026,2.026,0,0,1,30.3,6.785a1.235,1.235,0,0,1,1.408.845.2.2,0,0,0,.4-.054A1.516,1.516,0,0,0,30.505,6.2Z" transform="translate(2.367 0.516)" style="mix-blend-mode: multiply;isolation: isolate"/>
        <path id="Контур_609" data-name="Контур 609" d="M35.495,4a3.726,3.726,0,0,0-1.17.336c-.336.13-.206.661.152.552a3.8,3.8,0,0,0,1.148-.422A.249.249,0,0,0,35.495,4Z" transform="translate(2.836 0.334)" style="mix-blend-mode: multiply;isolation: isolate"/>
        <path id="Контур_610" data-name="Контур 610" d="M27.741,5.674c-.542-.52-1.679-.412-1.82.433a.206.206,0,1,0,.379.162.8.8,0,0,1,1.083-.249C27.633,6.205,27.969,5.88,27.741,5.674Z" transform="translate(2.152 0.447)" style="mix-blend-mode: multiply;isolation: isolate"/>
        <path id="Контур_611" data-name="Контур 611" d="M23.491,10.876a1.841,1.841,0,0,0-1.657.3,1.549,1.549,0,0,0-.682,1.538.282.282,0,0,0,.5.065,3.25,3.25,0,0,1,.607-1.083,1.625,1.625,0,0,1,1.181-.455C23.686,11.309,23.719,10.93,23.491,10.876Z" transform="translate(1.755 0.899)" style="mix-blend-mode: multiply;isolation: isolate"/>
        <path id="Контур_612" data-name="Контур 612" d="M17.831,17.094a1.722,1.722,0,0,0-1.95.271,1.646,1.646,0,0,0-.336,2,.3.3,0,0,0,.509-.195,1.82,1.82,0,0,1,.238-1.3,1.419,1.419,0,0,1,1.343-.477C17.885,17.484,18.037,17.181,17.831,17.094Z" transform="translate(1.273 1.408)" style="mix-blend-mode: multiply;isolation: isolate"/>
        <path id="Контур_613" data-name="Контур 613" d="M12.136,22.1c-.791,0-1.906.78-1.755,1.69a.271.271,0,0,0,.5.065,4.55,4.55,0,0,1,.433-.888,1.517,1.517,0,0,1,.877-.5.195.195,0,0,0-.054-.368Z" transform="translate(0.859 1.84)" style="mix-blend-mode: multiply;isolation: isolate"/>
        <path id="Контур_614" data-name="Контур 614" d="M11.5,8.931c-.195-.563-.888-.487-1.224-.1a1.69,1.69,0,0,0-.325.769,1.473,1.473,0,0,0,0,.942s.065.076.108,0a1.592,1.592,0,0,0,.509-.867c.108-.314.26-.639.639-.487C11.375,9.31,11.57,9.094,11.5,8.931Z" transform="translate(0.818 0.71)" style="mix-blend-mode: multiply;isolation: isolate"/>
        <path id="Контур_615" data-name="Контур 615" d="M15.468,6.129c-.249-.217-.6-.076-.877,0a2.881,2.881,0,0,0-.856.542c-.162.152.054.444.238.3a2.448,2.448,0,0,1,.78-.379c.238-.065.552,0,.715-.227a.206.206,0,0,0,0-.238Z" transform="translate(1.135 0.501)" style="mix-blend-mode: multiply;isolation: isolate"/>
        <path id="Контур_616" data-name="Контур 616" d="M6.9,14.594c-1.278-.325-3.1.91-2.589,2.351a.271.271,0,0,0,.531-.076c.087-1,.8-2.026,1.928-1.776a.26.26,0,0,0,.13-.5Z" transform="translate(0.348 1.211)" style="mix-blend-mode: multiply;isolation: isolate"/>
        <path id="Контур_617" data-name="Контур 617" d="M4.841,21.338l-.217-.509c-.108-.249-.531-.065-.433.184l.195.52a1.6,1.6,0,0,0,.271.455.184.184,0,0,0,.3-.13A1.56,1.56,0,0,0,4.841,21.338Z" transform="translate(0.344 1.724)" style="mix-blend-mode: multiply;isolation: isolate"/>
        <path id="Контур_618" data-name="Контур 618" d="M7.534,19.73a.932.932,0,0,0-.791.412.65.65,0,0,0,0,.888.249.249,0,0,0,.412-.108c0-.227,0-.639.368-.65a.271.271,0,1,0,.011-.542Z" transform="translate(0.543 1.642)" style="mix-blend-mode: multiply;isolation: isolate"/>
        <path id="Контур_619" data-name="Контур 619" d="M4.962,30.41a7.821,7.821,0,0,0-.542,1.159c-.076.238.249.347.379.162a7.5,7.5,0,0,0,.574-1.083A.238.238,0,1,0,4.962,30.41Z" transform="translate(0.363 2.521)" style="mix-blend-mode: multiply;isolation: isolate"/>
        <path id="Контур_620" data-name="Контур 620" d="M15.158,13.529a1.311,1.311,0,0,0-1.636.487,1.993,1.993,0,0,0-.4.791,1.636,1.636,0,0,0,.119.942.208.208,0,1,0,.4-.108,1.43,1.43,0,0,1,.477-1.192,3.629,3.629,0,0,1,1.083-.52A.33.33,0,0,0,15.158,13.529Z" transform="translate(1.086 1.117)" style="mix-blend-mode: multiply;isolation: isolate"/>
        <path id="Контур_621" data-name="Контур 621" d="M19.728,13.251a1.56,1.56,0,0,0-.617.6l-.585.737c-.227.282.162.693.4.4l.607-.715a1.722,1.722,0,0,0,.487-.726C20.053,13.392,19.923,13.186,19.728,13.251Z" transform="translate(1.532 1.102)" style="mix-blend-mode: multiply;isolation: isolate"/>
        <path id="Контур_622" data-name="Контур 622" d="M13.708,23.87a2.491,2.491,0,0,0-2.437,1.473.271.271,0,0,0,.455.26,2.849,2.849,0,0,1,1.982-1.148.292.292,0,0,0,0-.585Z" transform="translate(0.934 1.986)" style="mix-blend-mode: multiply;isolation: isolate"/>
        <path id="Контур_623" data-name="Контур 623" d="M4.8,35.505a3.152,3.152,0,0,0-1.083,2,.477.477,0,0,0,.953,0,.217.217,0,0,0-.3-.195,2.806,2.806,0,0,1,.8-1.484C5.41,35.635,5.107,35.289,4.8,35.505Z" transform="translate(0.306 2.949)" style="mix-blend-mode: multiply;isolation: isolate"/>
        <path id="Контур_624" data-name="Контур 624" d="M6.358,44.007a2.307,2.307,0,0,0-.867,2.069.271.271,0,0,0,.509,0A3.5,3.5,0,0,1,6.737,44.4C6.986,44.115,6.607,43.736,6.358,44.007Z" transform="translate(0.452 3.655)" style="mix-blend-mode: multiply;isolation: isolate"/>
        <path id="Контур_625" data-name="Контур 625" d="M11.85,51.269a2,2,0,0,0-.195,2.058.26.26,0,0,0,.466-.195,2.1,2.1,0,0,1,.152-1.614A.245.245,0,1,0,11.85,51.269Z" transform="translate(0.95 4.257)" style="mix-blend-mode: multiply;isolation: isolate"/>
        <path id="Контур_626" data-name="Контур 626" d="M15.368,55.444a2.036,2.036,0,0,1-1.506-.271c-.249-.184-.574.238-.336.433a1.69,1.69,0,0,0,1.95.271C15.649,55.748,15.617,55.433,15.368,55.444Z" transform="translate(1.115 4.588)" style="mix-blend-mode: multiply;isolation: isolate"/>
        <path id="Контур_627" data-name="Контур 627" d="M21.3,54.348a1.766,1.766,0,0,1-1.441,1.43c-.325,0-.249.617.076.574a2.091,2.091,0,0,0,1.906-1.928.273.273,0,1,0-.542-.076Z" transform="translate(1.631 4.503)" style="mix-blend-mode: multiply;isolation: isolate"/>
        <path id="Контур_628" data-name="Контур 628" d="M17.423,50.356a1.928,1.928,0,0,0-.552.682.206.206,0,0,0,.26.26,1.917,1.917,0,0,0,.682-.552.276.276,0,1,0-.39-.39Z" transform="translate(1.399 4.184)" style="mix-blend-mode: multiply;isolation: isolate"/>
        <path id="Контур_629" data-name="Контур 629" d="M16.9,53.12a.292.292,0,1,0,.292.292A.292.292,0,0,0,16.9,53.12Z" transform="translate(1.379 4.421)" style="mix-blend-mode: multiply;isolation: isolate"/>
        <path id="Контур_630" data-name="Контур 630" d="M13.54,49.1a.265.265,0,1,0,.265.265A.265.265,0,0,0,13.54,49.1Z" transform="translate(1.101 4.086)" style="mix-blend-mode: multiply;isolation: isolate"/>
        <path id="Контур_631" data-name="Контур 631" d="M9.254,47.176a.26.26,0,0,0-.509,0,5.633,5.633,0,0,0,0,1.7.217.217,0,0,0,.412,0,5.622,5.622,0,0,0,.1-1.7Z" transform="translate(0.719 3.909)" style="mix-blend-mode: multiply;isolation: isolate"/>
        <path id="Контур_632" data-name="Контур 632" d="M14.963,29.005a2.231,2.231,0,0,0-2.773,2.047.249.249,0,0,0,.477.065,2.166,2.166,0,0,1,2.231-1.7C15.136,29.406,15.234,29.005,14.963,29.005Z" transform="translate(1.011 2.409)" style="mix-blend-mode: multiply;isolation: isolate"/>
        <path id="Контур_633" data-name="Контур 633" d="M12.079,33.414A2.513,2.513,0,0,0,11.06,35.58a.227.227,0,0,0,.433,0c.108-.325.108-.682.238-1.007a2.242,2.242,0,0,1,.65-.877C12.653,33.544,12.338,33.241,12.079,33.414Z" transform="translate(0.916 2.777)" style="mix-blend-mode: multiply;isolation: isolate"/>
        <path id="Контур_634" data-name="Контур 634" d="M14.273,37.227c-.368.3-.737.585-1.083.921s.065.542.292.379a13.626,13.626,0,0,0,1.159-.932C15.021,37.27,14.533,36.989,14.273,37.227Z" transform="translate(1.083 3.091)" style="mix-blend-mode: multiply;isolation: isolate"/>
        <path id="Контур_635" data-name="Контур 635" d="M9.985,38.793a1.614,1.614,0,0,0-.52,2.394.271.271,0,0,0,.444-.26,1.343,1.343,0,0,1,.314-1.679C10.472,39.02,10.245,38.63,9.985,38.793Z" transform="translate(0.757 3.225)" style="mix-blend-mode: multiply;isolation: isolate"/>
        <path id="Контур_636" data-name="Контур 636" d="M16.6,42.187a2.621,2.621,0,0,1-.076-1.159c.076-.368-.477-.52-.563-.152a1.744,1.744,0,0,0,.26,1.527C16.377,42.6,16.659,42.382,16.6,42.187Z" transform="translate(1.319 3.384)" style="mix-blend-mode: multiply;isolation: isolate"/>
        <path id="Контур_637" data-name="Контур 637" d="M19.5,34.766c-.737-.617-1.971.249-1.549,1.137a.236.236,0,0,0,.433-.119c0-.433.433-.932.867-.7C19.441,35.178,19.669,34.918,19.5,34.766Z" transform="translate(1.483 2.876)" style="mix-blend-mode: multiply;isolation: isolate"/>
        <path id="Контур_638" data-name="Контур 638" d="M18.555,31.191a1.083,1.083,0,0,0-1.083.466,1.289,1.289,0,0,0-.217,1.213.208.208,0,0,0,.4-.108,1.007,1.007,0,0,1,.3-.769,1.95,1.95,0,0,1,.693-.39C18.8,31.516,18.717,31.256,18.555,31.191Z" transform="translate(1.427 2.595)" style="mix-blend-mode: multiply;isolation: isolate"/>
        <path id="Контур_639" data-name="Контур 639" d="M25.79,19a2.372,2.372,0,0,0-2.047,2.73c0,.271.444.184.466-.065A2.567,2.567,0,0,1,25.92,19.5a.26.26,0,0,0-.13-.5Z" transform="translate(1.97 1.582)" style="mix-blend-mode: multiply;isolation: isolate"/>
        <path id="Контур_640" data-name="Контур 640" d="M32.29,14.49a1.5,1.5,0,0,0-1.928.672.238.238,0,0,0,.412.238,1.213,1.213,0,0,1,1.365-.542C32.344,14.9,32.507,14.609,32.29,14.49Z" transform="translate(2.521 1.196)" style="mix-blend-mode: multiply;isolation: isolate"/>
        <path id="Контур_641" data-name="Контур 641" d="M31.013,17.94a2.589,2.589,0,0,0-1.679,1.311c-.206.282.26.531.455.271a2.253,2.253,0,0,1,1.083-.953c.477-.119.661.195,1.029.39a.217.217,0,0,0,.3-.13C32.4,18.179,31.522,17.886,31.013,17.94Z" transform="translate(2.433 1.493)" style="mix-blend-mode: multiply;isolation: isolate"/>
        <path id="Контур_642" data-name="Контур 642" d="M35.394,15.87a2.925,2.925,0,0,0-1.668.964c-.249.238.119.607.379.379a2.5,2.5,0,0,1,1.17-.726c.422-.065.639.206,1.018.282a.206.206,0,0,0,.249-.195C36.575,16.011,35.839,15.827,35.394,15.87Z" transform="translate(2.796 1.321)" style="mix-blend-mode: multiply;isolation: isolate"/>
        <path id="Контур_643" data-name="Контур 643" d="M37.421,12.1c-1-.986-2.816-.412-3.6.563-.206.249.152.617.357.357.823-1.007,1.885-.856,3-.52a.249.249,0,0,0,.238-.4Z" transform="translate(2.806 0.965)" style="mix-blend-mode: multiply;isolation: isolate"/>
        <path id="Контур_644" data-name="Контур 644" d="M41.122,15.3a1.863,1.863,0,0,0-1.462.217c-.3.162,0,.6.271.455a4.333,4.333,0,0,1,1.192-.249C41.36,15.695,41.306,15.37,41.122,15.3Z" transform="translate(3.286 1.269)" style="mix-blend-mode: multiply;isolation: isolate"/>
        <path id="Контур_645" data-name="Контур 645" d="M48.648,12.38c-.162-.477-.769-.563-1.213-.509a1.6,1.6,0,0,0-1.213.791.292.292,0,0,0,.5.292,1.083,1.083,0,0,1,.845-.5,4.669,4.669,0,0,1,.877.195.206.206,0,0,0,.206-.271Z" transform="translate(3.841 0.987)" style="mix-blend-mode: multiply;isolation: isolate"/>
        <path id="Контур_646" data-name="Контур 646" d="M49.305,14.529c-.357-.455-1.289-.173-1.711,0s0,.509.227.39a1.56,1.56,0,0,1,.747-.152,1.755,1.755,0,0,0,.65,0A.2.2,0,0,0,49.305,14.529Z" transform="translate(3.942 1.189)" style="mix-blend-mode: multiply;isolation: isolate"/>
        <path id="Контур_647" data-name="Контур 647" d="M39.523,19.121a14.135,14.135,0,0,0-2.166.845c-.206.108,0,.379.141.347a13.833,13.833,0,0,0,2.166-.639C40.021,19.555,39.881,18.992,39.523,19.121Z" transform="translate(3.098 1.59)" style="mix-blend-mode: multiply;isolation: isolate"/>
        <path id="Контур_648" data-name="Контур 648" d="M38.669,22.534a2.058,2.058,0,0,0-2.448,1.473.195.195,0,0,0,.357.152,2.047,2.047,0,0,1,1.95-1.083C38.864,23.043,39,22.588,38.669,22.534Z" transform="translate(3.01 1.871)" style="mix-blend-mode: multiply;isolation: isolate"/>
        <path id="Контур_649" data-name="Контур 649" d="M30.117,29.274l-.152,1a1.224,1.224,0,0,0,0,.812.206.206,0,0,0,.325,0,1.213,1.213,0,0,0,.217-.78l.1-1.007C30.659,29.058,30.16,28.993,30.117,29.274Z" transform="translate(2.484 2.421)" style="mix-blend-mode: multiply;isolation: isolate"/>
        <path id="Контур_650" data-name="Контур 650" d="M32.706,30.817a1.592,1.592,0,0,0-.325,1.776c.108.206.368.087.39-.108a2.578,2.578,0,0,1,.39-1.311C33.366,30.9,32.922,30.557,32.706,30.817Z" transform="translate(2.679 2.557)" style="mix-blend-mode: multiply;isolation: isolate"/>
        <path id="Контур_651" data-name="Контур 651" d="M28.527,37.235a1.322,1.322,0,0,0-.357,1.571.227.227,0,0,0,.433-.119,1.43,1.43,0,0,1,.249-1.083.246.246,0,1,0-.325-.368Z" transform="translate(2.33 3.094)" style="mix-blend-mode: multiply;isolation: isolate"/>
        <path id="Контур_652" data-name="Контур 652" d="M24.283,44.262,24.11,45a.206.206,0,0,0,.39.108l.195-.726C24.749,44.11,24.348,43.991,24.283,44.262Z" transform="translate(2.003 3.671)" style="mix-blend-mode: multiply;isolation: isolate"/>
        <path id="Контур_653" data-name="Контур 653" d="M27.63,47.672c-.282.26-.639-.314-.661-.531-.054-.5.1-.986.076-1.473a.244.244,0,0,0-.487,0c0,.8-.552,1.668.076,2.372a.877.877,0,0,0,1.451,0,.293.293,0,1,0-.455-.368Z" transform="translate(2.188 3.781)" style="mix-blend-mode: multiply;isolation: isolate"/>
        <path id="Контур_654" data-name="Контур 654" d="M25.889,28.43c-1.354.227-2.069,1.971-1.917,3.163a.227.227,0,0,0,.444,0,3.25,3.25,0,0,1,.574-1.6,5.893,5.893,0,0,1,1.2-1.083C26.452,28.723,26.17,28.376,25.889,28.43Z" transform="translate(1.989 2.366)" style="mix-blend-mode: multiply;isolation: isolate"/>
        <path id="Контур_655" data-name="Контур 655" d="M25.024,23.81c-1.213.1-1.614,1.776-1.441,2.762,0,.282.531.217.5-.065a2.026,2.026,0,0,1,.282-1.408c.238-.368.6-.607.856-.964a.227.227,0,0,0-.195-.325Z" transform="translate(1.956 1.982)" style="mix-blend-mode: multiply;isolation: isolate"/>
        <path id="Контур_656" data-name="Контур 656" d="M23,21.671a1.917,1.917,0,0,0-1.159.26,11.7,11.7,0,0,0-1.181.552c-.3.162,0,.607.271.455a10.441,10.441,0,0,1,1.192-.487,2.166,2.166,0,0,0,.964-.4A.227.227,0,0,0,23,21.671Z" transform="translate(1.705 1.803)" style="mix-blend-mode: multiply;isolation: isolate"/>
      </g>
    </g>
    <g id="Eggplant" transform="translate(520.22 658.796)" style="mix-blend-mode: multiply;isolation: isolate">
      <g id="OBJECTS-5" data-name="OBJECTS" transform="translate(0 0)" style="mix-blend-mode: multiply;isolation: isolate">
        <path id="Контур_668" data-name="Контур 668" d="M70.724,42.243C64.777,31.693,55.082,23.97,47.056,15.055,43.329,10.96,39.343,5.988,33.938,4.331a.487.487,0,0,0-.173-.574,8.308,8.308,0,0,0-4.138-1.538,10.832,10.832,0,0,0-4.17.737c-1.7.487-1.549-.661-2.166-1.7a2.632,2.632,0,0,0-1.213-1,5.514,5.514,0,0,0-3.813.227.52.52,0,0,0-.227.856c.791.9,2.166,2.676,2.166,3.954,0,.921-.769,1.376-1.289,2.026a6.3,6.3,0,0,0-.867,1.441,10.832,10.832,0,0,0-.152,7.182c-.087,6.077,3.163,11.915,6.2,16.92l.921,1.516a33.482,33.482,0,0,0-8.763-.921c-2.925,0-5.968,0-8.568,1.527A15.988,15.988,0,0,0,0,48a16.963,16.963,0,0,0,4.95,12.663,30.7,30.7,0,0,0,7.42,4.9,18.079,18.079,0,0,0,8.547,1.863A36.45,36.45,0,0,0,40.08,61.958c.639-.39,0-1.4-.585-1.007A35.681,35.681,0,0,1,24,66.074a23.463,23.463,0,0,1-8.3-.433A28.1,28.1,0,0,1,8.288,61.8c-8.482-5.535-9.63-18.122-1.6-24.708,5.189-4.257,12.674-1.961,18.783-1.917,1.289,2.112,2.556,4.235,3.661,6.5,1.581,3.2,2.708,6.6,4.463,9.749a87.122,87.122,0,0,0,5.7,8.536A40.837,40.837,0,0,0,45.658,67.1c4.766,4.04,10.832,6.109,17,4.333,5.308-1.506,10.074-5.514,11.677-10.908C76.161,54.278,73.724,47.659,70.724,42.243Zm-52.395-30.7A6.922,6.922,0,0,1,20.582,7c1.506-1.581-.054-4.17-1.3-5.752,1.376-.357,2.708-.379,3.466,1.17.4.856.953,1.9,2.058,1.841a5.416,5.416,0,0,0,1.6-.617A7.192,7.192,0,0,1,28.9,3.172a7.3,7.3,0,0,1,3.347.78A12.7,12.7,0,0,0,30.277,3.8a12.565,12.565,0,0,0-11.915,8.926,10.323,10.323,0,0,1-.033-1.181Zm55.2,44.78a14.58,14.58,0,0,1-9.261,13C58.4,71.815,52.2,70.407,47.294,66.583c-4.734-3.759-8.3-9.175-11.46-14.19A74.45,74.45,0,0,1,31.2,42.85a74.741,74.741,0,0,0-5.059-9.066c-3.369-5.416-6.5-10.735-7.582-16.952a.238.238,0,0,0,.108-.217q0-.374,0-.747a.509.509,0,0,0,.227-.368A11.385,11.385,0,0,1,31.057,5.187c6.228.563,10.55,5.828,14.407,10.171C52.764,23.58,61.495,30.675,67.6,39.9,70.789,44.7,73.659,50.411,73.529,56.325Z" transform="translate(0.012 -0.021)" style="mix-blend-mode: multiply;isolation: isolate"/>
        <path id="Контур_669" data-name="Контур 669" d="M51.92,39.5a.379.379,0,0,0-.639.368c.7,1.961,1.874,3.715,2.3,5.784s0,4.734-1.982,5.99c-2.166,1.376-4.333-.076-6.109-1.451a32.355,32.355,0,0,1-4.138-3.943,77.483,77.483,0,0,1-7.42-9.976c-2.275-3.6-2.6-7.853-4.571-11.58s-4.777-6.835-5.773-10.995a.218.218,0,1,0-.433.054c.162,4.17,3.076,7.474,4.972,10.984a35.746,35.746,0,0,1,2.491,7.214,21.9,21.9,0,0,0,3.206,6.283,68.394,68.394,0,0,0,8.763,11.005c2.654,2.524,6.651,5.958,10.215,3.033C56.73,49.029,54.639,42.8,51.92,39.5Z" transform="translate(1.939 1.1)" style="mix-blend-mode: multiply;isolation: isolate"/>
        <path id="Контур_670" data-name="Контур 670" d="M60.471,43.005c-.162-.195-.433.087-.282.282a10.42,10.42,0,0,1,2.026,4.105A3.065,3.065,0,0,1,61.2,50.317c-.444.531-.877,1.376-1.571,1.592a.282.282,0,0,0,0,.542c.921.292,1.365-.5,1.906-1.159a6.434,6.434,0,0,0,1.549-2.437C63.493,46.8,61.673,44.457,60.471,43.005Z" transform="translate(4.958 3.55)" style="mix-blend-mode: multiply;isolation: isolate"/>
        <path id="Контур_671" data-name="Контур 671" d="M61.717,60.541a4.03,4.03,0,0,0-1.549.357,3.25,3.25,0,0,0-1.2.812,2.838,2.838,0,0,0-.812,2.5.13.13,0,0,0,.249,0,3.553,3.553,0,0,1,1.43-2.34c.617-.4,1.744-.271,2.166-.942a.26.26,0,0,0-.282-.39Z" transform="translate(4.849 5.014)" style="mix-blend-mode: multiply;isolation: isolate"/>
        <path id="Контур_672" data-name="Контур 672" d="M3.2,40.348a5.546,5.546,0,0,0-.693,3.13A25.824,25.824,0,0,1,2,47.638a.347.347,0,0,0,.628.26,5.308,5.308,0,0,0,.682-3.163,31.078,31.078,0,0,1,.3-4.214.227.227,0,0,0-.412-.173Z" transform="translate(0.179 3.326)" style="mix-blend-mode: multiply;isolation: isolate"/>
        <path id="Контур_673" data-name="Контур 673" d="M26.272,51.7a4.528,4.528,0,0,0-1.538,0,4.614,4.614,0,0,1-3.055-.574,11.59,11.59,0,0,0-3.564-1.083c-2.676-.347-5.925,1.267-8.254-.477-.076-.054-.195.054-.141.141,1.657,2.242,4.679,1,6.987,1.029a12.522,12.522,0,0,1,5.351,1.538c1.387.65,2.708.206,4.16.087C26.576,52.323,26.717,51.76,26.272,51.7Z" transform="translate(0.821 4.1)" style="mix-blend-mode: multiply;isolation: isolate"/>
        <path id="Контур_674" data-name="Контур 674" d="M29.992,56.592a24.394,24.394,0,0,1-5.784,2.015,37.426,37.426,0,0,1-6.965.227.179.179,0,0,0,0,.357,33.839,33.839,0,0,0,7.149.076c1.95-.271,4.4-.812,5.849-2.253C30.382,56.851,30.209,56.483,29.992,56.592Z" transform="translate(1.434 4.684)" style="mix-blend-mode: multiply;isolation: isolate"/>
        <path id="Контур_675" data-name="Контур 675" d="M17.837,33.1c-3,1.083-6.369.8-9,2.762-.162.119,0,.4.162.282,2.621-1.841,6.088-1.365,9.012-2.437A.316.316,0,0,0,17.837,33.1Z" transform="translate(0.743 2.73)" style="mix-blend-mode: multiply;isolation: isolate"/>
      </g>
    </g>
    <g id="Layer_2" data-name="Layer 2" transform="translate(777.298 477.251)" opacity="0.12" style="mix-blend-mode: multiply;isolation: isolate">
      <g id="OBJECTS-6" data-name="OBJECTS" transform="translate(0 0)" style="mix-blend-mode: multiply;isolation: isolate">
        <path id="Контур_719" data-name="Контур 719" d="M33.967,15.465H32.454a.524.524,0,0,0-.05-.682,3.551,3.551,0,0,0-2.37-.457,11.433,11.433,0,0,0-1.829.158,2.12,2.12,0,0,0,.15-.233.491.491,0,0,0,0-.4c-.349-.665-1.364-.432-1.879-.441a11.641,11.641,0,0,0-1.987.166.765.765,0,0,0,0-.981c-.333-.416-1.056-.308-1.447-.324a7.641,7.641,0,0,0-1.53.1h0c0-.424-.216-.607-.466-.649a21.619,21.619,0,0,0,.516-2.495c0-.274-.125-.54-.349-.457a4.029,4.029,0,0,0-.466.191c.166-.765.333-1.522.491-2.295a.382.382,0,0,0-.183-.424c-.216-.108-.316.15-.466.108a16.039,16.039,0,0,1,0-2.046.308.308,0,0,0-.249-.333c-.141,0-.374.283-.407.274a10.073,10.073,0,0,1-.715-2.278c-.083-.283-.3-.3-.416-.075l-.249.5a14.244,14.244,0,0,1-1.089-2A.2.2,0,0,0,17.112.34a3.767,3.767,0,0,0-.457.723L16.006.082c-.1-.15-.266-.091-.341.058a7.242,7.242,0,0,0-.748,2.495,4.083,4.083,0,0,0-.607-.374c-.133-.067-.266.1-.266.274a20.588,20.588,0,0,0,.191,2.819,2.7,2.7,0,0,0-.565-.2.225.225,0,0,0-.249.258,19.49,19.49,0,0,0,.324,2.677l-.732-.482c-.15-.1-.291.067-.266.274.058.54.15,1.064.258,1.58a2.894,2.894,0,0,0-2.2-1.147c-.141,0-.266.2-.225.382v.158A14.086,14.086,0,0,0,8.548,7.192c-.15-.1-.308,0-.316.241l-.05.832q-.291.374-.507-.075a4.158,4.158,0,0,1-.532-.5A8.706,8.706,0,0,0,5.571,6.651c-.166-.083-.316.166-.274.366a7.808,7.808,0,0,1,.125,1C4.49,7.092,3.609,6.1,2.736,5.088c-.141-.166-.366-.108-.416.15-.166.773.341,1.322-.474,1.779a8.315,8.315,0,0,0-1.738.965c-.15.133-.158.516.058.565.474.116,1.663.333,1.305,1.289-.125.382-.491.482-.565.965A1.006,1.006,0,0,0,1,11.474c.116.2,1.447.89.657,1.33-.208.116-.266.549,0,.64a6.477,6.477,0,0,1,1.912,1.147,4.989,4.989,0,0,0-.956.965.4.4,0,0,0,.116.582,24.769,24.769,0,0,1,2.885,1.206,9.188,9.188,0,0,1-.565,1.347.4.4,0,0,0,.158.524,8.814,8.814,0,0,0,2.495.333c-.05.191-.091.382-.133.59s.042.432.2.457a6.478,6.478,0,0,0,1.754.125,1.987,1.987,0,0,1-.108.291A10.136,10.136,0,0,1,7.9,22.8c-.141.183-.091.59.125.64l.216.05q-.607,1.455-1.272,2.835a.391.391,0,0,0,.216.549c-.216.532-.516.965-.707,1.522a1.314,1.314,0,0,0-.125.832c.175.7.832.632,1.239.549a10.577,10.577,0,0,0,1.754-.5,4.423,4.423,0,0,1,.89-.358c.316,0,.549.283.832.349.74.175,1.372-1,1.921-1.53.116-.116.382-.4.474-.391s.225.216.316.249c.266.091.466-.075.674-.266a10.036,10.036,0,0,0,1.006-1.447c.191-.266.441-.765.715-.757s.191.158.333.2a.565.565,0,0,0,.482-.05c.283,1.455,1.73,1.663,2.719,1.846a5.8,5.8,0,0,0,.931,0c.308,0,.757.225,1.156.241.965.05,1.9-.449,2.869-.274a.333.333,0,0,0,.382-.382v-.191l2.112-.457a5.987,5.987,0,0,0,1.9-.441c.6-.374.424-1,.175-1.588,1.089-.116,2.544-.274,3.268-1.222a1.1,1.1,0,0,0-.216-1.505,2.27,2.27,0,0,0,.956-1.555,2.212,2.212,0,0,0-.241-1.405,3.825,3.825,0,0,0,1.347-2.361C34.349,15.748,34.183,15.465,33.967,15.465ZM13.944,8.813c.15.1.341-.067.291-.291a18.426,18.426,0,0,1-.391-2.777,1.921,1.921,0,0,1,.557.283c.158.1.333-.067.3-.308a19.183,19.183,0,0,1-.233-2.727,2.744,2.744,0,0,1,.507.4c.15.133.308-.05.324-.249a6.71,6.71,0,0,1,.582-2.37l.682,1a.191.191,0,0,0,.349-.058,3.675,3.675,0,0,1,.349-.674A14.742,14.742,0,0,0,18.418,3.1c.1.15.283.091.358-.058l.166-.324a9.088,9.088,0,0,0,.69,2.2.241.241,0,0,0,.274.15.432.432,0,0,0,.183-.15v1.48a1.421,1.421,0,0,0,.1.657.282.282,0,0,0,.441,0l-.549,2.411c-.075.341.2.54.407.416a4.647,4.647,0,0,1,.449-.225,21.287,21.287,0,0,1-.574,2.353c-.083.283.166.549.358.474.449-.175-.341.657-.449.832-.291.366-.582.715-.881,1.056a.341.341,0,0,0-.067.125,9.9,9.9,0,0,1-1.289-.782,1.9,1.9,0,0,0-1.064-.407c-.432,0-.674.358-1.064.507-.832.316-1.372-.349-2.046-.89a9.3,9.3,0,0,0-1-.69c-.075-.466-.125-.931-.158-1.405l.765.316c.116.05.274-.125.216-.291a15.483,15.483,0,0,1-.54-2.578Zm6.062,7.043a18.07,18.07,0,0,1,1.663,2.228,1.779,1.779,0,0,0-.782,1.414c0,.507.2.832-.3.931a5.654,5.654,0,0,1-1.763-.565.225.225,0,0,0-.249.091l-2.021-1.048c-.175-.091-.3.083-.333.291a7.334,7.334,0,0,0-1.547-1.123,4.235,4.235,0,0,0-2.253.075,2.4,2.4,0,0,1,.3-.407.349.349,0,0,0-.1-.5A5.222,5.222,0,0,0,9.978,16.7a1.422,1.422,0,0,1,.374-.349.333.333,0,0,0-.05-.524,5.047,5.047,0,0,0-2.137-.308A3.85,3.85,0,0,1,9,14.3a.349.349,0,0,0-.1-.507l-.191-.083a4.44,4.44,0,0,1,2.253-.773.274.274,0,0,0,.233-.249,3.384,3.384,0,0,1,.89,0h0a29.526,29.526,0,0,1,2.495,1.771A1.322,1.322,0,0,0,16,14.65c.474-.233.832-.64,1.38-.491a4.157,4.157,0,0,1,1.056.632,2.037,2.037,0,0,0,1.721.474.432.432,0,0,0-.15.624Zm-11.857,4.1a4.266,4.266,0,0,1,.158-.565c.075-.233,0-.557-.233-.54a8.315,8.315,0,0,1-2.361-.191A10.452,10.452,0,0,0,6.22,17.27a.391.391,0,0,0-.183-.441A25.305,25.305,0,0,0,3.326,15.64a4.158,4.158,0,0,1,.881-.715c.183-.108.15-.457,0-.582A8.881,8.881,0,0,0,2.253,13a1.347,1.347,0,0,0,.158-.931,1.289,1.289,0,0,0-.283-.615c-.291-.324-.765-.116-.5-.956.166-.516.674-.649.457-1.364A1.763,1.763,0,0,0,.831,8.106a4.1,4.1,0,0,1,1.1-.516A1.422,1.422,0,0,0,2.611,7.3c.416-.416.249-.832.166-1.247.873,1,1.8,1.912,2.727,2.81.141.141.333-.05.333-.258A8.149,8.149,0,0,0,5.82,7.416,7.866,7.866,0,0,1,7.259,8.447c.241.216.632.832.948.881.516,0,.532-.832.532-1.43a12.373,12.373,0,0,1,2.237,2.029c.158.183.457,0,.382-.291l-.166-.657a3.1,3.1,0,0,1,1.8,1.106.133.133,0,0,0,.166.042l.1.424c-.233-.116-.457-.233-.7-.341s-.274.091-.258.266a11.924,11.924,0,0,0,.175,1.563l-.233-.133a.2.2,0,0,0-.274.075,2.852,2.852,0,0,0-1.53.183.291.291,0,0,0-.158.191,5.613,5.613,0,0,0-2.345,1.139.382.382,0,0,0,.058.607l.366.133A4.914,4.914,0,0,0,7.633,15.7c-.058.175,0,.457.183.432a4.656,4.656,0,0,1,1.937.108,2.885,2.885,0,0,0-.4.649c-.083.175,0,.457.191.432a4.989,4.989,0,0,1,2.644.358l-.125.2a1.405,1.405,0,0,0-2.137.649,3.7,3.7,0,0,0-.316,1.43H9.546a6.261,6.261,0,0,1-1.4,0ZM17.162,24c-.158.208-.457.482-.682.474-.067,0-.15-.141-.216-.141a.723.723,0,0,0-.382.067c-.682.358-1.048,1.6-1.613,2.17s-.557-.091-1.048.125c-.7.316-1.131,1.372-1.829,1.663-.4.158-.308,0-.665-.116a1.405,1.405,0,0,0-.89.15c-.416.158-.832.341-1.256.474-.249.075-1.189.491-1.405.316-.382-.324.141-1,.283-1.314a8.19,8.19,0,0,0,.424-1.256.391.391,0,0,0-.183-.449c.432-.915.832-1.838,1.239-2.777.083-.2,0-.516-.175-.557h0a5.105,5.105,0,0,0,1.172-1.563,4.474,4.474,0,0,0,.225-1.214c.15-1.264.832-2.1,1.663-1.663a.316.316,0,0,0,.208.432c.981.15,1.879-.449,2.819.183.632.424,1.172,1.031,1.829,1.4.208.116.349-.175.333-.416l1.206.615a6.145,6.145,0,0,1-1.048,3.368Zm15.025-6.07a.524.524,0,0,0,0,.757c1.114.64-.191,2-.74,2.27a.466.466,0,0,0,0,.832c1.247.574-.308,1.073-.832,1.239a11.134,11.134,0,0,1-2,.382.424.424,0,0,0-.266.607c.175.391.449.682.233,1.023-.133.216-1.114.241-1.339.291l-2.686.582a.4.4,0,0,0-.225.391v.083a4.74,4.74,0,0,0-1.222.116,5.671,5.671,0,0,1-2.212,0c-.832-.133-3.326.108-3.434-1.472a.491.491,0,0,0-.067-.208c.108-.175.2-.366.3-.54a7.525,7.525,0,0,0,1.073-3.326h0c.125.067.233,0,.291-.15.449.15.9.3,1.355.432a1.863,1.863,0,0,0,.482.108c.715.657,1.256,1.6,2.012,2.2a3.659,3.659,0,0,0,2.295.832c.216,0,.225-.374.05-.474a12.4,12.4,0,0,1-2.445-1.214c-.54-.466-1.048-.99-1.58-1.463.216-.175.2-.374.266-.64s-.05-.324,0-.474a2.5,2.5,0,0,1,.3-1.014.266.266,0,0,0,.125.15,4.315,4.315,0,0,0,1.189.424,4.3,4.3,0,0,0,1.663,2.495,3.442,3.442,0,0,0,2.669.565c.225-.067.208-.5,0-.582-.757-.308-1.563-.241-2.312-.624a4.158,4.158,0,0,1-1.854-1.912,8.041,8.041,0,0,0,2.495-.067c.948,1.281,2.944,2.594,4.158,1.447a.3.3,0,0,0-.108-.516,13.3,13.3,0,0,1-2-.05,3.767,3.767,0,0,1-1.588-.965h.15q1.048-.183,2.1-.457a6.02,6.02,0,0,0,2.145-.748.457.457,0,0,0,.158-.366v-.1c0-.291-.216-.441-.416-.316h0a.208.208,0,0,0-.058.067,5.214,5.214,0,0,1-1.6.532,22.143,22.143,0,0,1-2.17.549h-.075l.333-.166.832-.407a4.158,4.158,0,0,1,1.089-.557c.283,0,.349-.549.067-.665-.482-.2-1.389.582-1.838.832a19.815,19.815,0,0,0-2,1.239,5.9,5.9,0,0,1-2.777-.258l.125-.091c.175-.108.158-.416.058-.582a18.4,18.4,0,0,0-1.7-2.353.881.881,0,0,0-.116-.832.632.632,0,0,0-.54-.216,14.034,14.034,0,0,0,1.123-1.339c.075-.1.158-.2.233-.308a16.206,16.206,0,0,1,1.738,0c.175,0,.832-.05.832.233,0,.091-.624.615-.665.657-.258.258-.108.773.216.69a11.973,11.973,0,0,1,2.835-.358,4.657,4.657,0,0,1,1.181,0l-.083.125-.474.466c-.274.266-.116.832.233.723a11.483,11.483,0,0,1,2.495-.349,7.575,7.575,0,0,1,1.713.05l-.432.233c-.333.158-.291.832.083.832l2.436.1a2.869,2.869,0,0,1-1.256,1.58Z" transform="translate(0.001 0.005)" style="mix-blend-mode: multiply;isolation: isolate"/>
        <path id="Контур_720" data-name="Контур 720" d="M15.682,18.68l-.9-.582c-.067-.382-.2-.74-.291-1.123s-.091-.7-.308-.89c-.067-.058-.166,0-.208.075a1.58,1.58,0,0,0,.1,1.073,4.582,4.582,0,0,0,.216.565L14.2,17.74a6.985,6.985,0,0,0-1.405-.832c-.175-.05-.283.208-.166.391a3.16,3.16,0,0,0,1.3.965A16.548,16.548,0,0,0,15.59,19C15.723,19.07,15.815,18.779,15.682,18.68Z" transform="translate(-2.119 -2.702)" style="mix-blend-mode: multiply;isolation: isolate"/>
        <path id="Контур_721" data-name="Контур 721" d="M23.351,21.615a5.87,5.87,0,0,0-1.738-.773h0a4.874,4.874,0,0,1,.557-.266c.191-.067.665-.141.832-.474a.225.225,0,0,0,0-.283c-.316-.249-.715,0-1.023.141a2.744,2.744,0,0,0-.948.682c-.482-.15-.965-.266-1.455-.4a.139.139,0,0,0-.05.258c.665.358,1.3.748,1.987,1.039a4.241,4.241,0,0,0,1.721.574C23.442,22.105,23.517,21.781,23.351,21.615Z" transform="translate(-3.278 -3.317)" style="mix-blend-mode: multiply;isolation: isolate"/>
        <path id="Контур_722" data-name="Контур 722" d="M21.472,8.407c-.358.457-.574,1.081-.948,1.53a4.731,4.731,0,0,1-.615.615,6.67,6.67,0,0,1-.574.5c0-.274.05-.54.067-.832a15.707,15.707,0,0,0,1.089-2.395,4.989,4.989,0,0,0,.424-2.1.13.13,0,0,0-.233-.083,7.093,7.093,0,0,0-.6,1.954c-.183.665-.382,1.322-.607,1.971a33.393,33.393,0,0,0-.116-4.44c0-.374-.416-.382-.441,0-.133,1.879.05,3.825.05,5.746-.075-.166-.158-.341-.225-.516a8.855,8.855,0,0,0-.482-1.305c-.091-.158-.274,0-.283.158a3.933,3.933,0,0,0,.948,2.42,14.668,14.668,0,0,1-.249,2.428c0,.166.158.241.2.075.158-.723.283-1.463.382-2.22a.158.158,0,0,0,.058-.191v-.432a2.594,2.594,0,0,0,.665-.191,3.326,3.326,0,0,0,.832-.665,3.326,3.326,0,0,0,.923-1.871C21.755,8.365,21.564,8.3,21.472,8.407Z" transform="translate(-3.029 -0.811)" style="mix-blend-mode: multiply;isolation: isolate"/>
        <path id="Контур_723" data-name="Контур 723" d="M21.532,12.99c-.308.274-.549.657-.832.931a2.578,2.578,0,0,1-1.106.624c-.133,0-.075.308.058.274a2.5,2.5,0,0,0,2.1-1.663C21.773,12.99,21.624,12.874,21.532,12.99Z" transform="translate(-3.288 -2.177)" style="mix-blend-mode: multiply;isolation: isolate"/>
        <path id="Контур_724" data-name="Контур 724" d="M16.5,24.058c-.116-.258-.358-.69-.615-.748v-.382c0-.133-.241-.258-.291-.05a11.275,11.275,0,0,1-2.611,4.856c-1.014,1.181-2.337,2.021-3.26,3.326-.116.166,0,.491.175.407a12.583,12.583,0,0,0,3.792-3.617,13.57,13.57,0,0,0,1.405-2.112,6.494,6.494,0,0,1-.141,1.48c-.133.615-.424,1.131-.557,1.738,0,.175.125.382.249.258.832-.832.9-2.736.69-4a6.735,6.735,0,0,0,.432-1.339,4.258,4.258,0,0,1,.3.5c.15.382.141.832.274,1.206a.166.166,0,0,0,.316,0A2.054,2.054,0,0,0,16.5,24.058Z" transform="translate(-1.629 -3.832)" style="mix-blend-mode: multiply;isolation: isolate"/>
        <path id="Контур_725" data-name="Контур 725" d="M14.716,25.53a3.226,3.226,0,0,0-3.01,1.771c-.083.233.091.466.266.349.416-.283.74-.773,1.156-1.081a3.434,3.434,0,0,1,1.588-.7C14.874,25.846,14.882,25.522,14.716,25.53Z" transform="translate(-1.968 -4.297)" style="mix-blend-mode: multiply;isolation: isolate"/>
        <path id="Контур_726" data-name="Контур 726" d="M8.264,14.452a11.491,11.491,0,0,1-2.337-1.663,8.074,8.074,0,0,0-2.112-1.031c-.175-.058-.291.216-.166.391.557.832,1.538.923,2.253,1.43a9.047,9.047,0,0,0,2.245,1.43C8.414,15.109,8.53,14.569,8.264,14.452Z" transform="translate(-0.605 -1.976)" style="mix-blend-mode: multiply;isolation: isolate"/>
        <path id="Контур_727" data-name="Контур 727" d="M9.039,11.565a1.829,1.829,0,0,0-.283-.956.15.15,0,0,0-.266.091,2.536,2.536,0,0,0,.125.873A6.952,6.952,0,0,1,8.747,12.7c0,.3.358.308.358,0A9.021,9.021,0,0,0,9.039,11.565Z" transform="translate(-1.43 -1.774)" style="mix-blend-mode: multiply;isolation: isolate"/>
        <path id="Контур_728" data-name="Контур 728" d="M6.3,16.2l-.457-.133c-.258-.075-.349.391-.108.516l.441.225c.116.058.258-.067.291-.216A.341.341,0,0,0,6.3,16.2Z" transform="translate(-0.941 -2.702)" style="mix-blend-mode: multiply;isolation: isolate"/>
        <path id="Контур_729" data-name="Контур 729" d="M30.08,17.84c-.582,0-1.156.732-1.563,1.239a6.86,6.86,0,0,0-1.239,2.22c-.05.158.091.349.191.2a16.8,16.8,0,0,1,1.339-1.863c.441-.5,1.073-.832,1.414-1.447C30.3,18.04,30.2,17.832,30.08,17.84Z" transform="translate(-4.594 -3.002)" style="mix-blend-mode: multiply;isolation: isolate"/>
        <path id="Контур_730" data-name="Контур 730" d="M17.257,19.081a2.636,2.636,0,0,0,.042.657.108.108,0,0,0-.125,0,2.927,2.927,0,0,0-.715.308c-.249.191,0,.707.225.516a3.218,3.218,0,0,1,.565-.432.208.208,0,0,0,.108-.208.349.349,0,0,0,.1.125.083.083,0,0,0,.125,0,.773.773,0,0,0,.1-.407v-.524C17.723,18.69,17.274,18.682,17.257,19.081Z" transform="translate(-2.755 -3.162)" style="mix-blend-mode: multiply;isolation: isolate"/>
      </g>
    </g>
  </g>
</svg>
