<svg xmlns="http://www.w3.org/2000/svg" width="148.018" height="135.989" viewBox="0 0 148.018 135.989">
  <g id="_3" data-name="3" transform="translate(-1011 -2432.896)">
    <g id="bG">
      <path id="Контур_2197" data-name="Контур 2197" d="M1486.417,2804.435s-45.918-12.066-32.755-48.812,41.133-20.841,48.812-43.875,51.554-40.585,59.78-18.647,68.555,98.171,15.356,118.464S1486.417,2804.435,1486.417,2804.435Z" transform="translate(-440.29 -250.16)" fill="#efbdae"/>
      <path id="Пересечение_12" data-name="Пересечение 12" d="M-415.873,121.379a61.186,61.186,0,0,1-7.715-2.775h113.764c-3.421,4.02-8.268,7.391-14.857,9.9a109.791,109.791,0,0,1-39.327,7.481C-395.634,135.991-415.873,121.379-415.873,121.379Z" transform="translate(1462 2432.896)" fill="#262626"/>
    </g>
    <g id="delivery-man" transform="translate(1030.052 2443.756)" opacity="0.9">
      <g id="Сгруппировать_453" data-name="Сгруппировать 453" transform="translate(1.673 47.991)">
        <path id="Контур_2159" data-name="Контур 2159" d="M406.483,229.078H378.33v9.78a4.4,4.4,0,0,0,4.39,4.393h10.126l6.04,3.051,7.6-3.051Z" transform="translate(-378.33 -229.078)" fill="#ffe07d" fill-rule="evenodd"/>
      </g>
      <g id="Сгруппировать_454" data-name="Сгруппировать 454" transform="translate(16.189 62.164)">
        <path id="Контур_2160" data-name="Контур 2160" d="M241.854,292.6H228.217v6.273a2.742,2.742,0,0,0,2.732,2.734h44.4c0-3.944,0-5.95-3.017-5.95l-6.009-.006c-3.782-.006-6.262-.975-7.647-3.051Z" transform="translate(-228.217 -292.596)" fill="#6f6571" fill-rule="evenodd"/>
      </g>
      <g id="Сгруппировать_455" data-name="Сгруппировать 455" transform="translate(15.783 71.172)">
        <path id="Контур_2161" data-name="Контур 2161" d="M188.129,332.965H149.084c-2.29,3.988-4.13,8.78-2.543,17.946,2.657-9.039,29.639-5.431,32.409,5h29.772c1.126-2.551,2.188-5.071,3.118-7.615h-8.393C186.472,341.891,191.93,344.745,188.129,332.965Z" transform="translate(-145.946 -332.965)" fill="#ffe07d" fill-rule="evenodd"/>
      </g>
      <g id="Сгруппировать_456" data-name="Сгруппировать 456" transform="translate(39.964 23.541)">
        <path id="Контур_2162" data-name="Контур 2162" d="M257.316,142.628a63.7,63.7,0,0,1-2.258,8.653l-8.583,3.363-9.57-3.363c.335-18.11,7.1-26.8,12.859-29.606a13.971,13.971,0,0,1,4.2-2.175s2.8,4.472,2.941,4.472a24.021,24.021,0,0,1,1.41,9.5Z" transform="translate(-236.905 -119.501)" fill="#eceaec" fill-rule="evenodd"/>
      </g>
      <g id="Сгруппировать_457" data-name="Сгруппировать 457" transform="translate(39.934 55.321)">
        <path id="Контур_2163" data-name="Контур 2163" d="M209.784,261.929h18.153c4.181.456,9.323,3.64,9.323,13.5v10.337h-9.475V277.78c0-3.944,0-5.95-3.017-5.95l-6.009-.006c-3.782-.006-6.262-.975-7.647-3.051C210.044,267.17,209.633,264.91,209.784,261.929Z" transform="translate(-209.754 -261.929)" fill="#ff8086" fill-rule="evenodd"/>
      </g>
      <g id="Сгруппировать_458" data-name="Сгруппировать 458" transform="translate(39.964 25.715)">
        <path id="Контур_2164" data-name="Контур 2164" d="M262.507,158.853c.335-18.11,7.1-26.8,12.859-29.606a11.622,11.622,0,0,0,2.846,1.462c-5.1,3.855-10.208,12.47-10.5,28.144Z" transform="translate(-262.507 -129.247)" fill="#dad8db" fill-rule="evenodd"/>
      </g>
      <g id="Сгруппировать_459" data-name="Сгруппировать 459" transform="translate(39.934 55.321)">
        <path id="Контур_2165" data-name="Контур 2165" d="M285.752,261.929h5.206c-.152,2.982.259,5.241,1.328,6.843a7.819,7.819,0,0,0,3.991,3.051h-1.55c-3.782-.006-6.262-.975-7.647-3.051C286.012,267.17,285.6,264.91,285.752,261.929Z" transform="translate(-285.722 -261.929)" fill="#f76672" fill-rule="evenodd"/>
      </g>
      <g id="Сгруппировать_460" data-name="Сгруппировать 460" transform="translate(1.673 33.799)">
        <path id="Контур_2166" data-name="Контур 2166" d="M402.093,165.474H382.719a4.4,4.4,0,0,0-4.389,4.393v7.267h28.152v-7.267A4.4,4.4,0,0,0,402.093,165.474Z" transform="translate(-378.33 -165.474)" fill="#ffe07d" fill-rule="evenodd"/>
      </g>
      <g id="Сгруппировать_461" data-name="Сгруппировать 461" transform="translate(1.673 43.269)">
        <path id="Контур_2167" data-name="Контур 2167" d="M406.483,207.914H378.33v6.906h28.153Z" transform="translate(-378.33 -207.914)" fill="#ff8086" fill-rule="evenodd"/>
      </g>
      <g id="Сгруппировать_462" data-name="Сгруппировать 462" transform="translate(1.673 33.799)">
        <path id="Контур_2168" data-name="Контур 2168" d="M464.37,174.944h-5.876v-5.077a4.4,4.4,0,0,1,4.389-4.393h5.876a4.4,4.4,0,0,0-4.389,4.393Z" transform="translate(-458.494 -165.474)" fill="#ffc269" fill-rule="evenodd"/>
      </g>
      <g id="Сгруппировать_463" data-name="Сгруппировать 463" transform="translate(1.673 43.269)">
        <path id="Контур_2169" data-name="Контур 2169" d="M484.042,214.82h-5.876v-6.906h5.876v6.906Z" transform="translate(-478.166 -207.914)" fill="#f76672" fill-rule="evenodd"/>
      </g>
      <g id="Сгруппировать_464" data-name="Сгруппировать 464" transform="translate(1.673 50.175)">
        <path id="Контур_2170" data-name="Контур 2170" d="M464.37,238.865v7.6a4.4,4.4,0,0,0,4.389,4.393h-5.876a4.388,4.388,0,0,1-4.39-4.393v-7.6h5.876Z" transform="translate(-458.494 -238.865)" fill="#ffc269" fill-rule="evenodd"/>
      </g>
      <g id="Сгруппировать_465" data-name="Сгруппировать 465" transform="translate(15.65 77.299)">
        <path id="Контур_2171" data-name="Контур 2171" d="M326.485,377.246a16.551,16.551,0,0,0-32.41-5,16.977,16.977,0,0,0-.727,4.469c-.019.608.4.532.968.532Q310.4,377.246,326.485,377.246Z" transform="translate(-293.347 -360.427)" fill="#ff8086" fill-rule="evenodd"/>
      </g>
      <g id="Сгруппировать_466" data-name="Сгруппировать 466" transform="translate(19.395 94.118)">
        <path id="Контур_2172" data-name="Контур 2172" d="M337.252,435.8H312.028a12.619,12.619,0,0,0,25.224,0Z" transform="translate(-312.028 -435.804)" fill="#6f6571" fill-rule="evenodd"/>
      </g>
      <g id="Сгруппировать_467" data-name="Сгруппировать 467" transform="translate(86.972 91.428)">
        <path id="Контур_2173" data-name="Контур 2173" d="M45.382,423.747l-21.7,4.994a11.134,11.134,0,1,0,21.7-4.994Z" transform="translate(-23.681 -423.747)" fill="#6f6571" fill-rule="evenodd"/>
      </g>
      <g id="Сгруппировать_468" data-name="Сгруппировать 468" transform="translate(82.69 78.775)">
        <path id="Контур_2174" data-name="Контур 2174" d="M35.112,373.611a15.147,15.147,0,0,0-13.959-6.495c-9.817,2.076-13.011,7.944-13.649,15.262a15.152,15.152,0,0,0,.335,2.994c.063.278.247.165.55.1l3.4-.779,21.7-4.994,1.626-.374,2.271-.526A15.023,15.023,0,0,0,35.112,373.611Z" transform="translate(-7.503 -367.041)" fill="#eceaec" fill-rule="evenodd"/>
      </g>
      <g id="Сгруппировать_469" data-name="Сгруппировать 469" transform="translate(76.378 46.725)">
        <path id="Контур_2175" data-name="Контур 2175" d="M100.135,255.5,91.368,225.17,87.421,223.4l-4.415,1.766c5.8,16.079,4.181,27.3.266,38.012-.936,2.545-2,5.064-3.118,7.615H86.46Z" transform="translate(-80.154 -223.404)" fill="#ff8086" fill-rule="evenodd"/>
      </g>
      <g id="Сгруппировать_470" data-name="Сгруппировать 470" transform="translate(54.898 12.289)">
        <path id="Контур_2176" data-name="Контур 2176" d="M213.126,71.266l-10.284-2.19c-1.044.1-4.029,2.6-4.029,4.171L201,84.376a10.047,10.047,0,0,0,2.878.424,9.944,9.944,0,0,0,9.247-13.534Z" transform="translate(-198.812 -69.076)" fill="#ffece4" fill-rule="evenodd"/>
      </g>
      <g id="Сгруппировать_471" data-name="Сгруппировать 471" transform="translate(47.485 1.674)">
        <path id="Контур_2177" data-name="Контур 2177" d="M211.982,34.307a12.527,12.527,0,1,0-25.047,0c0,4.672,1.9,8.824,5.338,11.236a11.945,11.945,0,0,0,4.263,1.874V36.288c0-1.57.8-1.886,1.841-1.981h13.605Z" transform="translate(-186.935 -21.501)" fill="#ff8086" fill-rule="evenodd"/>
      </g>
      <g id="Сгруппировать_472" data-name="Сгруппировать 472" transform="translate(47.485 1.674)">
        <path id="Контур_2178" data-name="Контур 2178" d="M232.77,23.394a12.222,12.222,0,0,0-6.553-1.893,12.662,12.662,0,0,0-12.524,12.806c0,4.672,1.9,8.824,5.338,11.236a11.618,11.618,0,0,0,2.9,1.481,14.566,14.566,0,0,1-3.922-10.35,13.244,13.244,0,0,1,13.093-13.388,12.089,12.089,0,0,1,1.664.108Z" transform="translate(-213.694 -21.501)" fill="#f76672" fill-rule="evenodd"/>
      </g>
      <g id="Сгруппировать_473" data-name="Сгруппировать 473" transform="translate(57.965 79.16)">
        <path id="Контур_2179" data-name="Контур 2179" d="M192.972,368.767H183.5v5.969c0,1.279.7,1.374,1.72,1.374h13.6C199.088,370.122,195.464,368.767,192.972,368.767Z" transform="translate(-183.497 -368.767)" fill="#6f6571" fill-rule="evenodd"/>
      </g>
      <g id="Сгруппировать_474" data-name="Сгруппировать 474" transform="translate(76.377 48.491)">
        <path id="Контур_2180" data-name="Контур 2180" d="M123.039,269.331c3.915-10.711,5.534-21.934-.266-38.012h4.459c5.8,16.078,4.187,27.3.266,38.012-.93,2.545-1.992,5.064-3.118,7.615h-4.459C121.041,274.4,122.1,271.876,123.039,269.331Z" transform="translate(-119.921 -231.319)" fill="#f76672" fill-rule="evenodd"/>
      </g>
      <g id="Сгруппировать_475" data-name="Сгруппировать 475" transform="translate(82.69 78.776)">
        <path id="Контур_2181" data-name="Контур 2181" d="M61.614,382.38l13.649-15.262a14.914,14.914,0,0,1,4.156.165L66.3,381.949a15.1,15.1,0,0,0,.259,2.589l-.664.152-3.4.778c-.3.07-.487.184-.55-.1a15.1,15.1,0,0,1-.335-2.994Z" transform="translate(-61.614 -367.044)" fill="#dad8db" fill-rule="evenodd"/>
      </g>
      <g id="Сгруппировать_476" data-name="Сгруппировать 476" transform="translate(15.783 71.172)">
        <path id="Контур_2182" data-name="Контур 2182" d="M255.355,332.965H294.4V336.4h-32.08c-2.612,0-3.852,1.127-4.87,3.412a15.85,15.85,0,0,0-1.3,5.02,16.779,16.779,0,0,0-3.34,6.077C251.225,341.745,253.065,336.953,255.355,332.965Z" transform="translate(-252.217 -332.965)" fill="#ffc269" fill-rule="evenodd"/>
      </g>
      <g id="Сгруппировать_477" data-name="Сгруппировать 477" transform="translate(15.65 77.299)">
        <path id="Контур_2183" data-name="Контур 2183" d="M355.384,366.168a16.436,16.436,0,0,1,12.5-5.741,16.763,16.763,0,0,1,3.637.4A16.708,16.708,0,0,0,358.6,376.714c-.013.418.177.513.481.532h-6.793c-.569,0-.987.076-.968-.532a16.973,16.973,0,0,1,.727-4.469c.013-.044.025-.082.038-.12v-.006a16.792,16.792,0,0,1,3.3-5.95Z" transform="translate(-351.316 -360.427)" fill="#f76672" fill-rule="evenodd"/>
      </g>
      <g id="Сгруппировать_478" data-name="Сгруппировать 478" transform="translate(86.972 91.428)">
        <path id="Контур_2184" data-name="Контур 2184" d="M24.341,428.589l21.037-4.842a11.065,11.065,0,0,1,.278,2.969l-16.7,3.842-.658.152a11.068,11.068,0,0,0,4.288,6.507,11.126,11.126,0,0,1-8.912-8.476Z" transform="translate(-23.676 -423.747)" fill="#5d5360" fill-rule="evenodd"/>
      </g>
      <g id="Сгруппировать_479" data-name="Сгруппировать 479" transform="translate(19.396 94.118)">
        <path id="Контур_2185" data-name="Контур 2185" d="M316.043,435.8h21.208a13.093,13.093,0,0,1-.778,3.8H317.682a13.04,13.04,0,0,0,3.093,7.786,12.879,12.879,0,0,1-8.747-11.59Z" transform="translate(-312.027 -435.804)" fill="#5d5360" fill-rule="evenodd"/>
      </g>
      <g id="Сгруппировать_480" data-name="Сгруппировать 480" transform="translate(16.189 62.164)">
        <path id="Контур_2186" data-name="Контур 2186" d="M388.79,298.869V292.6h8.57v6.273a2.742,2.742,0,0,0,2.732,2.734h-8.57A2.742,2.742,0,0,1,388.79,298.869Z" transform="translate(-388.79 -292.596)" fill="#5d5360" fill-rule="evenodd"/>
      </g>
      <g id="Сгруппировать_481" data-name="Сгруппировать 481" transform="translate(57.086 14.479)">
        <path id="Контур_2187" data-name="Контур 2187" d="M211.784,81.43h-8.45c-1.044.1-1.841.418-1.841,1.988v9A10.149,10.149,0,0,1,199.039,92V80.872c0-1.57.8-1.886,1.841-1.981h10.284A9.939,9.939,0,0,1,211.784,81.43Z" transform="translate(-199.039 -78.891)" fill="#ffddce" fill-rule="evenodd"/>
      </g>
      <g id="Сгруппировать_482" data-name="Сгруппировать 482" transform="translate(77.355 38.522)">
        <path id="Контур_2188" data-name="Контур 2188" d="M112.6,187.059l-11.834,3.912c-.582.519.076,5.811.468,5.64H114.99V187.9C114.99,186.185,114.1,186.565,112.6,187.059Z" transform="translate(-100.535 -186.642)" fill="#ffe07d" fill-rule="evenodd"/>
      </g>
      <g id="Сгруппировать_483" data-name="Сгруппировать 483" transform="translate(70.59 42.408)">
        <path id="Контур_2189" data-name="Контур 2189" d="M152.964,210.139h5.983c3.213,0,3.308-5.33-.468-5.64l-5.515-.443-1.48,3.133Z" transform="translate(-151.483 -204.056)" fill="#ffece4" fill-rule="evenodd"/>
      </g>
      <g id="Сгруппировать_484" data-name="Сгруппировать 484" transform="translate(51.927 34.499)">
        <path id="Контур_2190" data-name="Контур 2190" d="M198.451,171.621l-1.98-1.7c-4.959-4.273-11.227,2.937-4.6,7.242l5.579,3.621,2.808,1.823h8.887V176.52l-5.522-.449Z" transform="translate(-189.003 -168.611)" fill="#ff8086" fill-rule="evenodd"/>
      </g>
      <g id="Сгруппировать_485" data-name="Сгруппировать 485" transform="translate(72.07 45.491)">
        <path id="Контур_2191" data-name="Контур 2191" d="M151.475,220.872v-2.95h7.811a2.462,2.462,0,0,0,.538-.051,2.475,2.475,0,0,1-2.366,3h-5.983Z" transform="translate(-151.475 -217.872)" fill="#ffddce" fill-rule="evenodd"/>
      </g>
      <g id="Сгруппировать_486" data-name="Сгруппировать 486" transform="translate(51.926 35.229)">
        <path id="Контур_2192" data-name="Контур 2192" d="M191.875,179.7c-4.01-2.608-3.3-6.273-1.018-7.818-.183,1.582.569,3.4,2.846,4.874l4.345,2.817,1.227.8,2.808,1.817h7.065v2.95h-8.887l-2.808-1.823Z" transform="translate(-189.004 -171.885)" fill="#f76672" fill-rule="evenodd"/>
      </g>
      <g id="Сгруппировать_487" data-name="Сгруппировать 487" transform="translate(77.586 41.281)">
        <path id="Контур_2193" data-name="Контур 2193" d="M134.852,200.576l4.763-1.57c1.594,1.709,2.366,5.039,1.341,7.21H135.32a2.475,2.475,0,0,0,2.366-3A2.968,2.968,0,0,0,134.852,200.576Z" transform="translate(-134.852 -199.006)" fill="#ffc269" fill-rule="evenodd"/>
      </g>
      <path id="Контур_2194" data-name="Контур 2194" d="M6.062,46.125H25.436A6.072,6.072,0,0,1,31.5,52.192v22.3h7.246a16.645,16.645,0,0,1-.454-5.2h0c.157-8.492,1.7-15.649,4.58-21.273a22.825,22.825,0,0,1,7.091-8.548,15.518,15.518,0,0,1-4.151-10.99,14.2,14.2,0,1,1,28.394,0,1.673,1.673,0,0,1-1.674,1.673H71.4a11.783,11.783,0,0,1,.16,1.929A11.62,11.62,0,0,1,62.22,43.464a28.205,28.205,0,0,1,.833,7.28l4.174,3.59,10.156.821L89.1,51.282c1.074-.357,2.291-.76,3.347,0a2.972,2.972,0,0,1,1.04,2.5v8.71a1.673,1.673,0,0,1-1.674,1.674H89.819l3.056,10.56a1.674,1.674,0,0,1-3.215.93l-3.325-11.49H81.576c5.917,18.045,2.541,30.09-2.649,42.28h3.008l12.53-14.01-2.649-9.153a1.674,1.674,0,0,1,3.215-.93l2.534,8.755A16.833,16.833,0,0,1,114.2,104.154a1.673,1.673,0,0,1-1.256,2.006l-2.376.547A12.8,12.8,0,0,1,85.824,112.4l-1.875.431a2.185,2.185,0,0,1-1.617-.09,1.921,1.921,0,0,1-.942-1.284,16.649,16.649,0,0,1-.27-1.666h-35a14.26,14.26,0,0,1-28.223,0H16.619l-.148,0h-.163a2.292,2.292,0,0,1-1.738-.631,2.145,2.145,0,0,1-.592-1.627A18.971,18.971,0,0,1,14.664,103c-1.333-8.093-.05-13.021,1.851-16.879a4.406,4.406,0,0,1-2-3.688v-4.6H6.063A6.072,6.072,0,0,1,0,71.771V52.192a6.071,6.071,0,0,1,6.063-6.066ZM92.8,115.951a9.386,9.386,0,0,0,7.138,1.2h0a9.482,9.482,0,0,0,7.331-9.686l-18.153,4.178A9.408,9.408,0,0,0,92.8,115.951Zm-8.374-6.664,26.032-5.99a13.477,13.477,0,0,0-13.324-8.829L84.386,108.726Q84.4,109.008,84.431,109.287ZM59.153,80.125a14.9,14.9,0,0,1,.486,5.047v6.315h6.128V82.823c0-9.8-5.346-11.541-7.745-11.829H41.615c.066,2.223.568,3.8,1.52,4.806,1.11,1.169,3.009,1.738,5.806,1.741l6.007.006c2.142,0,3.557.867,4.2,2.577Zm.486,14.709v4H71.573a4.769,4.769,0,0,0-1.154-2.862,4.129,4.129,0,0,0-2.979-1.134ZM41.689,67.648H56.908a62.489,62.489,0,0,0,1.6-6.194l-4.627-3c-2.526-1.64-3.84-3.958-3.605-6.359a5.917,5.917,0,0,1,3.686-4.844,6.041,6.041,0,0,1,5.617.619,19.759,19.759,0,0,0-.808-4.243,11.8,11.8,0,0,1-2.118-.418,13.864,13.864,0,0,1-3.906-1.548c-3.223,1.926-10.312,8.172-11.062,25.989ZM70.736,26.806a10.835,10.835,0,0,0-21.578,1.674c0,4.992,2.394,9.016,6.254,10.787V30.461a3.33,3.33,0,0,1,3.362-3.648q.076-.007.152-.007Zm-2.528,5.276a8.333,8.333,0,0,0-.223-1.929H59.009c-.1.011-.179.023-.233.034a1.99,1.99,0,0,0-.016.274v9.79a8.278,8.278,0,0,0,1.2.089h.011a8.261,8.261,0,0,0,8.236-8.258Zm2.17,25.866-3.964-.321a1.674,1.674,0,0,1-.957-.4L58.3,51.074h0a3.324,3.324,0,0,0-2.149-.9,2.576,2.576,0,0,0-2.543,2.245c-.11,1.131.634,2.277,2.1,3.226l7.971,5.174h6.7v-2.87Zm7.072.572-3.725-.3v2.6h4.329c.561,0,.7-.466.714-.858A1.329,1.329,0,0,0,77.45,58.519Zm3.961-1.155a4.834,4.834,0,0,1,.617,3.44s0,.009,0,.014h8.108V54.464L81.4,57.351Zm-3.367,6.8H63.184a1.673,1.673,0,0,1-.911-.27l-.758-.492c-.364,1.611-.779,3.178-1.231,4.658,3.413,1.007,8.83,4.263,8.83,14.762v8.832a6.984,6.984,0,0,1,3.725,2,8.163,8.163,0,0,1,2.092,5.174h3.376C81.709,89.025,83,78.592,78.044,64.164Zm-2.758,42.274c.619-1.422,1.215-2.84,1.776-4.262H59.686c-2.252,0-3.394-1.025-3.394-3.047V86.845H43.083a1.673,1.673,0,1,1,0-3.347h13.2a7.575,7.575,0,0,0-.257-2.187c-.085-.223-.158-.416-1.077-.416l-6.009-.006c-3.763,0-6.455-.914-8.23-2.783-.082-.087-.16-.177-.238-.268H17.862v4.6A1.074,1.074,0,0,0,18.921,83.5h16.66a1.673,1.673,0,1,1,0,3.347H19.9a19.758,19.758,0,0,0-2.442,10.337,18.162,18.162,0,0,1,27.662-2.16,18.436,18.436,0,0,1,5.261,11.423Zm-43.278,12.21a11.027,11.027,0,0,0,10.711-8.857H21.3A11.028,11.028,0,0,0,32.008,118.649ZM19.4,106.445H47.024A15.011,15.011,0,0,0,32.216,92.973a14.849,14.849,0,0,0-14.241,10.641c-.006.02-.012.039-.019.059a15.447,15.447,0,0,0-.552,2.773ZM3.346,71.771a2.721,2.721,0,0,0,2.716,2.72h22.09V65.848H3.346Zm0-9.27H28.152V58.942H3.346Zm0-6.906H28.152v-3.4a2.721,2.721,0,0,0-2.716-2.72H6.062a2.721,2.721,0,0,0-2.716,2.72Z" transform="translate(0 -14)"/>
    </g>
  </g>
</svg>
