<svg xmlns="http://www.w3.org/2000/svg" width="139.416" height="117.867" viewBox="0 0 139.416 117.867">
  <g id="_1" data-name="1" transform="translate(-235.483 -2453)">
    <path id="Bg" d="M522.825,858.8c28.948-18.641,89.477-40.352,115.794-17.544s-8.772,79.608-37.721,98.249-71.932,8.772-78.073-23.685S493.877,877.443,522.825,858.8Z" transform="translate(-273 1622)" fill="#efbdae"/>
    <g id="flour" transform="translate(249 2452.001)" opacity="0.74">
      <path id="Контур_2137" data-name="Контур 2137" d="M28,16H65.935V88.71H28Z" transform="translate(15.677 8.711)" fill="#fff"/>
      <path id="Контур_2138" data-name="Контур 2138" d="M55.258,54.705v2.047c0,5.238-9.907,9.484-22.129,9.484S11,61.99,11,56.752V54.705" transform="translate(5.806 31.185)" fill="#a8b0bc"/>
      <path id="Контур_2139" data-name="Контур 2139" d="M57.3,46.129V24H32.008v3.161l-.022.035a20.676,20.676,0,0,1,6.16,6.01l2.448,3.673.071-.047C50.674,38.8,57.3,42.231,57.3,46.129Z" transform="translate(17.992 13.356)" fill="#e39854"/>
      <path id="Контур_2140" data-name="Контур 2140" d="M74.71,38A31.612,31.612,0,0,1,43.1,69.613H33.613A31.612,31.612,0,0,1,2,38" transform="translate(0.581 21.485)" fill="#8892a0"/>
      <path id="Контур_2141" data-name="Контур 2141" d="M58.077,32.126c10.009,1.971,16.633,5.4,16.633,9.3,0,6.111-16.276,11.065-36.355,11.065S2,47.534,2,41.423C2,37.51,8.675,34.07,18.75,32.1" transform="translate(0.581 18.062)" fill="#758190"/>
      <path id="Контур_2142" data-name="Контур 2142" d="M66,52.385,53.218,33.206a20.675,20.675,0,0,0-34.4,0L6.028,52.385c6.552,2.9,17.539,4.808,29.988,4.808S59.452,55.289,66,52.385Z" transform="translate(2.919 13.356)" fill="#d5cec2"/>
      <path id="Контур_2143" data-name="Контур 2143" d="M57,16V83.968l7.9,4.742V16Z" transform="translate(32.516 8.711)" fill="#cbc3b6"/>
      <path id="Контур_2144" data-name="Контур 2144" d="M59.9,16V83.968L52,88.71V16Z" transform="translate(29.613 8.711)" fill="#e7e4dd"/>
      <path id="Контур_2145" data-name="Контур 2145" d="M52,20.645,59.9,8l7.9,12.645Z" transform="translate(29.613 4.066)" fill="#efbdae"/>
      <path id="Контур_2146" data-name="Контур 2146" d="M28,20.645,39.065,8H73.839l-7.9,12.645Z" transform="translate(15.677 4.066)" fill="#b2897d"/>
      <path id="Контур_2147" data-name="Контур 2147" d="M69.774,11.484V2H35v9.484" transform="translate(19.742 0.582)" fill="#2e2e2e"/>
      <g id="Сгруппировать_447" data-name="Сгруппировать 447" transform="translate(43.677 45.258)">
        <path id="Контур_2148" data-name="Контур 2148" d="M28,29h3.161v3.16H28Z" transform="translate(-28 -28.999)" fill="#e7e4dd"/>
      </g>
      <g id="Сгруппировать_448" data-name="Сгруппировать 448" transform="translate(27.871 50)">
        <path id="Контур_2149" data-name="Контур 2149" d="M18,32h3.161v3.16H18Z" transform="translate(-18 -31.999)" fill="#e7e4dd"/>
      </g>
      <g id="Сгруппировать_449" data-name="Сгруппировать 449" transform="translate(37.355 59.483)">
        <path id="Контур_2150" data-name="Контур 2150" d="M24,38h3.161v3.16H24Z" transform="translate(-24 -37.999)" fill="#e7e4dd"/>
      </g>
      <g id="Сгруппировать_450" data-name="Сгруппировать 450" transform="translate(51.581 56.322)">
        <path id="Контур_2151" data-name="Контур 2151" d="M33,36h3.161v3.16H33Z" transform="translate(-33 -35.999)" fill="#e7e4dd"/>
      </g>
      <g id="Сгруппировать_451" data-name="Сгруппировать 451" transform="translate(19.968 59.483)">
        <path id="Контур_2152" data-name="Контур 2152" d="M13,38h3.161v3.16H13Z" transform="translate(-13 -37.999)" fill="#e7e4dd"/>
      </g>
      <g id="Сгруппировать_452" data-name="Сгруппировать 452" transform="translate(1 0.998)">
        <path id="Контур_2153" data-name="Контур 2153" d="M99,24.708h0a1.569,1.569,0,0,0-.236-.836L91.1,11.61V2.579A1.581,1.581,0,0,0,89.516,1H54.742a1.581,1.581,0,0,0-1.581,1.581V11.47l-10.673,12.2a1.565,1.565,0,0,0-.375,1.042H42.1v11.31a22.035,22.035,0,0,0-21.679,9.666l-2.041,3.062C11.592,50.132,1,53.286,1,59.482v0a32.976,32.976,0,0,0,9.721,23.471,33.606,33.606,0,0,0,4.5,3.748v1.234C15.226,94.245,25.418,99,38.935,99l42.677,0a1.544,1.544,0,0,0,.8-.248l.014.024,7.091-4.255,7.091,4.254a1.578,1.578,0,0,0,.814.226,1.618,1.618,0,0,0,.779-.205,1.587,1.587,0,0,0,.8-1.377Zm-4.432-1.581h-10.1l5.052-8.08ZM87.935,91.781l-4.742,2.845V26.288h4.742ZM56.321,4.159H87.934v6.323H56.321ZM23.048,47.439a19.091,19.091,0,0,1,31.773,0l11.7,17.547c-5.983,2.233-15.468,3.98-27.584,3.98s-21.6-1.747-27.585-3.98ZM69.459,63.694,62.043,52.571c8.025,2.066,11.665,4.854,11.665,6.911,0,1.32-1.5,2.809-4.249,4.212Zm4.25-9.547c-3.672-2.814-9.781-4.5-14.215-5.4l-2.042-3.063a22.264,22.264,0,0,0-5.872-5.962v-.787H73.71ZM15.825,52.573,8.41,63.694c-2.752-1.4-4.249-2.894-4.249-4.212C4.161,57.422,7.8,54.634,15.825,52.573ZM4.707,65.174c6.528,4.548,20.686,6.953,34.229,6.953s27.68-2.4,34.216-6.944A30.072,30.072,0,0,1,43.677,89.514H34.194A30.026,30.026,0,0,1,4.707,65.174ZM18.537,88.768a33.02,33.02,0,0,0,15.656,3.907h9.484A32.985,32.985,0,0,0,59.35,88.73c-1.083,3.509-9.158,7.108-20.414,7.108-11.215,0-19.268-3.572-20.4-7.07Zm61.5,7.07-24.189,0c4.247-1.979,6.8-4.747,6.8-7.9V86.683a33.162,33.162,0,0,0,14.226-27.2h0V37.353a1.576,1.576,0,0,0-1.581-1.579L50,35.775a1.58,1.58,0,0,0-1.581,1.581v.579a22.146,22.146,0,0,0-3.163-1.209V26.288H80.031v69.55ZM47.161,23.127l8.3-9.484h31.2l-5.927,9.484ZM91.1,91.781V26.288h4.742V94.626Z" transform="translate(-1 -0.998)"/>
        <path id="Контур_2154" data-name="Контур 2154" d="M28,29h3.161v3.16H28Z" transform="translate(14.677 15.261)"/>
        <path id="Контур_2155" data-name="Контур 2155" d="M18,32h3.161v3.16H18Z" transform="translate(8.871 17.003)"/>
        <path id="Контур_2156" data-name="Контур 2156" d="M24,38h3.161v3.16H24Z" transform="translate(12.355 20.486)"/>
        <path id="Контур_2157" data-name="Контур 2157" d="M33,36h3.161v3.16H33Z" transform="translate(17.581 19.325)"/>
        <path id="Контур_2158" data-name="Контур 2158" d="M13,38h3.161v3.16H13Z" transform="translate(5.968 20.486)"/>
      </g>
    </g>
  </g>
</svg>
