<svg xmlns="http://www.w3.org/2000/svg" width="154.615" height="126.176" viewBox="0 0 154.615 126.176">
  <g id="_2" data-name="2" transform="translate(-606.142 -2447.994)">
    <path id="Bg" d="M897.387,805.76c31.686-7.551,143.92-10.837,118.453,39.506s7.7,81.14-21.322,82.325S930.554,882.578,889.1,875.471,865.7,813.311,897.387,805.76Z" transform="translate(-258.811 1646.558)" fill="#efbdae" opacity="0.62"/>
    <g id="recipe" transform="translate(640.5 2455.5)">
      <path id="Контур_2124" data-name="Контур 2124" d="M8,101.767h93.767V8H8ZM53.267,95.3H20.933V82.367H53.267ZM66.2,14.467H95.3V30.633H66.2ZM63.112,83.983H76.046a9.708,9.708,0,1,1,3.088,8.832h0a9.669,9.669,0,0,1-16.021-8.832ZM14.467,14.467H59.733V74.283H14.467Z" transform="translate(-6.383 -6.383)" fill="#efe5d3"/>
      <path id="Контур_2125" data-name="Контур 2125" d="M85.267,40H40V99.817H85.267ZM78.8,70.717A12.934,12.934,0,0,1,65.867,83.65h4.85v3.233a3.232,3.232,0,0,1-3.233,3.233h-9.7a3.232,3.232,0,0,1-3.233-3.233V83.65H59.4A12.934,12.934,0,0,1,46.467,70.717V67.483h4.493a4.808,4.808,0,0,1,1-7.323,4.8,4.8,0,0,1-.647-2.377,4.834,4.834,0,0,1,6.654-4.494,4.823,4.823,0,0,1,9.325,0A4.821,4.821,0,0,1,73.3,60.16a4.808,4.808,0,0,1,1,7.323H78.8Z" transform="translate(-31.917 -31.917)" fill="#efbdae"/>
      <path id="Контур_2126" data-name="Контур 2126" d="M101.1,102.55a4.837,4.837,0,0,0-2.263-4.09,4.827,4.827,0,0,0-6.008-6.871,4.823,4.823,0,0,0-9.325,0A4.821,4.821,0,0,0,77.5,98.46a4.808,4.808,0,0,0-1,7.324H72v3.233A12.934,12.934,0,0,0,84.933,121.95h-4.85v3.233a3.232,3.232,0,0,0,3.233,3.233h9.7a3.232,3.232,0,0,0,3.233-3.233V121.95H91.4a12.934,12.934,0,0,0,12.933-12.933v-3.233H99.841A4.814,4.814,0,0,0,101.1,102.55Z" transform="translate(-57.45 -70.217)" fill="#efe5d3"/>
      <g id="Сгруппировать_445" data-name="Сгруппировать 445" transform="translate(14.55 7.76)">
        <rect id="Прямоугольник_930" data-name="Прямоугольник 930" width="32" height="14" transform="translate(-0.05 67.74)" fill="#68c9ba"/>
        <rect id="Прямоугольник_931" data-name="Прямоугольник 931" width="29" height="17" transform="translate(45.95 -0.26)" fill="#68c9ba"/>
        <path id="Контур_2127" data-name="Контур 2127" d="M351.041,353.7a9.871,9.871,0,0,1-.057,1.031c-.01.094-.029.184-.042.278-.034.246-.07.491-.12.731-.019.092-.049.181-.07.273-.058.238-.121.475-.2.706-.026.078-.057.152-.084.228-.086.243-.178.482-.283.715-.026.058-.057.115-.084.173-.118.249-.244.491-.382.729-.023.039-.047.076-.069.113-.152.254-.314.5-.488.737-.015.021-.031.04-.045.061q-.281.378-.6.726l-.019.021a9.721,9.721,0,0,1-.7.692h0a9.7,9.7,0,1,0-3.089-8.832H350.9A9.7,9.7,0,0,1,351.041,353.7Z" transform="translate(-289.608 -282.243)" fill="#68c9ba"/>
      </g>
      <path id="Контур_2128" data-name="Контур 2128" d="M289.7,395.317a9.648,9.648,0,0,0,6.467-2.485,9.374,9.374,0,0,0,.7-.692.239.239,0,0,1,.019-.021q.315-.349.6-.726c.015-.021.031-.04.045-.061.175-.238.336-.483.488-.737l.07-.113c.137-.236.264-.48.382-.729.027-.058.057-.115.084-.173.105-.233.2-.472.283-.715.027-.076.058-.15.084-.228.076-.231.137-.467.2-.706.023-.092.05-.181.069-.273.052-.239.087-.485.12-.731.013-.092.032-.184.042-.278a9.446,9.446,0,0,0,.058-1.031,9.7,9.7,0,0,0-.145-1.617H280.145a9.647,9.647,0,0,0,9.555,11.317Z" transform="translate(-223.417 -306.4)" fill="#58b7a0"/>
      <g id="Сгруппировать_446" data-name="Сгруппировать 446">
        <path id="Контур_2129" data-name="Контур 2129" d="M95.383,0H1.617A1.617,1.617,0,0,0,0,1.617V95.383A1.617,1.617,0,0,0,1.617,97H95.383A1.617,1.617,0,0,0,97,95.383V1.617A1.617,1.617,0,0,0,95.383,0ZM93.767,93.767H3.233V3.233H93.767Z" fill="#353535"/>
        <path id="Контур_2130" data-name="Контур 2130" d="M97.95,97.783H96.1a6.333,6.333,0,0,0,.236-1.617,6.411,6.411,0,0,0-1.909-4.577,6.252,6.252,0,0,0,.293-1.89,6.473,6.473,0,0,0-6.467-6.467,6.276,6.276,0,0,0-.854.058,6.432,6.432,0,0,0-11.226,0,6.276,6.276,0,0,0-.854-.058A6.473,6.473,0,0,0,68.85,89.7a6.251,6.251,0,0,0,.293,1.89,6.411,6.411,0,0,0-1.909,4.577,6.333,6.333,0,0,0,.236,1.617H65.617A1.617,1.617,0,0,0,64,99.4v3.233a14.553,14.553,0,0,0,8.083,13.014V118.8a4.856,4.856,0,0,0,4.85,4.85h9.7a4.856,4.856,0,0,0,4.85-4.85v-3.152a14.555,14.555,0,0,0,8.083-13.014V99.4A1.617,1.617,0,0,0,97.95,97.783ZM70.467,96.167a3.218,3.218,0,0,1,1.512-2.724,1.616,1.616,0,0,0,.542-2.163,3.179,3.179,0,0,1-.437-1.579,3.26,3.26,0,0,1,4.436-2.994,1.615,1.615,0,0,0,2.161-1.078,3.207,3.207,0,0,1,6.2,0,1.627,1.627,0,0,0,.839,1.025,1.607,1.607,0,0,0,1.322.053A3.259,3.259,0,0,1,91.483,89.7a3.179,3.179,0,0,1-.437,1.579,1.616,1.616,0,0,0,.542,2.163A3.218,3.218,0,0,1,93.1,96.167a3.107,3.107,0,0,1-.448,1.617H70.914A3.107,3.107,0,0,1,70.467,96.167ZM88.25,117.183V118.8a1.619,1.619,0,0,1-1.617,1.617h-9.7a1.619,1.619,0,0,1-1.617-1.617v-1.617H88.25Zm8.083-14.55A11.329,11.329,0,0,1,85.017,113.95H78.55a11.329,11.329,0,0,1-11.317-11.317v-1.617h29.1Z" transform="translate(-51.067 -63.833)" fill="#353535"/>
        <path id="Контур_2131" data-name="Контур 2131" d="M184,201.617v3.233a4.856,4.856,0,0,0,4.85-4.85h-3.233A1.619,1.619,0,0,1,184,201.617Z" transform="translate(-146.817 -159.583)" fill="#353535"/>
        <rect id="Прямоугольник_932" data-name="Прямоугольник 932" width="4" height="4" transform="translate(27.5 27.5)" fill="#353535"/>
        <rect id="Прямоугольник_933" data-name="Прямоугольник 933" width="3" height="4" transform="translate(33.5 27.5)" fill="#353535"/>
        <rect id="Прямоугольник_934" data-name="Прямоугольник 934" width="2" height="3" transform="translate(31.5 43.5)" fill="#353535"/>
        <path id="Контур_2132" data-name="Контур 2132" d="M33.617,95.05H78.883A1.617,1.617,0,0,0,80.5,93.433V33.617A1.617,1.617,0,0,0,78.883,32H33.617A1.617,1.617,0,0,0,32,33.617V93.433A1.617,1.617,0,0,0,33.617,95.05Zm1.617-59.817H77.267V91.817H35.233Z" transform="translate(-25.533 -25.533)" fill="#353535"/>
        <path id="Контур_2133" data-name="Контур 2133" d="M97.95,368H65.617A1.617,1.617,0,0,0,64,369.617V382.55a1.617,1.617,0,0,0,1.617,1.617H97.95a1.617,1.617,0,0,0,1.617-1.617V369.617A1.617,1.617,0,0,0,97.95,368Zm-1.617,12.933h-29.1v-9.7h29.1Z" transform="translate(-51.067 -293.633)" fill="#353535"/>
        <rect id="Прямоугольник_935" data-name="Прямоугольник 935" width="22" height="4" transform="translate(19.5 80.5)" fill="#353535"/>
        <rect id="Прямоугольник_936" data-name="Прямоугольник 936" width="3" height="3" transform="translate(58.5 32.5)" fill="#353535"/>
        <rect id="Прямоугольник_937" data-name="Прямоугольник 937" width="16" height="3" transform="translate(64.5 32.5)" fill="#353535"/>
        <rect id="Прямоугольник_938" data-name="Прямоугольник 938" width="3" height="3" transform="translate(58.5 41.5)" fill="#353535"/>
        <rect id="Прямоугольник_939" data-name="Прямоугольник 939" width="16" height="3" transform="translate(64.5 41.5)" fill="#353535"/>
        <rect id="Прямоугольник_940" data-name="Прямоугольник 940" width="3" height="3" transform="translate(58.5 52.5)" fill="#353535"/>
        <rect id="Прямоугольник_941" data-name="Прямоугольник 941" width="16" height="3" transform="translate(64.5 52.5)" fill="#353535"/>
        <rect id="Прямоугольник_942" data-name="Прямоугольник 942" width="3" height="3" transform="translate(58.5 61.5)" fill="#353535"/>
        <rect id="Прямоугольник_943" data-name="Прямоугольник 943" width="16" height="3" transform="translate(64.5 61.5)" fill="#353535"/>
        <rect id="Прямоугольник_944" data-name="Прямоугольник 944" width="6" height="3" transform="translate(84.5 32.5)" fill="#353535"/>
        <rect id="Прямоугольник_945" data-name="Прямоугольник 945" width="6" height="3" transform="translate(84.5 41.5)" fill="#353535"/>
        <rect id="Прямоугольник_946" data-name="Прямоугольник 946" width="6" height="3" transform="translate(84.5 52.5)" fill="#353535"/>
        <rect id="Прямоугольник_947" data-name="Прямоугольник 947" width="6" height="3" transform="translate(84.5 61.5)" fill="#353535"/>
        <path id="Контур_2134" data-name="Контур 2134" d="M289.617,51.4h29.1a1.617,1.617,0,0,0,1.617-1.617V33.617A1.617,1.617,0,0,0,318.717,32h-29.1A1.617,1.617,0,0,0,288,33.617V49.783A1.617,1.617,0,0,0,289.617,51.4Zm1.617-16.167H317.1V48.167H291.233Z" transform="translate(-229.8 -25.533)" fill="#353535"/>
        <rect id="Прямоугольник_948" data-name="Прямоугольник 948" width="20" height="3" transform="translate(64.5 14.5)" fill="#353535"/>
        <path id="Контур_2135" data-name="Контур 2135" d="M283.317,358.633a11.247,11.247,0,0,0,6.475-2.048,11.31,11.31,0,1,0-4.368-12.5H273.762a1.617,1.617,0,0,0-1.594,1.348,11.262,11.262,0,0,0,11.149,13.2Zm12.933-19.4a8.083,8.083,0,1,1-4.045,15.072c.015-.018.023-.039.037-.057a11.292,11.292,0,0,0,1.727-3.148c.016-.045.034-.091.05-.137a11.21,11.21,0,0,0,.43-1.664c.015-.082.026-.167.039-.249a11.557,11.557,0,0,0,.146-1.735,11.275,11.275,0,0,0-.168-1.885,1.617,1.617,0,0,0-1.594-1.348h-4.026A8.046,8.046,0,0,1,296.25,339.233Zm-9.555,8.083h4.7a8.149,8.149,0,0,1-.154,1.523c-.01.049-.013.1-.023.145a7.913,7.913,0,0,1-.4,1.29c-.036.091-.066.184-.107.273a8.151,8.151,0,0,1-.595,1.1c-.065.1-.128.205-.2.3a8.081,8.081,0,0,1-.773.936q-.131.136-.267.267a8.063,8.063,0,0,1-13.65-5.835Z" transform="translate(-217.033 -268.1)" fill="#353535"/>
        <rect id="Прямоугольник_949" data-name="Прямоугольник 949" width="3" height="4" transform="translate(61.5 80.5)" fill="#353535"/>
        <rect id="Прямоугольник_950" data-name="Прямоугольник 950" width="3" height="4" transform="translate(67.5 80.5)" fill="#353535"/>
        <path id="Контур_2136" data-name="Контур 2136" d="M396.85,392h-3.233A1.619,1.619,0,0,1,392,393.617v3.233A4.856,4.856,0,0,0,396.85,392Z" transform="translate(-312.783 -312.783)" fill="#353535"/>
      </g>
    </g>
  </g>
</svg>
