<svg xmlns="http://www.w3.org/2000/svg" xmlns:xlink="http://www.w3.org/1999/xlink" width="421.083" height="1008.986" viewBox="0 0 421.083 1008.986">
  <defs>
    <filter id="Right_Full_BG" x="0" y="0" width="421.083" height="1008.986" filterUnits="userSpaceOnUse">
      <feOffset dy="34" input="SourceAlpha"/>
      <feGaussianBlur stdDeviation="49.5" result="blur"/>
      <feFlood flood-opacity="0.161"/>
      <feComposite operator="in" in2="blur"/>
      <feComposite in="SourceGraphic"/>
    </filter>
  </defs>
  <g transform="matrix(1, 0, 0, 1, 0, 0)" filter="url(#Right_Full_BG)">
    <path id="Right_Full_BG-2" data-name="Right Full BG" d="M0,629.987V-82C11.258-62.8,21.888-43.553,31.6-24.788c9.608,18.569,18.589,37.2,26.694,55.363C66.306,48.538,73.687,66.554,80.23,84.122c6.468,17.367,12.3,34.783,17.33,51.764,4.973,16.784,9.3,33.611,12.87,50.014,3.526,16.21,6.405,32.46,8.559,48.3,2.128,15.647,3.606,31.33,4.395,46.613.779,15.1.907,30.223.379,44.962-.521,14.554-1.694,29.137-3.488,43.344-1.771,14.024-4.2,28.074-7.208,41.759-2.972,13.505-6.6,27.033-10.78,40.207-4.124,13-8.9,26.013-14.2,38.688-5.227,12.5-11.107,25.015-17.478,37.2-6.28,12.012-13.213,24.04-20.606,35.748-7.285,11.538-15.22,23.087-23.585,34.327C18.177,608.12,9.289,619.2,0,629.985Z" transform="translate(272.58 744.49) rotate(180)" fill="#f9f9f9"/>
  </g>
</svg>
